<?xml version="1.0" encoding="utf-8"?>
<!-- Generator: Adobe Illustrator 27.7.0, SVG Export Plug-In . SVG Version: 6.00 Build 0)  -->
<svg version="1.1" id="Ebene_1" xmlns="http://www.w3.org/2000/svg" xmlns:xlink="http://www.w3.org/1999/xlink" x="0px" y="0px"
	 viewBox="0 0 141.7 141.7" style="enable-background:new 0 0 141.7 141.7;" xml:space="preserve">
<style type="text/css">
	.st0{fill:#AFCA0B;}
	.st1{fill-rule:evenodd;clip-rule:evenodd;fill:#FFFFFF;}
	.st2{fill:#FFFFFF;}
</style>
<circle class="st0" cx="70.9" cy="71" r="70.9"/>
<path class="st1" d="M52.9,52.6c1.2-1.4,2.8-2.4,4-3.7c1.2-1.2,1.9-2.7,1.2-4.9c0.2-1.1,0.7-1.7,1.2-2.1c0.6-0.5,1.2-0.8,1.5-1.4
	c0.2-0.8,0.3-1.6,0.5-2.3c0.2-0.8-0.2-1.9,0.5-2.3c0.4-0.3,0.6,0.1,0.8,0.2c0.2,0,0.4,0.2,0.5-0.1c0.1-0.2-0.1-0.5-0.2-0.8
	c0-0.3,0.1-0.7-0.2-0.8c-0.4,0-0.3,0.6-0.4,0.7c-0.1,0.1-0.2,0.5-0.4,0.3c-0.1,0,0.1-0.1,0.1-0.2c0-0.1,0.1-0.1,0.1-0.2
	c0-0.5,0-1.1,0.2-1.7s0.1-1.8,0.8-2c0.6-0.2,0.6,0.5,0.7,0.6c0.1,0,0.7,0.2,0.7-0.5c0-0.4-0.6-0.3-0.7-0.4c-0.1-0.1-0.4-0.2-0.3-0.4
	c0-0.2,0.5-0.4,0.7-0.6c0.3-0.3,0.5-0.8,0.7-0.6c0.3,0.2,0,0.5,0,0.6c0,0.1-0.2,0.4,0.1,0.4c0.1,0,0.1-0.3,0.2-0.4
	c0.1-0.1,0.2-0.3,0.2-0.4c-0.2-1.3-0.7-2.8-0.1-4.4c0.6-1.6,1.6-3.1,2.8-3.7c-0.8-1.3-0.8-2.4-0.5-3.6c0.3-1.2,0.1-2.8,1.1-3.9
	c0.6-0.7,1.9-0.5,2.9-0.7s2.4-0.4,3.1,0.7c0.3,0.5,0.1,0.8,0.2,1s0.7,0.1,0.9,0.8c0.9,3-1.8,5.7-2.5,8.3c-0.7,2.6-1.6,4.9-3.4,6.8
	c0,0-0.4,2.3-0.7,4.6s-0.7,4.7-0.7,4.9c-0.5-0.1-0.8-0.1-1-0.1c-0.3,0-0.5,0.1-0.9,0.2c2,1.1,3.8,2.3,5.7,2.9s3.6,0.6,5.4-0.9
	c-0.7-0.3-1.1-0.3-1.3-0.3c-0.1-0.1,0-0.3,0.4-0.9c-1-0.1-1.7-0.6-2-1.4c-0.3-0.8-0.3-1.8,0.1-3c-0.3-1.7,0.3-2.5,1.2-3.1
	c0.9-0.6,1.9-1,2.6-1.8c0.7-2.1,0.7-3.6,1.1-5c0.4-1.4,1.1-2.8,3.2-4.8c0.4,0.1,0.6,0.1,0.8,0.2c0.2,0,0.3,0,0.5-0.1
	c-1.2-1.2-0.8-2.8,0.1-4.5s1.7-4.2,3.1-4.8c1-0.4,1.7,0.3,2.4,0.4c0.7,0.1,1.8-0.3,2.7,0.6c1.4,1.5,0.4,4-0.3,5.9
	c-0.7,1.9-2,3.5-3.3,4.6c-0.4,1.7-0.8,3.3-1.6,4.7c-0.8,1.4-1.9,2.6-3.4,3.4c-0.5,0.5-0.4,1.4-0.3,2.3c0.2,0.9,0.4,1.9,0.1,2.7
	c-0.5,1.5-1.1,2.5-1.8,3.3s-1.5,1.6-2.4,2.8c2.1,2.6,3.2,2.4,4.2,1.2c1-1.1,1.8-3.1,3.4-4.2c0.1,0.2,0.2,0.4,0.2,0.6
	c0.1,0.2,0.2,0.4,0.2,0.6c0.2-1.9,2-5,4.1-8.2s4.7-6.6,6.4-9.2c0.8,0.1,1.3,0.1,1.9,0.1s1.3,0.2,2.3,0.6c0.1,0,0.2-0.1,0.3-0.1
	c0.1,0,0.2-0.1,0.3-0.1c0.7,2.2,0.5,4.4-0.3,6.4s-2.2,3.6-4.1,4.7c0.5,2.5-0.7,3.7-2.1,4.9c-1.4,1.2-2.9,2.3-3,4.5
	c-0.1-0.1-0.3-0.1-0.4-0.2s-0.3-0.1-0.4-0.2c0.5,2.4-0.8,3.5-2.6,4.4c-1.7,0.9-3.9,1.7-5.1,3.6c0.3,0.6,0.4,1.3,0.6,2.1
	c0.1,0.7,0.2,1.5,0.6,2c0.4,0.6,0.7,0.9,1,1.2c0.3,0.3,0.6,0.6,0.7,1.3c0.9,0,1-0.1,1.1,0c0.1,0.1,0.1,0.2,0.9,0.8
	c0.5-1.1,1-1.5,1.5-1.7c0.5-0.2,1.1-0.2,1.8-0.7c-0.1,0-0.2,0.1-0.3,0.1c-0.1,0-0.2,0.1-0.3,0.1C92,58.7,92,58.5,92,58.2
	c0.1-0.3,0.2-0.7,0.2-0.7c2.4-0.5,5.2-2.7,8.2-4.4c3-1.7,5.9-2.2,9-2.1c0.7,0,1,0.1,1.3,0.6c0.3,0.5,0.2,1.6,0.6,1.5
	c0.5-0.1,0-0.7,0.1-0.9c0-0.2,0.1-0.8,0.5-0.7c0.3,0,0.2,0.3,0.2,0.3c0.1,0.1,0.3,0,0.4,0.4c0.4,1.4-1.3,2.7-2.4,3.8
	c-1.1,1.2-2.5,2.2-3.9,2.9c-0.9-1.1-1.6-0.7-2.3,0c-0.7,0.8-1.4,1.9-2.2,2.3c-1.8-0.3-3.5,0-5.2,0.7s-3.3,1.7-4.8,2.7
	c-0.2-0.2-0.4-0.5-0.6-0.7c-0.2-0.2-0.4-0.5-0.6-0.7c-0.1,0.1-0.1,0.3-0.2,0.4c-0.1,0.1-0.1,0.3-0.2,0.4c0.4,0.5,0.6,0.8,0.6,1.2
	c0,0.4-0.1,0.9-0.3,1.6c-4,2.3-7,7.5-10.1,11.9s-6.2,8-10.6,7c-1,0.2-2.5,1-4.1,1.4c-1.6,0.4-3.4,0.3-5.1-1.3
	c-0.2-0.2-0.5-0.7-0.8-1.2c-0.3-0.5-0.7-1.1-0.9-1.3c-4.3-1.2-7.6-4-10.2-7.4s-4.3-7.6-5.3-11.5c-0.2-1.6,0-3.2,0.2-4.9
	c0.1-1.7,0.1-3.3-0.9-5c1.8-2.4,1.1-4.2,0.2-5.9c-0.8-1.7-1.8-3.2-0.5-5.2c-1.1-0.1-1.8-1.2-1.9-2.4s0.2-2.7,1-3.5
	c-0.1,0-0.1-0.1-0.2-0.1s-0.1-0.1-0.2-0.1c-0.2,0.2-0.2,0.3-0.3,0.3s-0.1,0-0.3-0.1c-0.1-0.7-0.2-1.5-0.3-2.2
	c-0.1-0.7-0.2-1.5-0.3-2.2c1.1-0.4,2-0.7,2.9-0.9s1.9-0.1,3.2,0.5c0.1,0.3,0.5,0.7,0.8,1c0.3,0.3,0.6,0.7,0.7,1
	c0.1,0.2-0.2,0.3-0.3,0.5c-0.1,0.2-0.5,1.5,0.4,1.4c0.1,0,0.1-0.1,0.1-0.2c0-0.1,0.1-0.1,0.1-0.2c0-0.2-0.2-0.4-0.2-0.6
	c-0.1-0.2-0.4-0.4-0.2-0.6c0.2-0.2,0.5,0.2,0.8,0.3c0.3,0.1,0.6,0.1,0.8,0.3c1.1,1.8,0.4,4,0.7,5.9c0.3,1.9,0.3,3.8-1.2,5.8
	c0.2,0.1,0.3,0.3,0.5,0.4s0.3,0.3,0.5,0.4c0,0.2-0.1,0.5-0.2,0.9c-0.1,0.4-0.2,0.8-0.2,1.3c0.8,0.4,1.2,0.7,1.6,1
	C51.2,51.9,51.7,52.2,52.9,52.6z"/>
<g>
	<g>
	</g>
</g>
<polygon class="st2" points="98.2,70.4 97.4,74.6 114.8,77.6 91,93.1 50.4,93.1 21,112.4 23.3,115.9 51.6,97.3 92.3,97.3 
	117.1,81.1 112.8,98.2 116.9,99.2 123,74.7 "/>
</svg>
