<?xml version="1.0" encoding="UTF-8"?>
<svg id="Ebene_2" data-name="Ebene 2" xmlns="http://www.w3.org/2000/svg" viewBox="0 0 543 93">
  <defs>
    <style>
      .cls-1 {
        font-family: RobotoCondensed-Bold, 'Roboto Condensed';
        font-size: 39px;
        font-weight: 700;
      }

      .cls-1, .cls-2 {
        fill: #afca0b;
      }

      .cls-3 {
        stroke: #afca0b;
      }

      .cls-3, .cls-4 {
        fill: none;
        stroke-miterlimit: 10;
        stroke-width: 3px;
      }

      .cls-4 {
        stroke: #cbd96b;
      }

      .cls-5 {
        letter-spacing: .03em;
      }

      .cls-6 {
        letter-spacing: .02em;
      }

      .cls-7 {
        letter-spacing: 0em;
      }
    </style>
  </defs>
  <g id="Bewertunstorten">
    <g>
      <rect class="cls-3" x="1.5" y="1.5" width="540" height="90" rx="14.14" ry="14.14"/>
      <line class="cls-4" x1="91.5" y1="1.5" x2="91.5" y2="91.5"/>
      <text class="cls-1" transform="translate(107.62 60.27)"><tspan class="cls-5" x="0" y="0">G</tspan><tspan class="cls-7" x="23.79" y="0">r</tspan><tspan class="cls-6" x="37.01" y="0">oßstädte</tspan></text>
      <g>
        <path class="cls-2" d="M42.39,29.35c0,.53-.43.96-.96.96h-7.23c-.53,0-.96-.43-.96-.96v-1.35c0-.53.43-.96.96-.96h7.23c.53,0,.96.43.96.96v1.35ZM56.76,40.44c0-.53-.43-.96-.96-.96h-5.88c-.53,0-.96.43-.96.96v1.35c0,.53.43.96.96.96h5.88c.53,0,.96-.43.96-.96v-1.35ZM56.76,34.2c0-.53-.43-.96-.96-.96h-21.59c-.53,0-.96.43-.96.96v1.35c0,.53.43.96.96.96h21.59c.53,0,.96-.43.96-.96v-1.35ZM45.77,40.39c0-.53-.43-.96-.96-.96h-10.6c-.53,0-.96.43-.96.96v1.35c0,.53.43.96.96.96h10.6c.53,0,.96-.43.96-.96v-1.35ZM56.76,46.59c0-.53-.43-.96-.96-.96h-21.59c-.53,0-.96.43-.96.96v1.35c0,.53.43.96.96.96h21.59c.53,0,.96-.43.96-.96v-1.35ZM56.76,52.78c0-.53-.43-.96-.96-.96h-10.89c-.53,0-.96.43-.96.96v1.35c0,.53.43.96.96.96h10.89c.53,0,.96-.43.96-.96v-1.35ZM81.44,32.63v47.91c0,.59-.47,1.06-1.06,1.06h-18.99c-.07,0-.13,0-.19-.02-.06.01-.13.02-.19.02H13.96c-.59,0-1.06-.47-1.06-1.06v-28.34c0-.59.47-1.06,1.06-1.06h4.91v-6.65h3.28v6.65h5.2V12.2c0-.34.16-.66.44-.86.28-.2.63-.25.96-.15l20,6.69v-5.58h3.28v6.68l3.08,1.03v-7.71h3.28v8.81l2.94.98c.43.14.72.55.72,1.01v8.48h18.32c.59,0,1.06.47,1.06,1.06ZM59.94,23.85l-30.46-10.18v37.47h11.57c.59,0,1.06.47,1.06,1.06v27.28h7.23v-6.56c-2.93-.73-5.11-3.39-5.11-6.55,0-3.73,3.02-6.75,6.75-6.75s6.75,3.02,6.75,6.75c0,3.16-2.17,5.81-5.11,6.55v6.56h7.32V23.85ZM34.78,58.95c0-.53-.43-.96-.96-.96h-2.8c-.53,0-.96.43-.96.96v1.35c0,.53.43.96.96.96h2.8c.53,0,.96-.43.96-.96v-1.35ZM34.78,65.41c0-.53-.43-.96-.96-.96h-2.8c-.53,0-.96.43-.96.96v1.35c0,.53.43.96.96.96h2.8c.53,0,.96-.43.96-.96v-1.35ZM34.78,71.87c0-.53-.43-.96-.96-.96h-2.8c-.53,0-.96.43-.96.96v1.35c0,.53.43.96.96.96h2.8c.53,0,.96-.43.96-.96v-1.35ZM25.23,58.95c0-.53-.43-.96-.96-.96h-2.8c-.53,0-.96.43-.96.96v1.35c0,.53.43.96.96.96h2.8c.53,0,.96-.43.96-.96v-1.35ZM25.23,65.41c0-.53-.43-.96-.96-.96h-2.8c-.53,0-.96.43-.96.96v1.35c0,.53.43.96.96.96h2.8c.53,0,.96-.43.96-.96v-1.35ZM25.23,71.87c0-.53-.43-.96-.96-.96h-2.8c-.53,0-.96.43-.96.96v1.35c0,.53.43.96.96.96h2.8c.53,0,.96-.43.96-.96v-1.35ZM74.69,38.61c0-.53-.43-.96-.96-.96h-5.01c-.53,0-.96.43-.96.96v2.89c0,.53.43.96.96.96h5.01c.53,0,.96-.43.96-.96v-2.89ZM74.69,46.51c0-.53-.43-.96-.96-.96h-5.01c-.53,0-.96.43-.96.96v2.89c0,.53.43.96.96.96h5.01c.53,0,.96-.43.96-.96v-2.89ZM74.69,54.42c0-.53-.43-.96-.96-.96h-5.01c-.53,0-.96.43-.96.96v2.89c0,.53.43.96.96.96h5.01c.53,0,.96-.43.96-.96v-2.89ZM74.69,62.32c0-.53-.43-.96-.96-.96h-5.01c-.53,0-.96.43-.96.96v2.89c0,.53.43.96.96.96h5.01c.53,0,.96-.43.96-.96v-2.89ZM74.69,70.23c0-.53-.43-.96-.96-.96h-5.01c-.53,0-.96.43-.96.96v2.89c0,.53.43.96.96.96h5.01c.53,0,.96-.43.96-.96v-2.89Z"/>
        <path class="cls-2" d="M83.65,81.6H10.77c-.59,0-1.06-.47-1.06-1.06s.47-1.06,1.06-1.06h72.88c.59,0,1.06.47,1.06,1.06s-.47,1.06-1.06,1.06Z"/>
      </g>
    </g>
  </g>
</svg>