<?xml version="1.0" encoding="UTF-8"?>
<svg id="Ebene_2" data-name="Ebene 2" xmlns="http://www.w3.org/2000/svg" viewBox="0 0 540 90">
  <defs>
    <style>
      .cls-1 {
        fill: none;
        stroke: #fff;
        stroke-miterlimit: 10;
        stroke-width: 3px;
      }

      .cls-2, .cls-3 {
        fill: #fff;
      }

      .cls-3 {
        font-family: RobotoCondensed-Bold, 'Roboto Condensed';
        font-size: 39px;
        font-weight: 700;
      }

      .cls-4 {
        letter-spacing: .03em;
      }

      .cls-5 {
        letter-spacing: .02em;
      }

      .cls-6 {
        fill: #afca0b;
      }

      .cls-7 {
        letter-spacing: 0em;
      }
    </style>
  </defs>
  <g id="Bewertunstorten">
    <g id="Ebene_4" data-name="Ebene 4">
      <rect class="cls-6" width="540" height="90" rx="14.14" ry="14.14"/>
      <line class="cls-1" x1="90" x2="90" y2="90"/>
      <text class="cls-3" transform="translate(106.12 58.77)"><tspan class="cls-4" x="0" y="0">G</tspan><tspan class="cls-7" x="23.79" y="0">r</tspan><tspan class="cls-5" x="37.01" y="0">oßstädte</tspan></text>
    </g>
    <g>
      <path class="cls-2" d="M40.89,27.85c0,.53-.43.96-.96.96h-7.23c-.53,0-.96-.43-.96-.96v-1.35c0-.53.43-.96.96-.96h7.23c.53,0,.96.43.96.96v1.35ZM55.26,38.94c0-.53-.43-.96-.96-.96h-5.88c-.53,0-.96.43-.96.96v1.35c0,.53.43.96.96.96h5.88c.53,0,.96-.43.96-.96v-1.35ZM55.26,32.7c0-.53-.43-.96-.96-.96h-21.59c-.53,0-.96.43-.96.96v1.35c0,.53.43.96.96.96h21.59c.53,0,.96-.43.96-.96v-1.35ZM44.27,38.89c0-.53-.43-.96-.96-.96h-10.6c-.53,0-.96.43-.96.96v1.35c0,.53.43.96.96.96h10.6c.53,0,.96-.43.96-.96v-1.35ZM55.26,45.09c0-.53-.43-.96-.96-.96h-21.59c-.53,0-.96.43-.96.96v1.35c0,.53.43.96.96.96h21.59c.53,0,.96-.43.96-.96v-1.35ZM55.26,51.28c0-.53-.43-.96-.96-.96h-10.89c-.53,0-.96.43-.96.96v1.35c0,.53.43.96.96.96h10.89c.53,0,.96-.43.96-.96v-1.35ZM79.94,31.13v47.91c0,.59-.47,1.06-1.06,1.06h-18.99c-.07,0-.13,0-.19-.02-.06.01-.13.02-.19.02H12.46c-.59,0-1.06-.47-1.06-1.06v-28.34c0-.59.47-1.06,1.06-1.06h4.91v-6.65h3.28v6.65h5.2V10.7c0-.34.16-.66.44-.86.28-.2.63-.25.96-.15l20,6.69v-5.58h3.28v6.68l3.08,1.03v-7.71h3.28v8.81l2.94.98c.43.14.72.55.72,1.01v8.48h18.32c.59,0,1.06.47,1.06,1.06ZM58.44,22.35l-30.46-10.18v37.47h11.57c.59,0,1.06.47,1.06,1.06v27.28h7.23v-6.56c-2.93-.73-5.11-3.39-5.11-6.55,0-3.73,3.02-6.75,6.75-6.75s6.75,3.02,6.75,6.75c0,3.16-2.17,5.81-5.11,6.55v6.56h7.32V22.35ZM33.28,57.45c0-.53-.43-.96-.96-.96h-2.8c-.53,0-.96.43-.96.96v1.35c0,.53.43.96.96.96h2.8c.53,0,.96-.43.96-.96v-1.35ZM33.28,63.91c0-.53-.43-.96-.96-.96h-2.8c-.53,0-.96.43-.96.96v1.35c0,.53.43.96.96.96h2.8c.53,0,.96-.43.96-.96v-1.35ZM33.28,70.37c0-.53-.43-.96-.96-.96h-2.8c-.53,0-.96.43-.96.96v1.35c0,.53.43.96.96.96h2.8c.53,0,.96-.43.96-.96v-1.35ZM23.73,57.45c0-.53-.43-.96-.96-.96h-2.8c-.53,0-.96.43-.96.96v1.35c0,.53.43.96.96.96h2.8c.53,0,.96-.43.96-.96v-1.35ZM23.73,63.91c0-.53-.43-.96-.96-.96h-2.8c-.53,0-.96.43-.96.96v1.35c0,.53.43.96.96.96h2.8c.53,0,.96-.43.96-.96v-1.35ZM23.73,70.37c0-.53-.43-.96-.96-.96h-2.8c-.53,0-.96.43-.96.96v1.35c0,.53.43.96.96.96h2.8c.53,0,.96-.43.96-.96v-1.35ZM73.19,37.11c0-.53-.43-.96-.96-.96h-5.01c-.53,0-.96.43-.96.96v2.89c0,.53.43.96.96.96h5.01c.53,0,.96-.43.96-.96v-2.89ZM73.19,45.01c0-.53-.43-.96-.96-.96h-5.01c-.53,0-.96.43-.96.96v2.89c0,.53.43.96.96.96h5.01c.53,0,.96-.43.96-.96v-2.89ZM73.19,52.92c0-.53-.43-.96-.96-.96h-5.01c-.53,0-.96.43-.96.96v2.89c0,.53.43.96.96.96h5.01c.53,0,.96-.43.96-.96v-2.89ZM73.19,60.82c0-.53-.43-.96-.96-.96h-5.01c-.53,0-.96.43-.96.96v2.89c0,.53.43.96.96.96h5.01c.53,0,.96-.43.96-.96v-2.89ZM73.19,68.73c0-.53-.43-.96-.96-.96h-5.01c-.53,0-.96.43-.96.96v2.89c0,.53.43.96.96.96h5.01c.53,0,.96-.43.96-.96v-2.89Z"/>
      <path class="cls-2" d="M82.15,80.1H9.27c-.59,0-1.06-.47-1.06-1.06s.47-1.06,1.06-1.06h72.88c.59,0,1.06.47,1.06,1.06s-.47,1.06-1.06,1.06Z"/>
    </g>
  </g>
</svg>