<?xml version="1.0" encoding="UTF-8"?>
<svg id="Ebene_1" data-name="Ebene 1" xmlns="http://www.w3.org/2000/svg" viewBox="0 0 283.46 283.46">
  <defs>
    <style>
      .cls-1 {
        fill: #fff;
      }

      .cls-2 {
        fill: #1d1d1b;
      }
    </style>
  </defs>
  <g id="Ort">
    <rect class="cls-2" y="0" width="283.46" height="283.46" rx="28.35" ry="28.35"/>
    <path class="cls-1" d="m200.07,110.55c0-32.18-28.1-58.33-58.33-58.33s-58.33,26.15-58.33,58.33c0,6.13-1.56,12.64,7.29,35,4.86,12.15,51.04,93.34,51.04,93.34,0,0,46.08-80.79,51.04-93.34,8.85-22.36,7.29-28.88,7.29-35Zm-58.24,26.45c-13.81,0-25.08-11.38-25.08-25.47s11.18-25.47,25.08-25.47,25.08,11.38,25.08,25.47-11.28,25.47-25.08,25.47Z"/>
  </g>
</svg>