<?xml version="1.0" encoding="utf-8"?>
<!-- Generator: Adobe Illustrator 27.7.0, SVG Export Plug-In . SVG Version: 6.00 Build 0)  -->
<svg version="1.1" id="Ebene_1" xmlns="http://www.w3.org/2000/svg" xmlns:xlink="http://www.w3.org/1999/xlink" x="0px" y="0px"
	 viewBox="0 0 141.7 141.7" style="enable-background:new 0 0 141.7 141.7;" xml:space="preserve">
<style type="text/css">
	.st0{fill:#AFCA0B;}
	.st1{fill:#FFFFFF;}
</style>
<circle class="st0" cx="70.9" cy="71" r="70.9"/>
<g>
	<path class="st1" d="M40.4,65.8c-0.9,0-1.3,0.9-1.3,1.8s0.5,1.8,1.3,1.8h6.1c1.1-1.2,2.1-2.4,3.2-3.6H40.4z"/>
	<path class="st1" d="M40.4,54.2h19.7c1.1-1.2,2.1-2.4,3.2-3.6H40.4c-0.9,0-1.3,0.9-1.3,1.8C39.1,53.3,39.5,54.2,40.4,54.2z"/>
	<path class="st1" d="M68.6,35.8H40.4c-0.9,0-1.3,0.9-1.3,1.8s0.5,1.8,1.3,1.8h28.2c1.3,0,1.8-0.9,1.8-1.8
		C70,37.1,70,35.8,68.6,35.8z"/>
	<path class="st1" d="M104.1,105.2L104.1,105.2c0-0.5,0-1.8-1.8-1.8H78.5c-1.1,1.2-2.1,2.4-3.2,3.6h27.4
		C104.1,107,104.1,105.7,104.1,105.2z"/>
	<path class="st1" d="M102.3,88.2H92.1c-1.1,1.2-2.1,2.4-3.2,3.6h13.8c1.3,0,1.3-1.3,1.3-1.8h0C104.1,89.5,104.1,88.2,102.3,88.2z"
		/>
	<path class="st1" d="M111.2,66.8v49.1c0,0.9,0,2.2-0.5,2.7c-0.5,0.9-0.9,1.3-1.3,1.8c-0.9,0.5-1.8,0.5-2.7,0.5H69.2
		c-0.9,0-1.8,0-2.7-0.5c-0.5-0.5-0.9-0.9-1.3-1.8c0,0-0.1-0.1-0.1-0.1c-0.8,0.9-1.6,1.8-2.5,2.8c1,1.1,2.3,1.7,3.9,2.3
		c0.5,0,0.9,0.5,1.8,0.5h39.4c0.9,0,1.3-0.5,1.8-0.5c2.2-0.9,4.1-1.8,4.9-4c0.5-0.9,0.5-3.1,0.5-4.9V62.7
		C113.6,64.1,112.4,65.5,111.2,66.8z"/>
	<path class="st1" d="M31.9,85.8c0.8-0.9,1.5-1.7,2.3-2.6c-0.6,0-1.2-0.1-1.8-0.4c-0.5-0.5-0.9-0.9-1.3-1.8
		c-0.5-0.5-0.5-1.8-0.5-2.7V26.8c0-3.1,0.5-4.9,2.7-4.9h41.2c3.1,0,2.7,2.7,2.7,4.5v8.8c1.2-1.3,2.4-2.7,3.6-4v-7
		c0-4.5-2.2-6.3-4.9-6.3H31.9c-1.8,0-4.9,2.2-4.9,5.4V77c0,1.8,0,4,0.5,4.9C28.2,84.1,29.9,85,31.9,85.8z"/>
</g>
<path class="st1" d="M122.4,48.3c0.7-0.7,1.1-1.4,0.9-2.4c-0.1-0.3-0.1-0.6-0.4-0.8c-8.8-7.8-17.6-15.6-26.3-23.3
	c-0.6-0.5-1.2-0.5-1.8,0c-0.5,0.4-1,0.8-1.4,1.3c-1.4,1.5-2.8,3-4.2,4.5c-1.6,1.7-3.1,3.5-4.7,5.3C68.1,51.2,51.7,69.6,35.3,87.9
	c-0.8,0.9-1.5,1.8-2.3,2.7c-1.1,1.3-2.2,2.6-3.3,3.9c-0.5,0.5-0.6,1.3-0.1,1.9c0.7,0.8,1.5,1.7,2.3,2.4c7.8,7,15.6,13.9,23.3,20.9
	c0.6,0.6,1.2,0.9,2.1,0.8c0.4-0.1,0.8-0.2,1.1-0.5C69.1,108,79.9,96,90.6,83.9C101.2,72,111.8,60.2,122.4,48.3z M56.7,115.6
	c-7.5-6.7-15-13.4-22.5-20.1c20.5-23,41-46,61.6-69c7.5,6.7,15,13.4,22.5,20.1C97.7,69.6,77.2,92.5,56.7,115.6z M90.2,70.2
	c-0.9,1.1-1.8,2.1-2.8,3.1c-2.6-2.3-5.2-4.6-7.8-7c0.9-1,1.8-2.1,2.8-3.1C85,65.5,87.6,67.9,90.2,70.2z M90.3,54.4
	c0.9-1,1.8-2.1,2.8-3.1c2.5,2.3,5,4.7,7.6,7c-0.9,1.1-1.7,2.1-2.5,3.1C95.5,59,92.9,56.7,90.3,54.4z M79.5,82.2
	c-0.9,1-1.9,1.9-2.8,2.9c-2.6-2.3-5.1-4.6-7.7-6.9c0.9-1,1.8-2,2.7-3C74.3,77.5,76.9,79.9,79.5,82.2z M47.8,102c0.9-1,1.8-2,2.7-3
	c2.6,2.3,5.1,4.6,7.7,6.9c-0.9,1.1-1.7,2.1-2.6,3.2C53,106.6,50.4,104.3,47.8,102z M101,42.4c0.9-1,1.7-1.9,2.6-2.9
	c2.6,2.3,5.2,4.6,7.8,7c-0.9,1-1.7,1.9-2.6,2.9C106.2,47.1,103.6,44.8,101,42.4z M61.1,87.1c2.6,2.4,5.2,4.7,7.8,7
	c-0.9,1-1.7,1.9-2.6,3c-1.2-1.1-2.4-2.1-3.6-3.2c-1.2-1-2.4-2.1-3.6-3.1c-0.4-0.3-0.5-0.9-0.2-1.3C59.6,88.7,60.3,87.9,61.1,87.1z
	 M59.8,96.5c1.3,1.2,2.6,2.3,3.8,3.4c-0.9,1-1.8,2.1-2.8,3.1c-1.3-1.1-2.5-2.3-3.8-3.4C57.9,98.6,58.8,97.5,59.8,96.5z M88.9,63.9
	c0.9-1,1.8-2,2.7-3.1c1.3,1.2,2.6,2.3,3.9,3.5c-0.8,0.8-1.5,1.6-2.3,2.4c-0.2,0.2-0.4,0.5-0.6,0.4c-0.3-0.1-0.5-0.3-0.7-0.5
	C90.9,65.7,89.9,64.8,88.9,63.9z M103.3,55.4c-1.3-1.1-2.6-2.3-3.8-3.4c0.9-1,1.9-2.1,2.8-3.1c1.3,1.1,2.5,2.3,3.8,3.4
	C105.2,53.3,104.3,54.3,103.3,55.4z M78.2,75.7c0.8-0.9,1.6-1.8,2.5-2.7c0.1-0.1,0.4-0.1,0.5,0c0.7,0.5,1.4,1.1,2.1,1.7
	c0.5,0.4,0.9,0.9,1.2,1.4c0.1,0.1,0.1,0.4,0,0.5c-0.8,0.9-1.5,1.7-2.3,2.6C80.8,78,79.6,76.9,78.2,75.7z M70.4,84.5
	c1.2,1.2,2.4,2.3,3.6,3.5c-0.8,1-1.7,2-2.5,3.1c-1.3-1.2-2.6-2.3-3.9-3.5C68.6,86.6,69.5,85.6,70.4,84.5z"/>
</svg>
