<?xml version="1.0" encoding="UTF-8"?>
<svg id="Ebene_1" xmlns="http://www.w3.org/2000/svg" version="1.1" viewBox="0 0 100 100">
  <!-- Generator: Adobe Illustrator 29.3.1, SVG Export Plug-In . SVG Version: 2.1.0 Build 151)  -->
  <defs>
    <style>
      .st0 {
        fill: #fff;
      }

      .st1 {
        fill: #afca0b;
      }
    </style>
  </defs>
  <rect class="st0" y="0" width="100" height="100"/>
  <g>
    <path class="st1" d="M96.4,96.4h-1.9v-33.8h.3c.6,0,1.1-.4,1.4-.9.2-.6,0-1.2-.3-1.6l-8.6-8.5V19.1h.9c.6,0,1.1-.4,1.4-.9.2-.6,0-1.2-.3-1.6L73.1,1.1c-.3-.3-.6-.4-1-.4h-21s0,0-.1,0c0,0,0,0,0,0,0,0,0,0-.1,0,0,0,0,0,0,0,0,0,0,0-.1,0,0,0,0,0,0,0,0,0,0,0-.1,0,0,0,0,0,0,0,0,0,0,0,0,0,0,0,0,0,0,0,0,0,0,0-.1,0s0,0,0,0c0,0,0,0,0,0,0,0,0,0,0,0,0,0,0,0,0,0,0,0,0,0,0,0l-14.8,15.3c-.3.3-.4.6-.4,1v2.4h-10.1s0,0-.1,0c0,0,0,0,0,0,0,0,0,0-.1,0,0,0,0,0,0,0,0,0,0,0-.1,0,0,0,0,0,0,0,0,0,0,0-.1,0,0,0,0,0,0,0,0,0,0,0,0,0,0,0,0,0,0,0,0,0,0,0-.1,0,0,0,0,0,0,0,0,0,0,0,0,0,0,0,0,0,0,0,0,0,0,0,0,0,0,0,0,0,0,0l-14.8,15.3c-.3.3-.4.6-.4,1v29.5l-2.8,2.9c-.3.3-.4.6-.4,1v26.3h-1.7c-.8,0-1.5.7-1.5,1.5s.7,1.5,1.5,1.5h92.8c.8,0,1.5-.7,1.5-1.5s-.7-1.5-1.5-1.5ZM37.8,71.7h4v24.7h-4v-24.7ZM46.1,55.8l-2.6-2.1c-.3-.2-.6-.3-.9-.3h-1.5v-14.8h27.1v4.8h-9.5c-.2,0-.4-.1-.6-.1h0c-.4,0-.8.2-1.1.5l-11,12.1ZM84.3,48.6l-4.9-4.8c-.3-.3-.7-.4-1-.4h-7.3v-4.8h.4c.6,0,1.1-.4,1.4-.9s0-1.2-.3-1.6l-5.2-5v-12h16.9v29.6ZM37.8,18l13.3-13.8,13.3,13.8v10.1l-8.2-7.9c-.3-.3-.6-.4-1-.4h-17.3v-1.8ZM11.5,37.3l13.3-13.8,13.3,13.8v15.8l-16.5.2s0,0,0,0c0,0,0,0,0,0,0,0,0,0,0,0,0,0,0,0,0,0,0,0,0,0,0,0,0,0,0,0,0,0,0,0,0,0,0,0,0,0,0,0-.1,0,0,0,0,0,0,0,0,0,0,0,0,0,0,0,0,0,0,0,0,0,0,0,0,0,0,0,0,0,0,0,0,0,0,0,0,0,0,0,0,0,0,0,0,0,0,0,0,0,0,0,0,0-.1,0,0,0,0,0,0,0,0,0,0,0,0,0,0,0,0,0,0,0,0,0,0,0,0,0s0,0,0,0c0,0,0,0,0,0,0,0,0,0,0,0l-9,9.1v-25.6ZM8.3,70.7l13.3-13.8,13.3,13.8v25.6h-6.4v-18.3c0-.8-.7-1.5-1.5-1.5h-10.6c-.8,0-1.5.7-1.5,1.5v18.3h-6.6v-25.6ZM44.8,70.3v-8.6s2.4-2.6,2.4-2.6h0c0-.2.2-.2.2-.3l10.7-11.7.4.5,12.8,14.4v34.6h-6.4v-22.5c0-.9-.7-1.6-1.6-1.6h-10.6c-.9,0-1.6.7-1.6,1.6v22.5h-6.4v-26.1ZM74.3,96.4v-33.8h17.2v33.8h-17.2Z"/>
    <path class="st1" d="M31.4,41.2c0-.8-.7-1.5-1.5-1.5h-10.1c-.8,0-1.5.7-1.5,1.5s.7,1.5,1.5,1.5h10.1c.8,0,1.5-.7,1.5-1.5Z"/>
    <path class="st1" d="M15.8,71.7h11.6c.8,0,1.5-.7,1.5-1.5s-.7-1.5-1.5-1.5h-11.6c-.8,0-1.5.7-1.5,1.5s.7,1.5,1.5,1.5Z"/>
    <path class="st1" d="M55.2,59.2h6.2c.8,0,1.5-.7,1.5-1.5s-.7-1.5-1.5-1.5h-6.2c-.8,0-1.5.7-1.5,1.5s.7,1.5,1.5,1.5Z"/>
    <path class="st1" d="M53.3,13.3h-3.5c-.8,0-1.5.7-1.5,1.5s.7,1.5,1.5,1.5h3.5c.8,0,1.5-.7,1.5-1.5s-.7-1.5-1.5-1.5Z"/>
  </g>
</svg>