<?xml version="1.0" encoding="UTF-8"?>
<svg id="Ebene_2" data-name="Ebene 2" xmlns="http://www.w3.org/2000/svg" viewBox="0 0 543 93">
  <defs>
    <style>
      .cls-1 {
        font-family: RobotoCondensed-Bold, 'Roboto Condensed';
        font-size: 39px;
        font-weight: 700;
        letter-spacing: .03em;
      }

      .cls-1, .cls-2 {
        fill: #afca0b;
      }

      .cls-3 {
        fill: none;
        stroke: #cbd96b;
        stroke-miterlimit: 10;
        stroke-width: 3px;
      }
    </style>
  </defs>
  <g id="Bewertunstorten">
    <g id="Ebene_4" data-name="Ebene 4">
      <rect class="cls-3" x="1.5" y="1.5" width="540" height="90" rx="14.14" ry="14.14"/>
      <line class="cls-3" x1="91.5" y1="1.5" x2="91.5" y2="91.5"/>
      <text class="cls-1" transform="translate(107.62 60.27)"><tspan x="0" y="0">Gemeinden &amp; Kleinstädte</tspan></text>
    </g>
    <g>
      <path class="cls-2" d="M82.72,80.25h-1.48v-25.68h.26c.46,0,.87-.27,1.04-.7.17-.42.08-.9-.25-1.23l-6.51-6.46v-24.71h.71c.46,0,.87-.28,1.04-.7s.07-.91-.27-1.23l-12.25-11.74c-.21-.2-.49-.31-.78-.31h-15.93s-.07,0-.1,0c0,0-.02,0-.03,0-.03,0-.05,0-.08.01,0,0-.02,0-.03,0-.03,0-.07.02-.1.03,0,0,0,0-.01,0-.03,0-.06.02-.08.03,0,0-.02,0-.03.01-.02.01-.05.02-.07.04,0,0-.01,0-.02,0-.03.02-.06.03-.08.05,0,0-.01,0-.02.01-.02.02-.04.03-.06.05,0,0-.02.01-.02.02-.03.02-.05.04-.07.07,0,0,0,0,0,0l-11.23,11.64c-.2.21-.31.49-.31.78v1.84h-7.66s-.07,0-.1,0c0,0-.02,0-.03,0-.03,0-.05,0-.08.01,0,0-.02,0-.03,0-.03,0-.07.02-.1.03,0,0,0,0-.01,0-.03,0-.06.02-.08.03,0,0-.02,0-.03.01-.02.01-.05.02-.07.04,0,0-.01,0-.02.01-.03.02-.06.03-.08.05,0,0-.01,0-.02.01-.02.02-.04.03-.06.05,0,0-.02.01-.02.02-.03.02-.05.04-.07.07,0,0,0,0,0,0l-11.23,11.64c-.2.21-.31.49-.31.78v22.43l-2.14,2.21c-.2.21-.31.49-.31.78v19.96h-1.33c-.62,0-1.12.5-1.12,1.12s.5,1.12,1.12,1.12h70.56c.62,0,1.12-.5,1.12-1.12s-.5-1.12-1.12-1.12ZM38.2,61.52h3.01v18.74h-3.01v-18.74ZM44.46,49.4l-1.97-1.61c-.2-.16-.45-.25-.71-.25h-1.12v-11.23h20.63v3.68h-7.19c-.14-.07-.3-.1-.46-.1h0c-.32,0-.62.13-.83.37l-8.33,9.16ZM73.53,43.97l-3.7-3.67c-.21-.21-.49-.33-.79-.33h-5.51v-3.68h.31c.46,0,.87-.28,1.04-.7s.07-.91-.26-1.23l-3.94-3.78v-9.09h12.87v22.48ZM38.2,20.72l10.11-10.48,10.11,10.48v7.71l-6.27-6.01c-.21-.2-.49-.31-.78-.31h-13.17v-1.38ZM18.19,35.32l10.11-10.48,10.11,10.48v12.02l-12.58.19s-.01,0-.02,0c-.02,0-.04,0-.07,0,0,0-.01,0-.02,0,0,0-.01,0-.02,0-.02,0-.04,0-.07.01,0,0-.01,0-.02,0,0,0,0,0-.01,0-.03,0-.06.01-.09.02,0,0,0,0,0,0,0,0-.01,0-.02,0-.03,0-.05.02-.07.03,0,0,0,0-.01,0,0,0-.01,0-.02,0-.02.01-.05.02-.07.03,0,0-.01,0-.02,0,0,0,0,0,0,0-.03.02-.06.03-.08.05,0,0,0,0,0,0,0,0,0,0-.01.01-.02.01-.04.03-.06.04,0,0-.01,0-.02.01,0,0,0,0-.01.01-.02.02-.04.03-.05.05,0,0,0,0-.01.01l-6.86,6.94v-19.48ZM15.74,60.74l10.11-10.48,10.11,10.48v19.46h-4.9v-13.89c0-.62-.5-1.12-1.12-1.12h-8.07c-.62,0-1.12.5-1.12,1.12v13.89h-5v-19.46ZM43.46,60.39v-6.56s1.82-1.99,1.82-1.99l.06-.05c.07-.06.13-.13.18-.21l8.1-8.91.31.35,9.75,10.92v26.32h-4.83v-17.1c0-.69-.56-1.24-1.24-1.24h-8.07c-.69,0-1.24.56-1.24,1.24v17.1h-4.83v-19.86ZM65.92,80.25v-25.68h13.07v25.68h-13.07Z"/>
      <path class="cls-2" d="M33.3,38.34c0-.62-.5-1.12-1.12-1.12h-7.66c-.62,0-1.12.5-1.12,1.12s.5,1.12,1.12,1.12h7.66c.62,0,1.12-.5,1.12-1.12Z"/>
      <path class="cls-2" d="M21.45,61.52h8.78c.62,0,1.12-.5,1.12-1.12s-.5-1.12-1.12-1.12h-8.78c-.62,0-1.12.5-1.12,1.12s.5,1.12,1.12,1.12Z"/>
      <path class="cls-2" d="M51.37,52.02h4.7c.62,0,1.12-.5,1.12-1.12s-.5-1.12-1.12-1.12h-4.7c-.62,0-1.12.5-1.12,1.12s.5,1.12,1.12,1.12Z"/>
      <path class="cls-2" d="M49.94,17.1h-2.65c-.62,0-1.12.5-1.12,1.12s.5,1.12,1.12,1.12h2.65c.62,0,1.12-.5,1.12-1.12s-.5-1.12-1.12-1.12Z"/>
    </g>
  </g>
</svg>