<?xml version="1.0" encoding="utf-8"?>
<!-- Generator: Adobe Illustrator 27.7.0, SVG Export Plug-In . SVG Version: 6.00 Build 0)  -->
<svg version="1.1" id="Ebene_1" xmlns="http://www.w3.org/2000/svg" xmlns:xlink="http://www.w3.org/1999/xlink" x="0px" y="0px"
	 viewBox="0 0 141.7 141.7" style="enable-background:new 0 0 141.7 141.7;" xml:space="preserve">
<style type="text/css">
	.st0{fill:#AFCA0B;}
	.st1{fill:#FFFFFF;}
</style>
<circle class="st0" cx="70.9" cy="71" r="70.9"/>
<g>
	<path class="st1" d="M70.4,104.8c-11.4,0-20.9-1.4-28.3-4.1c-8-2.9-12-6.9-12-11.9c0-2.1,0.9-4.4,2.7-6.7l1.9-2.5
		c3.5-4.6,5.8-8.1,6.9-10.5c1-2.3,1.6-5,1.6-8.1v-3.6c0-3.2,0.6-6.8,1.7-10.8c1.1-4,2.5-7.1,4.1-9.4c3.7-5.4,9-8.7,15.8-9.8
		c0.5-2.9,2.5-4.5,5.7-4.5s5.2,1.6,5.7,4.5c6.8,1.1,12.1,4.3,15.8,9.8c1.6,2.3,2.9,5.4,4.1,9.4c1.1,3.9,1.7,7.6,1.7,10.8v3.6
		c0,3.1,0.5,5.8,1.6,8.1c1.1,2.4,3.4,5.9,6.9,10.5l1.9,2.5c1.8,2.3,2.7,4.6,2.7,6.7c0,4.9-4,8.9-12,11.9
		C91.2,103.4,81.7,104.8,70.4,104.8z M46,83.6c-9.3,3-9.8,5.3-9.8,5.7c0,2.1,3.3,4.3,9.4,6.2c6.9,2.2,15.2,3.3,24.8,3.3
		c9.7,0,18.1-1.1,24.9-3.2c6-1.9,9.3-4.1,9.3-6.3c0-0.6-0.7-3-9.7-5.6c-7.1-2.1-15.3-3.1-24.5-3.1c-0.9,0-2,0-3.2,0.1
		c0,0.2,0,0.5,0,0.7c0,3-1,5.7-3.1,7.8c-2.1,2.2-4.6,3.2-7.6,3.2c-3.1,0-5.7-1.1-7.8-3.2C47.4,87.6,46.4,85.7,46,83.6z M49.3,80.2v1
		c0,2.2,0.7,4,2.1,5.4c1.4,1.4,3.1,2.1,5.2,2.1c2,0,3.6-0.7,5-2.2c1.4-1.5,2.1-3.2,2.1-5.4c0-0.5-0.1-1.2-0.3-1.9l-0.3-1.1
		C58.2,78.6,53.6,79.3,49.3,80.2z M70.4,32.6c-8.1,0-13.6,2.8-16.9,8.5c-2.7,4.6-4,10.2-4,16.4l-0.2,4.7c0,3.2-0.6,6.3-1.9,9
		c-0.8,1.8-2.2,4.1-4.2,7.1c7.9-2.4,17.1-3.7,27.2-3.7c10.1,0,19.2,1.2,27.2,3.7c-1.9-2.9-3.3-5.2-4.1-7c-1.3-2.8-1.9-5.9-1.9-9.1
		l-0.2-4.6c0-6.3-1.4-11.8-4.1-16.5C84.1,35.3,78.5,32.6,70.4,32.6z M70.4,26.4c-1.5,0-2.3,0.4-2.3,2.6v0.2c1.5-0.1,3-0.1,4.5,0
		v-0.2C72.7,26.8,71.9,26.4,70.4,26.4z"/>
</g>
</svg>
