<?xml version="1.0" encoding="utf-8"?>
<!-- Generator: Adobe Illustrator 27.7.0, SVG Export Plug-In . SVG Version: 6.00 Build 0)  -->
<svg version="1.1" xmlns="http://www.w3.org/2000/svg" xmlns:xlink="http://www.w3.org/1999/xlink" x="0px" y="0px"
	 viewBox="0 0 320.3 320.3" style="enable-background:new 0 0 320.3 320.3;" xml:space="preserve">
<style type="text/css">
	.st0{fill:#EDEDED;}
	.st1{fill:#1D1D1B;}
	.st2{font-family:'RobotoCondensed-Regular';}
	.st3{font-size:12.54px;}
	.st4{fill:#FFFFFF;}
	.st5{fill:#ECF2D5;}
	.st6{fill:#F1F4D7;}
	.st7{fill-rule:evenodd;clip-rule:evenodd;fill:#FFFFFF;}
</style>
<g id="Reifen">
	<path class="st0" d="M307.3,97.7c-16-37.8-44.8-66.2-79.3-82.4l-13.4-5.6c-36.7-13.3-78.3-13.4-117,3.1
		C16.2,47.2-21.8,141.1,12.7,222.5c34.5,81.4,128.4,119.4,209.7,84.9C303.8,273,341.8,179,307.3,97.7z M252.5,167
		c-1.7,22-11.1,43.4-28.3,59.9c-37,35.4-95.7,34.2-131.1-2.7c-35.4-36.9-34.2-95.6,2.8-131c37-35.4,95.7-34.2,131.1,2.7
		c16.9,17.6,25.4,40.1,25.8,62.7L252.5,167z"/>
</g>
<g id="Ebene_1">
	<text transform="matrix(1 0 0 1 170.0522 27.7335)" class="st1 st2 st3">Energie</text>
	<text transform="matrix(1 0 0 1 165.3559 271.7069)"><tspan x="0" y="0" class="st1 st2 st3">Landwirtschaft,  </tspan><tspan x="0" y="15" class="st1 st2 st3">Natur &amp;  </tspan><tspan x="0" y="30.1" class="st1 st2 st3">Ernährung</tspan></text>
	<g>
		<g>
			<g>
				<g>
					<path class="st4" d="M276.3,164.6h-14.7c-0.3,0-0.5-0.2-0.5-0.5s0.2-0.5,0.5-0.5h14.7c0.3,0,0.5,0.2,0.5,0.5
						C276.9,164.4,276.6,164.6,276.3,164.6z"/>
				</g>
				<g>
					<path class="st4" d="M278.6,162.8h-13.2c-0.3,0-0.5-0.2-0.5-0.5s0.2-0.5,0.5-0.5h13.2c0.3,0,0.5,0.2,0.5,0.5
						C279.2,162.6,278.9,162.8,278.6,162.8z"/>
				</g>
			</g>
			<g>
				<g>
					<g>
						<g>
							<path class="st4" d="M286,178.1h-16.4c-1.1,0-2-0.9-2-2V170c0-1.1,0.9-2,2-2H286c1.1,0,2,0.9,2,2v6.1
								C288,177.2,287.1,178.1,286,178.1z M269.6,169.1c-0.5,0-0.9,0.4-0.9,0.9v6.1c0,0.5,0.4,0.9,0.9,0.9H286
								c0.5,0,0.9-0.4,0.9-0.9V170c0-0.5-0.4-0.9-0.9-0.9H269.6z"/>
						</g>
						<g>
							<path class="st4" d="M281.8,178.1c-0.3,0-0.5-0.2-0.5-0.5v-9c0-0.3,0.2-0.5,0.5-0.5c0.3,0,0.5,0.2,0.5,0.5v9
								C282.4,177.8,282.1,178.1,281.8,178.1z"/>
						</g>
						<g>
							<path class="st4" d="M273.2,178.1c-0.3,0-0.5-0.2-0.5-0.5v-9c0-0.3,0.2-0.5,0.5-0.5c0.3,0,0.5,0.2,0.5,0.5v9
								C273.8,177.8,273.5,178.1,273.2,178.1z"/>
						</g>
					</g>
					<g>
						<g>
							<path class="st4" d="M264,178.1h-4.8c-1.1,0-2.1-0.9-2.1-2.1v-5.9c0-1.1,0.9-2.1,2.1-2.1h4.8c1.1,0,2.1,0.9,2.1,2.1v5.9
								C266.1,177.1,265.2,178.1,264,178.1z M259.2,169.1c-0.6,0-1,0.5-1,1v5.9c0,0.6,0.5,1,1,1h4.8c0.6,0,1-0.5,1-1v-5.9
								c0-0.6-0.5-1-1-1H259.2z"/>
						</g>
						<g>
							<path class="st4" d="M261.6,178.1c-0.3,0-0.5-0.2-0.5-0.5v-9c0-0.3,0.2-0.5,0.5-0.5c0.3,0,0.5,0.2,0.5,0.5v9
								C262.2,177.8,261.9,178.1,261.6,178.1z"/>
						</g>
					</g>
				</g>
				<g>
					<g>
						<g>
							<path class="st4" d="M267.5,187.9c-1.8,0-3.3-1.2-3.3-2.6c0-0.3,0.2-0.5,0.5-0.5c0.3,0,0.5,0.2,0.5,0.5c0,0.8,1,1.5,2.3,1.5
								c1.3,0,2.3-0.7,2.3-1.5c0-0.3,0.2-0.5,0.5-0.5c0.3,0,0.5,0.2,0.5,0.5C270.8,186.8,269.3,187.9,267.5,187.9z"/>
						</g>
						<g>
							<path class="st4" d="M277.3,187.9c-1.8,0-3.3-1.2-3.3-2.6c0-0.3,0.2-0.5,0.5-0.5c0.3,0,0.5,0.2,0.5,0.5c0,0.8,1,1.5,2.3,1.5
								c1.2,0,2.3-0.7,2.3-1.5c0-0.3,0.2-0.5,0.5-0.5c0.3,0,0.5,0.2,0.5,0.5C280.7,186.8,279.2,187.9,277.3,187.9z"/>
						</g>
						<g>
							<path class="st4" d="M287.1,187.9c-1.8,0-3.3-1.2-3.3-2.6c0-0.3,0.2-0.5,0.5-0.5c0.3,0,0.5,0.2,0.5,0.5c0,0.8,1,1.5,2.3,1.5
								c1.2,0,2.3-0.7,2.3-1.5c0-0.3,0.2-0.5,0.5-0.5c0.3,0,0.5,0.2,0.5,0.5C290.5,186.8,289,187.9,287.1,187.9z"/>
						</g>
					</g>
					<g>
						<g>
							<path class="st4" d="M305.3,183.5l-47.6-0.1c-0.3,0-0.5-0.2-0.5-0.5s0.2-0.5,0.5-0.5l0,0l47.6,0.1c1.5,0,2.8-0.9,2.8-1.9
								v-0.9c0-3.4-1.8-6.6-5.2-9c-3.4-2.5-7.9-3.8-12.7-3.8l-32.6,0.2l0,0c-0.3,0-0.5-0.2-0.5-0.5s0.2-0.5,0.5-0.5l32.6-0.2
								c10.4,0,18.9,6.2,18.9,13.9v0.9C309.2,182.2,307.4,183.5,305.3,183.5z"/>
						</g>
						<g>
							<path class="st4" d="M304.9,178.1H296c-3.2,0-5.8-1.9-5.8-4.3v-7.5c0-0.3,0.2-0.5,0.5-0.5c0.3,0,0.5,0.2,0.5,0.5v7.5
								c0,1.8,2.1,3.3,4.7,3.3h8.9c0.3,0,0.5,0.2,0.5,0.5C305.5,177.8,305.2,178.1,304.9,178.1z"/>
						</g>
						<g>
							<path class="st4" d="M304.3,185.9h-46.7c-0.3,0-0.5-0.2-0.5-0.5s0.2-0.5,0.5-0.5l0,0h46.7c0.7,0,1.1-0.3,1.1-0.4V183
								c0-0.3,0.2-0.5,0.5-0.5c0.3,0,0.5,0.2,0.5,0.5v1.5C306.5,185.2,305.5,185.9,304.3,185.9z"/>
						</g>
						<g>
							<path class="st4" d="M308.6,181.5H308c-2.2,0-3.9-1.3-3.9-3s1.7-3,3.8-3l0,0c0.3,0,0.5,0.2,0.5,0.5s-0.2,0.5-0.5,0.5
								c-1.5,0-2.8,0.9-2.8,1.9s1.3,1.9,2.9,1.9h0.6c0.3,0,0.5,0.2,0.5,0.5C309.2,181.2,308.9,181.5,308.6,181.5z"/>
						</g>
						<g>
							<path class="st4" d="M305,180.1h-47.3c-0.3,0-0.5-0.2-0.5-0.5s0.2-0.5,0.5-0.5h47.4c0.3,0,0.5,0.2,0.5,0.5
								S305.3,180.1,305,180.1z"/>
						</g>
					</g>
				</g>
			</g>
		</g>
		<g>
			<path class="st4" d="M284.4,147.5L284.4,147.5L284.4,147.5L284.4,147.5C284.4,147.4,284.4,147.4,284.4,147.5
				C284.4,147.4,284.4,147.4,284.4,147.5C284.4,147.4,284.4,147.4,284.4,147.5C284.4,147.4,284.4,147.4,284.4,147.5l5.2-7.4l4.2,7.3
				c0.1,0.2,0.3,0.3,0.6,0.3c0.1,0,0.2,0,0.3-0.1c0.3-0.2,0.4-0.6,0.2-0.9l-6.4-11.1l2.1-0.8c0.1-0.1,0.3,0,0.4,0
				c0.1,0.1,0.2,0.2,0.3,0.3c0.1,0.2,0,0.5-0.2,0.6l-0.3,0.1c-0.3,0.2-0.4,0.6-0.3,0.9c0.2,0.3,0.6,0.4,0.9,0.3l0.3-0.1
				c0.8-0.4,1.1-1.3,0.9-2.1c-0.1-0.5-0.5-0.9-0.9-1.1s-1-0.2-1.4-0.1l-2.8,1.1c-0.2,0.1-0.3,0.2-0.4,0.4c-0.1,0.2,0,0.4,0,0.5
				l1.7,2.9l-7.1,1.6l-0.9-2h0.6c0.4,0,0.6-0.3,0.6-0.6c0-0.4-0.3-0.6-0.6-0.6h-3.6c-0.4,0-0.6,0.3-0.6,0.6c0,0.4,0.3,0.6,0.6,0.6
				h1.5l1.2,2.6l-1.8,1.8c-1-0.8-2.3-1.3-3.6-1.3c-3.2,0-5.9,2.6-5.9,5.9c0,3.2,2.6,5.9,5.9,5.9c3,0,5.5-2.3,5.8-5.2h3.1l0,0h0.1
				l0,0l0,0h0.1l0,0l0,0l0,0l0,0l0,0l0,0l0,0l0,0l0,0l0,0l0,0l0,0C284.3,147.6,284.3,147.6,284.4,147.5
				C284.3,147.6,284.3,147.6,284.4,147.5C284.3,147.6,284.3,147.6,284.4,147.5C284.3,147.6,284.3,147.5,284.4,147.5
				C284.3,147.5,284.3,147.5,284.4,147.5C284.3,147.5,284.3,147.5,284.4,147.5C284.3,147.5,284.3,147.5,284.4,147.5
				C284.3,147.5,284.3,147.5,284.4,147.5C284.3,147.5,284.3,147.5,284.4,147.5C284.3,147.5,284.3,147.5,284.4,147.5
				C284.3,147.5,284.3,147.5,284.4,147.5C284.3,147.5,284.3,147.5,284.4,147.5C284.3,147.5,284.3,147.5,284.4,147.5L284.4,147.5
				L284.4,147.5z M288.1,139.9l-4.1,5.8l-2-4.5L288.1,139.9z M282.9,146.4h-2.1c-0.1-1.1-0.6-2.2-1.3-3l1.4-1.4L282.9,146.4z
				 M278.6,144.3c0.5,0.6,0.8,1.3,0.9,2.1h-3L278.6,144.3z M275,151.6c-2.5,0-4.6-2-4.6-4.6s2-4.6,4.6-4.6c1,0,2,0.3,2.7,0.9
				l-3.2,3.2c-0.2,0.3-0.2,0.7,0,0.9c0.1,0.1,0.3,0.2,0.5,0.2l0,0l0,0h4.5C279.2,149.9,277.3,151.6,275,151.6z"/>
			<path class="st4" d="M294.3,141.2c-0.1,0-0.3,0-0.4,0c-0.4,0-0.6,0.3-0.6,0.7c0,0.4,0.3,0.6,0.7,0.6c0.1,0,0.2,0,0.3,0
				c2.5,0,4.6,2,4.6,4.6s-2,4.6-4.6,4.6c-2.5,0-4.6-2-4.6-4.6c0-0.9,0.3-1.8,0.8-2.5c0.2-0.3,0.1-0.7-0.2-0.9
				c-0.3-0.2-0.7-0.1-0.9,0.2c-0.6,1-1,2.1-1,3.2c0,3.2,2.6,5.9,5.9,5.9s5.9-2.6,5.9-5.9C300.1,143.8,297.5,141.2,294.3,141.2z"/>
		</g>
		<path id="Pfad_252_00000067218646824536260930000009933317062645768364_" class="st4" d="M277.4,218.6c0.1,0.1,0.2,0.1,0.2,0.2
			c0.3,0.3,0.8,0.5,1.3,0.4h0.1l3.5-4.2l1.4-3.5l0,0l2.6,2.4l1.5,5.4l1.1,0.4h1.3l1-0.7l0.4-0.9l-1.6-5.8l-0.1-0.1
			c-0.1-0.1-3-3.1-4.4-4.4c-0.1-0.4-0.1-0.9,0-1.3c0-0.3,0-0.7,0-0.9c0-0.1,0-0.2,0-0.3c0.7,1,1.6,1.6,2.7,2.2
			c0.7,0.3,1.5,0.4,2.3,0.3c0.3,0,0.7-0.1,1.1-0.3h0.1l0,0c0.5-0.5,0.7-1.3,0.1-2l0,0c-0.3-0.2-0.8-0.4-1.1-0.4
			c-0.4-0.1-0.9-0.2-1.3-0.3c-0.5-0.4-0.9-1.1-1.1-1.8c-0.1-0.3-0.3-0.8-0.5-1.1c-0.7-1.1-1.5-2.1-2.6-2.7c1.1-0.3,2-1.3,2-2.4
			c-0.1-1.5-1.3-2.6-2.9-2.5c-1.4,0.1-2.5,1.2-2.5,2.5c0,0.8,0.3,1.4,0.9,1.9c-0.3,0-0.8,0-1.1,0c-0.9,0-1.9,0.9-3.1,2.5
			c-0.5,0.8-1,1.5-1.4,2.3v0.1v4.6l0.1,0.1c0.1,0.1,0.4,0.5,1.5,0.7c0.4,0,0.8-0.1,1.1-0.3c0.1-0.1,0.1-0.1,0.1-0.2l-0.2,4.3
			c-0.4,0.5-2.5,3.7-2.9,4.4C276.4,217.8,276.9,218.3,277.4,218.6 M284.5,198.6c-1-0.1-1.6-1-1.6-1.9c0.1-1,1-1.6,1.9-1.6
			c0.9,0.1,1.6,0.9,1.6,1.8C286.4,197.8,285.5,198.6,284.5,198.6 M277.6,217.4c0.3-0.7,2.9-4.4,2.9-4.4l0.1-0.1l0.4-10.8l-1.6,2.2
			v3.3c0,0.1-0.1,0.3-0.1,0.4c-0.1,0.1-0.3,0.1-0.4,0.1c-0.2,0-0.5,0-0.8-0.2v-4.2c0.9-1.6,2.5-4.3,3.7-4.3c0.9,0,1.6,0.1,2.5,0.2
			l0,0c0.1,0,1.4,0.2,3.1,2.7c0.2,0.3,0.3,0.7,0.5,1c0.2,0.9,0.8,1.5,1.4,2.1c0.4,0.2,1,0.4,1.5,0.4c0.2,0,0.4,0.1,0.7,0.2
			c0.2,0.2,0.2,0.5,0,0.8l0,0c-0.2,0.1-0.4,0.1-0.8,0.2c-0.7,0.1-1.2,0-1.9-0.2l0,0c-1-0.4-1.8-1.1-2.4-2c-0.3-0.5-0.7-0.4-0.9-0.4
			c-0.4,0.2-0.8,0.8-0.7,1.3c0,0.2,0,0.5,0,0.8c-0.1,1-0.1,1.6,0.3,2c1.3,1.2,3.8,3.8,4.3,4.3l1.5,5.4l-0.2,0.4l-0.5,0.3h-1.1
			l-0.5-0.2l-1.4-5.3l-2.9-2.6l-0.9-0.4l-1.6,4.2l-3.2,3.8c-0.2,0-0.3-0.1-0.4-0.2c-0.1-0.1-0.2-0.1-0.3-0.2
			C277.5,217.7,277.4,217.6,277.6,217.4"/>
		<text transform="matrix(1 0 0 1 265.7908 122.5328)" class="st1 st2 st3">Verkehr</text>
	</g>
	<text transform="matrix(1 0 0 1 44.6713 236.217)"><tspan x="0" y="0" class="st1 st2 st3">Industrie,  </tspan><tspan x="-12.1" y="15" class="st1 st2 st3">Wirtschaft &amp; </tspan><tspan x="8.4" y="30.1" class="st1 st2 st3">Konsum</tspan></text>
	<text transform="matrix(1 0 0 1 10.1785 183.5937)"><tspan x="0" y="0" class="st1 st2 st3">Gebäude &amp;  </tspan><tspan x="21.5" y="15" class="st1 st2 st3">Wärme</tspan></text>
	<text transform="matrix(1 0 0 1 47.927 60.9726)"><tspan x="0" y="0" class="st1 st2 st3">Klimaschutz- </tspan><tspan x="-13.2" y="15" class="st1 st2 st3">management &amp;  </tspan><tspan x="8.2" y="30.1" class="st1 st2 st3">Verwaltung</tspan></text>
	<path class="st5" d="M5.1,138.2c0,0.2,0.1,0.4,0.1,0.5C5.2,138.6,5.2,138.4,5.1,138.2z"/>
	<path class="st5" d="M4.9,136.5c0,0.2,0.1,0.4,0.1,0.5C5,136.9,4.9,136.7,4.9,136.5z"/>
	<path class="st5" d="M5.4,139.7c0,0.1,0,0.1,0.1,0.2C5.4,139.9,5.4,139.8,5.4,139.7z"/>
	<path class="st5" d="M5.2,139c0,0.1,0,0.1,0.1,0.2C5.3,139.1,5.3,139,5.2,139z"/>
	<path class="st5" d="M5,137.4c0,0.1,0,0.1,0.1,0.2C5.1,137.5,5.1,137.5,5,137.4z"/>
	<path class="st6" d="M4.9,134.8c0,0,0,0.1-0.1,0.1C4.8,134.9,4.9,134.9,4.9,134.8z"/>
	<path class="st6" d="M4.8,131.2c0,0,0,0.1,0.1,0.1C4.9,131.3,4.8,131.3,4.8,131.2z"/>
	<g>
		<g>
			<g>
				<path class="st4" d="M50.8,155.4H19.2c-0.4,0-0.7-0.3-0.7-0.7v-20.9h-5.8c-0.3,0-0.6-0.2-0.7-0.5s-0.1-0.6,0.2-0.8l22.3-22.3
					c0.3-0.3,0.8-0.3,1,0l22.3,22.3c0.2,0.2,0.3,0.5,0.2,0.8s-0.4,0.5-0.7,0.5h-5.8v20.9C51.5,155.1,51.2,155.4,50.8,155.4z
					 M20,153.9h30.1V133c0-0.4,0.3-0.7,0.7-0.7h4.8L35,111.7l-20.5,20.5h4.8c0.4,0,0.7,0.3,0.7,0.7V153.9z"/>
			</g>
			<g>
				<path class="st4" d="M35.7,140.5v-12.6c0-0.4-0.4-0.8-0.8-0.8c-0.4,0-0.8,0.4-0.8,0.8v12.6c-1.7,0.4-2.9,1.8-2.9,3.6
					c0,2,1.6,3.7,3.7,3.7c2,0,3.7-1.6,3.7-3.7C38.6,142.4,37.4,140.9,35.7,140.5z M37.6,144.1c0,1.5-1.2,2.6-2.6,2.6
					s-2.6-1.2-2.6-2.6s1.2-2.6,2.6-2.6S37.6,142.6,37.6,144.1z"/>
				<path class="st4" d="M37.4,138.5v-14.7c0-1.3-1.1-2.4-2.4-2.4h-0.2c-1.3,0-2.4,1.1-2.4,2.4v14.7c-2.2,1-3.6,3.2-3.6,5.6
					c0,3.4,2.7,6.1,6.1,6.1s6.1-2.7,6.1-6.1C41,141.7,39.6,139.5,37.4,138.5z M34.9,149.2c-2.8,0-5.1-2.3-5.1-5.1
					c0-2.1,1.3-4,3.3-4.7l0.3-0.1v-15.4c0-0.7,0.6-1.3,1.3-1.3H35c0.7,0,1.3,0.6,1.3,1.3v15.4l0.3,0.1c2,0.7,3.3,2.6,3.3,4.7
					C40,146.9,37.7,149.2,34.9,149.2z"/>
				<path class="st4" d="M38,124.3h1.2c0.2,0,0.3-0.1,0.3-0.3s-0.1-0.3-0.3-0.3H38c-0.2,0-0.3,0.1-0.3,0.3S37.8,124.3,38,124.3z"/>
				<path class="st4" d="M38,126.2h2.7c0.2,0,0.3-0.1,0.3-0.3c0-0.2-0.1-0.3-0.3-0.3H38c-0.2,0-0.3,0.1-0.3,0.3
					C37.7,126,37.8,126.2,38,126.2z"/>
				<path class="st4" d="M39.2,127.5H38c-0.2,0-0.3,0.1-0.3,0.3c0,0.2,0.1,0.3,0.3,0.3h1.2c0.2,0,0.3-0.1,0.3-0.3
					C39.5,127.6,39.4,127.5,39.2,127.5z"/>
				<path class="st4" d="M38,131.9h2.7c0.2,0,0.3-0.1,0.3-0.3c0-0.2-0.1-0.3-0.3-0.3H38c-0.2,0-0.3,0.1-0.3,0.3
					C37.7,131.8,37.8,131.9,38,131.9z"/>
				<path class="st4" d="M39.2,129.4H38c-0.2,0-0.3,0.1-0.3,0.3c0,0.2,0.1,0.3,0.3,0.3h1.2c0.2,0,0.3-0.1,0.3-0.3
					C39.5,129.5,39.4,129.4,39.2,129.4z"/>
				<path class="st4" d="M39.2,135.1H38c-0.2,0-0.3,0.1-0.3,0.3s0.1,0.3,0.3,0.3h1.2c0.2,0,0.3-0.1,0.3-0.3S39.4,135.1,39.2,135.1z"
					/>
				<path class="st4" d="M39.2,133.1H38c-0.2,0-0.3,0.1-0.3,0.3c0,0.2,0.1,0.3,0.3,0.3h1.2c0.2,0,0.3-0.1,0.3-0.3
					C39.5,133.3,39.4,133.1,39.2,133.1z"/>
				<path class="st4" d="M38,137.5h2.7c0.2,0,0.3-0.1,0.3-0.3c0-0.2-0.1-0.3-0.3-0.3H38c-0.2,0-0.3,0.1-0.3,0.3
					C37.7,137.4,37.8,137.5,38,137.5z"/>
			</g>
		</g>
	</g>
	<g>
		<g>
			<path class="st4" d="M124.9,250.4c-0.5,0.1-1.1,0.1-1.6,0.2c-2.1,0.5-3.4,2-3.5,3.9c0,0.6,0.2,0.9,0.7,0.9c0.5,0,0.7-0.3,0.8-0.9
				c0-1,0.5-1.8,1.4-2.2c1.7-0.7,3.4-0.8,5,0.5c0.7,0.5,1.3,1.1,1.9,1.7c1.5,1.2,3.2,1.7,5.1,1c0.5-0.2,0.7-0.5,0.5-0.9
				c-0.1-0.4-0.5-0.6-1-0.4c-1.5,0.5-2.8,0.1-3.9-0.9c-0.6-0.5-1.2-1.1-1.9-1.6C127.4,250.8,126.2,250.4,124.9,250.4z"/>
			<path class="st4" d="M124.9,250.4c1.3,0,2.5,0.4,3.5,1.2c0.6,0.5,1.3,1.1,1.9,1.6c1.1,1,2.4,1.4,3.9,0.9c0.5-0.2,0.9,0,1,0.4
				c0.1,0.4-0.1,0.7-0.5,0.9c-1.9,0.7-3.6,0.3-5.1-1c-0.7-0.5-1.3-1.1-1.9-1.7c-1.5-1.2-3.2-1.2-5-0.5c-0.9,0.4-1.4,1.2-1.4,2.2
				c0,0.6-0.3,0.9-0.8,0.9c-0.4,0-0.7-0.3-0.7-0.9c0-1.9,1.4-3.4,3.5-3.9C123.8,250.5,124.4,250.5,124.9,250.4z"/>
			<path class="st4" d="M153.3,290.4c0-0.4-0.3-0.7-0.8-0.7c-0.7,0-1.4,0-2.2,0c0-0.3,0-0.5,0-0.7c0-7.7,0-15.3,0-23
				c0-1-0.5-1.3-1.3-0.8c-3,1.6-6,3.2-9.1,4.8c-0.2,0.1-0.3,0.2-0.5,0.3c0-0.2,0-0.4,0-0.5c0-1.3,0-2.5,0-3.8c0-1-0.4-1.2-1.3-0.9
				c-2.4,1-4.8,1.9-7.2,2.9c-1.1,0.4-2.2,0.9-3.4,1.3c-0.3,0.1-0.6,0.4-0.5,0.8c0.1,0.2,0.3,0.5,0.6,0.6c0.1,0.1,0.4,0,0.6-0.1
				c3.1-1.2,6.1-2.4,9.1-3.7c0.2-0.1,0.4-0.1,0.6-0.2c0,1.5,0,2.9,0,4.3c0,1.1,0.4,1.4,1.4,0.8c2.6-1.4,5.1-2.7,7.7-4.1
				c0.6-0.3,1.2-0.6,1.8-1c0,7.6,0,15.2,0,22.7c-0.1,0-0.3,0-0.4,0c-6.8,0-13.7,0-20.5,0c-0.3,0-0.4-0.1-0.5-0.4
				c-0.3-1.6-0.6-3.3-0.8-4.9c-0.4-3.1-0.7-6.3-0.9-9.4c-0.3-3.3-0.4-6.7-0.6-10c-0.1-2.1-0.2-4.3-0.3-6.4c0-0.5-0.3-0.8-0.8-0.8
				c-2.4,0-4.8,0-7.2,0c-0.5,0-0.7,0.3-0.8,0.7c0,0.4-0.1,0.9-0.1,1.3c-0.2,3.2-0.4,6.5-0.7,9.7c-0.3,3.5-0.5,6.9-0.9,10.4
				c-0.3,3.1-0.7,6.3-1.1,9.4c0,0.3-0.1,0.4-0.4,0.4c-0.4,0-0.9,0-1.3,0c-0.4,0-0.7,0.3-0.7,0.7c0,0.4,0.3,0.7,0.7,0.7
				c0.2,0,0.3,0,0.5,0c13.3,0,26.6,0,39.9,0c0.2,0,0.3,0,0.5,0C153.1,291.1,153.3,290.8,153.3,290.4z M114.9,289.6
				c1.4-10.1,2-20.3,2.7-30.5c2,0,3.9,0,5.9,0c0,0.7,0,1.4,0,2.2c-0.4,0-0.8,0-1.2,0c-0.8,0-1.6,0-2.4,0c-0.5,0-0.8,0.3-0.8,0.7
				c0,0.4,0.3,0.7,0.8,0.7c1.1,0,2.1,0,3.2,0c0.2,0,0.3,0,0.5,0c0.5,9,0.9,18,2.5,26.9C122.4,289.6,118.6,289.6,114.9,289.6z"/>
			<rect x="130.3" y="273.8" class="st4" width="5.6" height="5.6"/>
			<rect x="140.4" y="273.8" class="st4" width="5.6" height="5.6"/>
			<rect x="130.3" y="280.8" class="st4" width="5.6" height="5.6"/>
			<rect x="140.4" y="280.8" class="st4" width="5.6" height="5.6"/>
		</g>
	</g>
	<g>
		<path class="st4" d="M255.2,56.3c0.8-0.5,1.5-1.2,2.1-2l2.4,1.4c0.1,0.1,0.2,0.1,0.4,0.1c0.3,0,0.5-0.1,0.6-0.4
			c0.2-0.4,0.1-0.8-0.3-1l-2.4-1.4c0.4-0.9,0.7-1.8,0.8-2.8h2.7c0.4,0,0.7-0.3,0.7-0.7s-0.3-0.7-0.7-0.7h-2.6c-0.1-1-0.3-2-0.7-2.9
			l2.2-1.3c0.4-0.2,0.5-0.7,0.3-1c-0.2-0.4-0.7-0.5-1-0.3l-2.2,1.3c-0.6-0.8-1.3-1.6-2.1-2.2l1.2-2.2c0.2-0.4,0.1-0.8-0.3-1
			c-0.4-0.2-0.8-0.1-1,0.3l-1.2,2.1c-0.9-0.4-1.9-0.7-3-0.8v-2.5c0-0.4-0.3-0.7-0.7-0.7s-0.7,0.3-0.7,0.7v2.5
			c-1.1,0.1-2.1,0.4-3,0.8l-1.2-2.1c-0.2-0.4-0.7-0.5-1-0.3c-0.4,0.2-0.5,0.7-0.3,1l1.2,2.2c-0.8,0.6-1.5,1.3-2.1,2.2l-2.2-1.3
			c-0.4-0.2-0.8-0.1-1,0.3c-0.2,0.4-0.1,0.8,0.3,1l2.2,1.3c-0.4,0.9-0.6,1.9-0.7,2.9h-2.6c-0.4,0-0.7,0.3-0.7,0.7s0.3,0.7,0.7,0.7
			h2.7c0.1,1,0.4,2,0.8,2.8l-2.4,1.4c-0.4,0.2-0.5,0.7-0.3,1c0.1,0.2,0.4,0.4,0.6,0.4c0.1,0,0.3,0,0.4-0.1l2.4-1.4
			c0.6,0.8,1.3,1.5,2.1,2l-1.4,2.5c-0.2,0.4-0.1,0.8,0.3,1c0.1,0.1,0.2,0.1,0.4,0.1c0.3,0,0.5-0.1,0.6-0.4l1.4-2.5
			c0.9,0.4,1.8,0.6,2.8,0.7v2.9c0,0.4,0.3,0.7,0.7,0.7s0.7-0.3,0.7-0.7v-2.9c1-0.1,1.9-0.3,2.8-0.7l1.4,2.5c0.1,0.2,0.4,0.4,0.6,0.4
			c0.1,0,0.3,0,0.4-0.1c0.4-0.2,0.5-0.7,0.3-1L255.2,56.3z M243.4,49.2c0-3.9,3.2-7.1,7.1-7.1c3.9,0,7.1,3.2,7.1,7.1
			c0,3.9-3.2,7.1-7.1,7.1C246.5,56.3,243.4,53.1,243.4,49.2z"/>
		<path class="st4" d="M263.5,82.1c0-0.6-0.3-1.1-0.7-1.6c-0.5-0.8-1.2-1.4-2.1-1.8c-0.1,0-0.2-0.1-0.3-0.1c-0.1,0-0.2-0.1-0.3-0.1
			l-0.4-0.1c0,0-0.1,0-0.1,0c-0.1,0-0.1,0-0.2,0c-0.5,0-1-0.1-1.4-0.1c-2.7,0-5.5,0-8.2,0c-2.9,0-5.8,0-8.7,0c-0.1,0-0.1,0-0.2,0
			c0,0-0.1,0-0.1,0c-0.1,0-0.1,0-0.2,0c-0.1,0-0.2-0.1-0.4-0.1l-0.1-0.1c0,0,0,0-0.1-0.1c-1-0.4-1.7-1.1-2.2-2
			c-0.4-0.7-0.4-1.5-0.3-2.3c0,0,0-0.1,0-0.1c0.1-0.6,0.4-1.2,0.8-1.7c0.7-0.8,1.5-1.3,2.5-1.5c0.1-0.2,0.4-0.1,0.4,0
			c0.1,0,0.1,0,0.2,0c2.3,0,4.6,0,6.9,0c0.1,0,0.2,0,0.3,0l0.3,0c0,0,0,0,0.1,0c0,0,0.1,0,0.2,0c0.1,0.1,0.1,0.2,0.1,0.3
			c0.1,0.2,0.1,0.5,0.2,0.7c0.4,1,1.2,1.6,2.1,2.1c0,0,0.7,0.3,1.1,0.3c2,0,3.9,0,5.9,0c0.5,0,0.9-0.4,0.9-1c0-0.2,0-0.3,0-0.5
			c0,0,0-0.1,0.1-0.1c0,0,0,0,0,0h2.9v-1.8h-1.4c-0.5,0-1,0-1.5,0c-0.1-0.1-0.2-0.1-0.2-0.2c0-0.4,0-0.8,0-1.2
			c0-0.1,0.1-0.1,0.2-0.2h3v-1.8h-0.2c0,0,0,0,0,0c-0.1,0-0.2,0-0.3,0H260c-0.2,0-0.3-0.1-0.3-0.4c0.1-0.8-0.5-1.1-1.1-1.1
			c-1.7,0-3.4,0-5,0c-0.2,0-0.4,0-0.6,0.1c-0.1,0-0.2,0-0.3,0.1c-0.1,0-0.1,0-0.2,0c-0.2,0.1-0.3,0.1-0.5,0.2c-0.1,0-0.2,0-0.3,0.1
			c-1.1,0.6-1.9,1.4-2.3,2.6c0,0.1-0.1,0.1-0.1,0.2c0,0-0.1,0-0.1,0c-2.2,0-4.4,0-6.6,0c-0.5,0-0.9,0-1.4,0c-0.1,0-0.2,0-0.3,0
			c0,0-0.1,0-0.1,0c-0.1,0-0.1,0-0.2,0c-0.1,0-0.2,0-0.3,0c0,0-0.1,0-0.1,0c-0.4,0.2-0.8,0.3-1.3,0.5c-0.8,0.4-1.5,1-2,1.7
			c-0.5,0.6-0.8,1.4-1,2.2c0,0.1-0.1,0.2-0.1,0.4c0,0.1,0,0.1,0,0.2c0,0.5,0,1,0,1.4l0,0.2c0,0.1,0.1,0.2,0.1,0.3
			c0.3,1.4,1.1,2.6,2.2,3.4c1.1,0.8,2.3,1.1,3.6,1.1c5.5,0,11,0,16.5,0c0.2,0,0.5,0,0.7,0c0.1-0.2,0.2-0.2,0.3,0.1
			c0.5,0,0.9,0.3,1.4,0.6c0.8,0.6,1.1,1.4,1.2,2.3c0.1,0.7-0.2,1.4-0.6,2c-0.5,0.7-1.3,1.2-2.1,1.3c-1.2,0.1-2.3,0-3.5,0
			c-1.1-1.9-5.4-3.6-9.1-3.6c-4.3,0-9.3,4.6-9.3,4.6s5,4.6,9.3,4.6c3.8,0,8.1-1.7,9.1-3.7c0.8,0,1.7,0,2.5,0c1.1,0,2.2-0.2,3.2-0.9
			c1.2-0.8,1.8-1.9,2.1-3.2c0-0.1,0-0.2,0-0.3c0-0.3,0-0.5,0-0.8C263.6,82.7,263.5,82.4,263.5,82.1z M251,69.1
			c0-0.1,0.1-0.2,0.1-0.4c0,0,0-0.1,0-0.1c0-0.1,0.1-0.2,0.1-0.3c0.5-0.9,1.3-1.3,2.3-1.3c1.3,0,2.7,0,4,0c0.1,0,0.2,0,0.3,0
			c0,0.1,0.1,0.2,0.1,0.3c0,1.4,0,2.7,0,4.1c0,0.2,0,0.3-0.3,0.3c0,0-0.1,0-0.1,0c-1.5,0-3,0-4.6,0c-0.1,0-0.1,0-0.2,0
			c-0.6-0.2-1.1-0.6-1.4-1.2c0,0,0,0-0.1-0.1c-0.1-0.2-0.1-0.3-0.2-0.5c0-0.1,0-0.2-0.1-0.4C251,69.5,251,69.3,251,69.1z M247,90.6
			c-3.3,0-7.1-3.3-7.1-3.3s3.8-3.3,7.1-3.3c2.8,0,6.1,1.2,6.9,2.7l-8.1-0.3c-0.3,0-0.6,0.2-0.6,0.6c0,0.3,0.2,0.6,0.6,0.6l8.2,0.3
			C253.3,89.2,249.9,90.6,247,90.6z"/>
	</g>
	<g>
		<path class="st4" d="M267.5,258.7c-3,1.7-5.7,4.9-5.7,7c-0.1,0.1-0.2,0.1-0.3,0.2l-0.3-2.9c0,0,0,0,0,0c0.2-0.9,0.4-1.7,0.6-2.6
			c2-0.6,4.3-4.1,5-7.5c0.8-3.9-2.3-9.3-2.3-9.3s-5.1,3.7-5.9,7.6c-0.7,3.4,0,7.7,1.6,9c-0.1,0.7-0.7,2.3-0.7,2.3l0.4,3.8
			c-0.2-0.1-0.4-0.3-0.7-0.4c0-2.1-2.7-5.3-5.7-7c-3.5-1.9-9.6-0.5-9.6-0.5s2,6,5.5,7.9c3,1.7,7.3,2.3,9,1.1
			c0.5,0.3,1.1,0.6,1.6,0.9c0,0,0,0.1,0.1,0.1l0.7,6.7l1.7-0.2l-0.8-7c0.3-0.2,0.6-0.3,0.9-0.5c1.7,1.1,6,0.6,9-1.1
			c3.5-1.9,5.5-7.9,5.5-7.9S271,256.8,267.5,258.7z M250.6,262.1l6.5,3.9c-1.2,0.9-4.5,0.4-6.9-0.9c-2.6-1.5-4.2-5.9-4.2-5.9
			s4.6-1,7.2,0.5c2.3,1.3,4.4,3.8,4.4,5.3l-6.5-3.9c-0.2-0.1-0.6-0.1-0.7,0.2C250.3,261.7,250.4,262,250.6,262.1z M259.7,251.6
			c0.6-3,4.4-5.8,4.4-5.8s2.3,4.1,1.6,7.1c-0.6,2.6-2.3,5.3-3.8,5.7l1.8-7.3c0.1-0.3-0.1-0.6-0.4-0.6c-0.3-0.1-0.6,0.1-0.6,0.4
			l-1.9,7.4C259.6,257.6,259.1,254.2,259.7,251.6z M270.8,265.2c-2.4,1.3-5.7,1.8-6.9,0.9l6.5-3.9c0.3-0.2,0.3-0.5,0.2-0.7
			c-0.2-0.3-0.5-0.3-0.7-0.2l-6.5,3.9c0-1.5,2.1-4,4.4-5.3c2.6-1.5,7.2-0.5,7.2-0.5S273.5,263.7,270.8,265.2z"/>
		<path class="st7" d="M233.8,250.2c-1.9-2.1-3.7-4.2-5.6-6.2c-1-1.4-1.3-3.1-3.2-3.7c0.4-0.9,1.6-1.3,1.9-2.2
			c0.1-1.8,0.1-3.6,0.2-5.4c-0.1,0-0.2,0-0.3,0c-0.1,0.8-0.4,1.2-0.6,1.8c-0.3,0.8-0.3,1.6-0.8,2.2c-0.8,1.2-3.1,1.5-4.3,2.4
			c-2.4,1.7-2.9,4.5-5.9,5.8c0.4,1.4,1.4,2.5,2.1,3.7c1,1.6,1.6,3.3,2.6,5c0.5,0.8,1.3,1.7,1.6,2.7c0.1,0,0.1,0,0.2,0
			c1.4-2.1,4.2-2,7.8-1.9c0.9,0,2.3,0.5,3,0C233.5,253.8,233.8,251.8,233.8,250.2z M222.1,253.6c-1-0.2-1.1-1.4-1.5-2.2
			c-0.7-1.4-2.1-4.5-3-5.6c0.3-2.5,2.9-2.7,4.6-3.9c0.8,0,1.6,0,2.4,0c2.4,2.3,4,5.7,6.9,7.5c0.2,1.1,0.3,2.3,0.5,3.4
			C228.9,253.7,224.2,251.7,222.1,253.6z M213.5,245.1c0.2,0,0.3,0,0.5,0c0.4,1.5,1.6,2.9,2.4,4.2c1,1.6,1.6,3.3,2.6,5
			c0.6,0.9,1.4,1.7,1.6,3c-0.6,0.5-0.8,1.5-1.6,1.9c0-0.1,0-0.1,0-0.2c-1.5-1.6-2.2-4-3.4-5.9c-1.4-2.2-3.5-4.8-4.3-7.4
			C212,245.7,213,245.5,213.5,245.1z M224.4,245.6c0.4,0,0.9,0,1.3,0c0.3,0.4,0.8,0.9,0.6,1.3c-0.2,0.1-0.4,0.1-0.8,0.2
			c-0.2-0.1-0.3-0.1-0.6-0.2c-0.3-0.3-0.6-0.6-1-1c0-0.1,0-0.1,0-0.2C224.2,245.7,224.2,245.7,224.4,245.6z"/>
	</g>
	<path class="st4" d="M129.8,31.7c-4.4,0-8.1,3.6-8.1,8.1s3.6,8.1,8.1,8.1s8.1-3.6,8.1-8.1S134.3,31.7,129.8,31.7z M129.8,46.8
		c-3.9,0-7-3.1-7-7c0-3.9,3.1-7,7-7c3.9,0,7,3.1,7,7C136.8,43.6,133.7,46.8,129.8,46.8z M140.8,47.5c1.6-2.3,2.5-5,2.5-7.8
		c0-0.3,0.2-0.5,0.5-0.5c0.3,0,0.5,0.2,0.5,0.5c0,3-0.9,5.9-2.7,8.4c-0.1,0.1-0.3,0.2-0.4,0.2c-0.1,0-0.2,0-0.3-0.1
		C140.7,48.1,140.6,47.8,140.8,47.5z M138.7,49.9c0.2-0.2,0.6-0.2,0.8,0c0.2,0.2,0.2,0.6,0,0.8c-0.3,0.2-0.6,0.5-0.9,0.7
		c-0.1,0.1-0.2,0.1-0.3,0.1c-0.2,0-0.3-0.1-0.4-0.2c-0.2-0.2-0.1-0.6,0.1-0.8C138.2,50.3,138.5,50.1,138.7,49.9z M117.1,44.3
		c0.9,2.6,2.6,4.9,4.9,6.5c0.2,0.2,0.3,0.5,0.1,0.7c-0.1,0.1-0.3,0.2-0.4,0.2c-0.1,0-0.2,0-0.3-0.1c-2.5-1.8-4.3-4.2-5.3-7
		c-0.1-0.3,0-0.6,0.3-0.7C116.7,43.8,117,44,117.1,44.3z M115.8,39.7c0.3,0,0.5,0.2,0.6,0.5c0,0.3,0,0.7,0.1,1
		c0,0.3-0.2,0.6-0.5,0.6c0,0,0,0-0.1,0c-0.3,0-0.5-0.2-0.5-0.5c0-0.4-0.1-0.7-0.1-1.1C115.3,40,115.5,39.7,115.8,39.7z M126.5,39.1
		c0.2-0.2,0.6-0.2,0.8,0l1.8,1.8l3.4-3.4c0.2-0.2,0.6-0.2,0.8,0c0.2,0.2,0.2,0.6,0,0.8l-3.8,3.8c-0.1,0.1-0.2,0.2-0.4,0.2
		c-0.1,0-0.3-0.1-0.4-0.2l-2.2-2.2C126.3,39.7,126.3,39.4,126.5,39.1z M129.8,19.9c-1.9,0-3.5-1.5-3.5-3.5c0-1.9,1.5-3.5,3.5-3.5
		c1.9,0,3.5,1.5,3.5,3.5C133.3,18.3,131.7,19.9,129.8,19.9z M129.8,14.1c-1.3,0-2.3,1-2.3,2.3s1,2.3,2.3,2.3s2.3-1,2.3-2.3
		S131.1,14.1,129.8,14.1z M136.9,26.6h-14.2v-2.1c0-2.3,1.9-4.2,4.2-4.2h5.7c2.3,0,4.2,1.9,4.2,4.2V26.6z M123.9,25.5h11.9v-1
		c0-1.7-1.4-3.1-3.1-3.1H127c-1.7,0-3.1,1.4-3.1,3.1V25.5z M129.8,59.1c-1.9,0-3.5-1.5-3.5-3.5c0-1.9,1.5-3.5,3.5-3.5
		c1.9,0,3.5,1.5,3.5,3.5C133.3,57.5,131.7,59.1,129.8,59.1z M129.8,53.3c-1.3,0-2.3,1-2.3,2.3s1,2.3,2.3,2.3s2.3-1,2.3-2.3
		S131.1,53.3,129.8,53.3z M136.9,65.8h-14.2v-2.1c0-2.3,1.9-4.2,4.2-4.2h5.7c2.3,0,4.2,1.9,4.2,4.2V65.8z M123.9,64.7h11.9v-1
		c0-1.7-1.4-3.1-3.1-3.1H127c-1.7,0-3.1,1.4-3.1,3.1V64.7z M110.1,31.3c-1.9,0-3.5-1.5-3.5-3.5c0-1.9,1.5-3.5,3.5-3.5
		c1.9,0,3.5,1.5,3.5,3.5C113.6,29.7,112,31.3,110.1,31.3z M110.1,25.5c-1.3,0-2.3,1-2.3,2.3s1,2.3,2.3,2.3s2.3-1,2.3-2.3
		S111.4,25.5,110.1,25.5z M117.2,38h-14.2v-2.1c0-2.3,1.9-4.2,4.2-4.2h5.7c2.3,0,4.2,1.9,4.2,4.2V38z M104.2,36.8h11.9v-1
		c0-1.7-1.4-3.1-3.1-3.1h-5.7c-1.7,0-3.1,1.4-3.1,3.1V36.8z M149.5,31.3c-1.9,0-3.5-1.5-3.5-3.5c0-1.9,1.5-3.5,3.5-3.5
		c1.9,0,3.5,1.5,3.5,3.5C152.9,29.7,151.4,31.3,149.5,31.3z M149.5,25.5c-1.3,0-2.3,1-2.3,2.3s1,2.3,2.3,2.3c1.3,0,2.3-1,2.3-2.3
		S150.8,25.5,149.5,25.5z M156.6,38h-14.2v-2.1c0-2.3,1.9-4.2,4.2-4.2h5.7c2.3,0,4.2,1.9,4.2,4.2V38z M143.5,36.8h11.9v-1
		c0-1.7-1.4-3.1-3.1-3.1h-5.7c-1.7,0-3.1,1.4-3.1,3.1V36.8z"/>
	<path class="st4" d="M217.8,55.6l0.6,1.6l10.5,6.1l1.1-1.9l-7.8-7.4l-0.3-0.3l-0.4,0.1c-0.8,0.2-2.1,0.4-2.6,0.2l-0.5-0.3
		c0-1.2-0.9-2.3-2.1-2.5l1.4-1.7l0-12.1h-2.2L213.1,48l-0.1,0.4l0.3,0.3c0.6,0.5,1.4,1.6,1.4,2.1v0.7h0.1c-1,0.4-1.7,1.3-1.7,2.5
		c0,0.1,0,0.3,0,0.4l-2.3-0.4l-10.5,6l1.1,1.9l10.3-3.1l0.4-0.1l0.1-0.4c0.2-0.8,0.7-2,1.1-2.3l0.5-0.3c0.1,0.1,0.2,0.2,0.3,0.3
		v18.5h-2.3l-2.7,3.1h12.7l-2.4-3.1h-2.1V56C217.5,55.9,217.6,55.7,217.8,55.6z M221.4,55.3l5.9,5.5l-7.9-4.6l-0.3-0.8
		C220,55.6,220.9,55.5,221.4,55.3z M210.9,57.5l-7.7,2.3l7.9-4.5l0.8,0.1C211.4,56.1,211.1,57,210.9,57.5z M214.5,47.9l1.9-7.9
		l0,9.1l-0.5,0.6C215.6,49.3,215.2,48.6,214.5,47.9z M215.7,52.6c0.7,0,1.3,0.6,1.3,1.3s-0.6,1.3-1.3,1.3c-0.7,0-1.3-0.6-1.3-1.3
		S215,52.6,215.7,52.6z M218.8,75.8l0.3,0.4h-7l0.3-0.4h3V56.6h0.6v19.2H218.8z"/>
	<path class="st4" d="M257.8,233.5c1-0.8,1.9-1.7,2.4-2.7c0.8-1.5,0.9-2.9,0.2-4c-0.6-1.1-1.9-1.7-3.6-1.8c-1.1,0-2.3,0.2-3.5,0.7
		c-0.4-3.2-2.2-5.6-4.5-5.6c-2.2,0-4.1,2.4-4.5,5.6c-1.2-0.5-2.4-0.7-3.5-0.7c-1.7,0-2.9,0.7-3.6,1.8c-0.6,1.1-0.6,2.5,0.2,4
		c0.5,1,1.4,1.9,2.4,2.7c-1,0.8-1.9,1.7-2.4,2.7c-0.8,1.5-0.9,2.9-0.2,4c0.6,1.1,1.9,1.7,3.6,1.8c1.1,0,2.3-0.2,3.5-0.7
		c0.4,3.2,2.2,5.6,4.5,5.6c2.2,0,4.1-2.4,4.5-5.6c1.2,0.5,2.4,0.7,3.5,0.7c1.7,0,2.9-0.7,3.6-1.8c0.6-1.1,0.6-2.5-0.2-4
		C259.7,235.2,258.8,234.3,257.8,233.5z M256.8,226.5c1.1,0,2,0.4,2.4,1.1c0.4,0.7,0.3,1.6-0.3,2.6c-0.5,0.9-1.4,1.8-2.4,2.5
		c-0.3-0.2-0.6-0.3-0.9-0.4c-0.4-1.4-1.2-2.7-2.3-3.6c0.1-0.4,0.1-0.8,0.1-1.3C254.6,226.7,255.8,226.4,256.8,226.5z M248.9,221.6
		c1.6,0,2.9,2.2,3.1,4.9c-0.4,0.2-0.8,0.5-1.2,0.8c-0.6-0.2-1.2-0.2-1.8-0.2c-0.7,0-1.3,0.1-1.9,0.3c-0.4-0.3-0.8-0.6-1.2-0.8
		C246,223.7,247.3,221.6,248.9,221.6z M238.8,230.1c-0.5-1-0.6-1.9-0.3-2.6c0.4-0.7,1.2-1,2.4-1.1c0,0,0.1,0,0.1,0
		c1,0,2.2,0.3,3.3,0.8c0,0.5,0,1,0.1,1.4c-1,0.9-1.8,2.1-2.2,3.4c-0.3,0.2-0.7,0.3-1,0.5C240.2,231.9,239.3,231,238.8,230.1z
		 M240.9,240.5c-1.1,0-2-0.4-2.4-1.1c-0.4-0.7-0.3-1.6,0.3-2.6c0.5-0.9,1.4-1.8,2.4-2.5c0.3,0.2,0.6,0.3,0.8,0.4
		c0.2,1.7,1,3.2,2.3,4.3c0,0.2,0,0.4,0,0.6C243.1,240.2,242,240.5,240.9,240.5z M248.9,245.4c-1.6,0-2.9-2.2-3.1-4.9
		c0.1-0.1,0.3-0.2,0.4-0.2c0.8,0.4,1.8,0.6,2.8,0.6c0.9,0,1.9-0.2,2.7-0.5c0.1,0.1,0.2,0.1,0.3,0.2
		C251.7,243.2,250.4,245.4,248.9,245.4z M259.2,239.4c-0.4,0.7-1.2,1-2.4,1.1c-1.1,0-2.3-0.3-3.4-0.8c0-0.2,0-0.3,0-0.5
		c1.3-1.1,2.2-2.7,2.4-4.5c0.2-0.1,0.5-0.2,0.7-0.4c1.1,0.7,1.9,1.6,2.4,2.5C259.5,237.9,259.6,238.8,259.2,239.4z"/>
	<g>
		<g>
			<path class="st4" d="M99.7,281.3c-0.3,0.2-1.2,0.6-2.2,0.6c-1,0-1.9-0.4-2.5-1c-0.5-0.6-0.8-1.3-1-2.2h5.3v-1.2h-5.4v-0.2
				c0-0.2,0-0.5,0-0.7h5.4v-1.2h-5.2c0.2-0.9,0.6-1.7,1.1-2.2c0.6-0.7,1.4-1,2.4-1c0.9,0,1.6,0.3,2,0.5l0.1,0.1l0.4-1.5l-0.1,0
				c-0.4-0.2-1.3-0.6-2.5-0.6c-1.5,0-2.8,0.5-3.8,1.6c-0.8,0.8-1.3,1.9-1.5,3.1h-1.3v1.2H92c0,0.2,0,0.5,0,0.7v0.2h-1.1v1.2h1.2
				c0.2,1.3,0.6,2.4,1.4,3.2c1,1.1,2.3,1.7,3.9,1.7c1.5,0,2.5-0.6,2.9-0.8l0.1,0l-0.4-1.4L99.7,281.3z"/>
			<path class="st4" d="M97.3,267.8c-5.2,0-9.4,4.2-9.4,9.4c0,5.2,4.2,9.4,9.4,9.4c5.2,0,9.4-4.2,9.4-9.4
				C106.7,272,102.5,267.8,97.3,267.8z M105.4,277.2c0,4.5-3.6,8.1-8.1,8.1c-4.5,0-8.1-3.6-8.1-8.1c0-4.5,3.6-8.1,8.1-8.1
				C101.8,269.1,105.4,272.7,105.4,277.2z"/>
		</g>
		<g>
			<path class="st4" d="M104.9,300.5c-0.3,0.2-1.2,0.6-2.2,0.6c-1,0-1.9-0.4-2.5-1c-0.5-0.6-0.8-1.3-1-2.2h5.3v-1.2H99v-0.2
				c0-0.2,0-0.5,0-0.7h5.4v-1.2h-5.2c0.2-0.9,0.6-1.7,1.1-2.2c0.6-0.7,1.4-1,2.4-1c0.9,0,1.6,0.3,2,0.5l0.1,0.1l0.4-1.5l-0.1,0
				c-0.4-0.2-1.3-0.6-2.5-0.6c-1.5,0-2.8,0.5-3.8,1.6c-0.8,0.8-1.3,1.9-1.5,3.1h-1.3v1.2h1.1c0,0.2,0,0.5,0,0.7v0.2h-1.1v1.2h1.2
				c0.2,1.3,0.6,2.4,1.4,3.2c1,1.1,2.3,1.7,3.9,1.7c1.5,0,2.5-0.6,2.9-0.8l0.1,0l-0.4-1.4L104.9,300.5z"/>
			<path class="st4" d="M102.5,287c-5.2,0-9.4,4.2-9.4,9.4c0,5.2,4.2,9.4,9.4,9.4c5.2,0,9.4-4.2,9.4-9.4
				C111.9,291.2,107.7,287,102.5,287z M110.6,296.4c0,4.5-3.6,8.1-8.1,8.1c-4.5,0-8.1-3.6-8.1-8.1c0-4.5,3.6-8.1,8.1-8.1
				C107,288.3,110.6,291.9,110.6,296.4z"/>
		</g>
		<g>
			<path class="st4" d="M119.3,307.5c-0.3,0.2-1.2,0.6-2.2,0.6c-1,0-1.9-0.4-2.5-1c-0.5-0.6-0.8-1.3-1-2.2h5.3v-1.2h-5.4v-0.2
				c0-0.2,0-0.5,0-0.7h5.4v-1.2h-5.2c0.2-0.9,0.6-1.7,1.1-2.2c0.6-0.7,1.4-1,2.4-1c0.9,0,1.6,0.3,2,0.5l0.1,0.1l0.4-1.5l-0.1,0
				c-0.4-0.2-1.3-0.6-2.5-0.6c-1.5,0-2.8,0.5-3.8,1.6c-0.8,0.8-1.3,1.9-1.5,3.1h-1.3v1.2h1.1c0,0.2,0,0.5,0,0.7v0.2h-1.1v1.2h1.2
				c0.2,1.3,0.6,2.4,1.4,3.2c1,1.1,2.3,1.7,3.9,1.7c1.5,0,2.5-0.6,2.9-0.8l0.1,0l-0.4-1.4L119.3,307.5z"/>
		</g>
		<path class="st4" d="M116.9,294c-1.9,0-3.6,0.6-5.1,1.5c0,0.3,0,0.6,0,0.9c0,0.2,0,0.4,0,0.7c1.4-1.1,3.2-1.8,5.1-1.8
			c4.5,0,8.1,3.6,8.1,8.1c0,4.5-3.6,8.1-8.1,8.1c-4.5,0-8.1-3.6-8.1-8.1c0,0,0,0,0,0c-0.4,0.4-0.8,0.7-1.2,1
			c0.5,4.8,4.5,8.5,9.4,8.5c5.2,0,9.4-4.2,9.4-9.4C126.3,298.2,122.1,294,116.9,294z"/>
	</g>
</g>
</svg>
