<?xml version="1.0" encoding="utf-8"?>
<!-- Generator: Adobe Illustrator 27.7.0, SVG Export Plug-In . SVG Version: 6.00 Build 0)  -->
<svg version="1.1" xmlns="http://www.w3.org/2000/svg" xmlns:xlink="http://www.w3.org/1999/xlink" x="0px" y="0px"
	 viewBox="0 0 436.1 358.6" style="enable-background:new 0 0 436.1 358.6;" xml:space="preserve">
<style type="text/css">
	.st0{fill:#EDEDED;}
	.st1{fill:none;stroke:#FFFFFF;stroke-width:0.5;}
	.st2{fill:none;stroke:#FFFFFF;stroke-width:0.5;stroke-dasharray:2.0022,2.0022;}
	.st3{fill:none;stroke:#FFFFFF;stroke-width:0.5;stroke-dasharray:1.9933,1.9933;}
	.st4{fill:none;stroke:#FFFFFF;stroke-width:0.5;stroke-dasharray:1.9925,1.9925;}
	.st5{fill:none;stroke:#D0D0D0;stroke-width:0.5;}
	.st6{fill:none;stroke:#D0D0D0;stroke-width:0.5;stroke-dasharray:2.01,2.01;}
	.st7{fill:none;stroke:#D0D0D0;stroke-width:0.5;stroke-dasharray:2.001,2.001;}
	.st8{fill:none;stroke:#D0D0D0;stroke-width:0.5;stroke-dasharray:2.0002,2.0002;}
	.st9{fill:#1EA64A;}
	.st10{fill:#F39200;}
	.st11{fill:#E30613;}
	.st12{fill:#AFCA0B;}
	.st13{fill:#FFDD00;}
	.st14{fill:none;stroke:#EDEDED;stroke-width:0.5;}
	.st15{fill:none;stroke:#EDEDED;stroke-width:0.5;stroke-dasharray:2.0279,2.0279;}
	.st16{fill:none;stroke:#EDEDED;stroke-width:0.5;stroke-dasharray:1.9991,1.9991;}
	.st17{fill:none;stroke:#EDEDED;stroke-width:0.5;stroke-dasharray:1.993,1.993;}
	.st18{fill:none;stroke:#EDEDED;stroke-width:0.5;stroke-dasharray:2.0049,2.0049;}
	.st19{fill:#010202;}
	.st20{font-family:'RobotoCondensed-Bold';}
	.st21{font-size:9px;}
	.st22{font-family:'RobotoCondensed-Regular';}
	.st23{font-size:12px;}
	.st24{fill:#FFFFFF;}
	.st25{fill-rule:evenodd;clip-rule:evenodd;fill:#FFFFFF;}
</style>
<g id="HG">
	<path class="st0" d="M345.3,84.5L336.5,73c-25.1-29.9-61.1-50.7-102.9-55.9C145.9,6.3,66,68.7,55.2,156.4
		C44.4,244.1,106.7,324,194.4,334.8c87.7,10.8,167.5-51.5,178.4-139.3C377.8,154.8,367,115.7,345.3,84.5z M314.5,188.3
		c-6.8,55.4-57.3,94.8-112.7,88c-55.4-6.8-94.7-57.3-87.9-112.7c6.8-55.4,57.3-94.8,112.7-88c26.4,3.3,49.1,16.4,65,35.3l5.6,7.3
		C310.9,137.9,317.7,162.6,314.5,188.3z"/>
</g>
<g id="Ebene_1">
	<g>
		<g>
			<g>
				<line class="st1" x1="374.9" y1="176" x2="373.9" y2="176"/>
				<line class="st2" x1="371.9" y1="176" x2="56.5" y2="176.1"/>
				<line class="st1" x1="55.5" y1="176.1" x2="54.5" y2="176.1"/>
			</g>
		</g>
		<g>
			<g>
				<line class="st1" x1="133.6" y1="313.6" x2="134.1" y2="312.8"/>
				<line class="st3" x1="135.1" y1="311" x2="292.1" y2="39.2"/>
				<line class="st1" x1="292.6" y1="38.3" x2="293.1" y2="37.4"/>
			</g>
		</g>
		<g>
			<g>
				<line class="st1" x1="133.1" y1="39" x2="133.6" y2="39.9"/>
				<line class="st4" x1="134.6" y1="41.6" x2="292.2" y2="313"/>
				<line class="st1" x1="292.7" y1="313.9" x2="293.2" y2="314.7"/>
			</g>
		</g>
	</g>
	<g>
		<g>
			<g>
				<line class="st5" x1="315.1" y1="176.1" x2="314.1" y2="176.1"/>
				<line class="st6" x1="312.1" y1="176.1" x2="116.1" y2="176.1"/>
				<line class="st5" x1="115.1" y1="176.1" x2="114.1" y2="176.1"/>
			</g>
		</g>
		<g>
			<g>
				<line class="st5" x1="163.7" y1="262.4" x2="164.2" y2="261.5"/>
				<line class="st7" x1="165.2" y1="259.8" x2="262.8" y2="90.8"/>
				<line class="st5" x1="263.3" y1="90" x2="263.8" y2="89.1"/>
			</g>
		</g>
		<g>
			<g>
				<line class="st5" x1="163.4" y1="90.1" x2="163.9" y2="91"/>
				<line class="st8" x1="164.9" y1="92.7" x2="262.8" y2="261.4"/>
				<line class="st5" x1="263.3" y1="262.2" x2="263.8" y2="263.1"/>
			</g>
		</g>
	</g>
	<path id="Torte_landwirtschaft" class="st9" d="M258.8,255.6c6.2-3.6,12.2-8,17.6-13.2c18.7-18,28.1-42,28-66h-91.3L258.8,255.6z"
		/>
	<path id="Torte_Energie" class="st10" d="M254.9,176.3c0-3.3-0.4-6.6-1.2-10c-2.8-11.5-10.2-20.7-19.8-26.2l-20.9,36.2L254.9,176.3
		z"/>
	<path id="Torte_Industrie" class="st11" d="M193.6,176.4c0,1.6,0.1,3.2,0.5,4.9c1.2,5.6,4.6,10,9.1,12.5l10.3-17.9L193.6,176.4z"/>
	<path id="Torte_Geb채ude" class="st12" d="M171.5,104.3c-5.7,3.3-11.1,7.3-16,12c-17,16.3-25.5,38.2-25.4,60.1h83.1L171.5,104.3z"
		/>
	<path id="Torte_Verwaltung" class="st13" d="M244.1,122.5c-4.3-2.5-8.9-4.5-13.8-5.9c-17-4.9-34.4-2.3-48.6,6l31.2,54L244.1,122.5z
		"/>
	<path id="Torte_Verkehr" class="st13" d="M187.7,220.8c3.5,2,7.3,3.7,11.4,4.9c14,4.1,28.3,1.9,40-5l-25.7-44.5L187.7,220.8z"/>
	<g>
		<g>
			<path class="st14" d="M233.8,181.6c-0.1,0.3-0.2,0.6-0.3,1"/>
			<path class="st15" d="M232.8,184.5c-1.1,2.4-2.6,4.6-4.6,6.5c-8.3,7.9-21.4,7.7-29.4-0.6c-7.9-8.3-7.7-21.4,0.6-29.4
				c8.3-7.9,21.4-7.7,29.4,0.6c2.6,2.7,4.3,5.9,5.2,9.3"/>
			<path class="st14" d="M234.2,171.8c0.1,0.3,0.1,0.7,0.2,1"/>
		</g>
	</g>
	<g>
		<g>
			<path class="st14" d="M254.9,182.1c0,0.3-0.1,0.7-0.2,1"/>
			<path class="st16" d="M254.4,185.1c-1.7,7.7-5.7,15-11.8,20.8c-16.6,15.9-42.9,15.3-58.8-1.2c-15.9-16.6-15.3-42.9,1.2-58.7
				c16.6-15.9,42.9-15.3,58.8,1.2c6.5,6.8,10.2,15.2,11.3,23.8"/>
			<path class="st14" d="M255.2,172c0,0.3,0.1,0.7,0.1,1"/>
		</g>
	</g>
	<g>
		<g>
			<path class="st14" d="M275.8,182.4c0,0.3-0.1,0.7-0.1,1"/>
			<path class="st17" d="M275.4,185.3c-2,13.1-8.2,25.7-18.5,35.6c-24.9,23.8-64.3,23-88.2-1.8s-23-64.3,1.9-88.1
				c24.9-23.8,64.3-23,88.2,1.8c10.5,10.9,16.2,24.7,17.2,38.7"/>
			<path class="st14" d="M276.1,172.5c0,0.3,0,0.7,0,1"/>
		</g>
	</g>
	<g>
		<g>
			<path class="st14" d="M296.6,182.9c0,0.3-0.1,0.7-0.1,1"/>
			<path class="st18" d="M296.3,185.9c-2.2,18.4-10.6,36.2-25,50c-33.1,31.8-85.8,30.7-117.5-2.4c-31.8-33.1-30.7-85.7,2.5-117.5
				c33.1-31.8,85.8-30.7,117.5,2.4c14.5,15.1,22.1,34.2,23,53.5"/>
			<path class="st14" d="M296.9,173c0,0.3,0,0.7,0,1"/>
		</g>
	</g>
	<text transform="matrix(1 0 0 1 309.5501 178.9385)" class="st19 st20 st21">10</text>
	<text transform="matrix(1 0 0 1 232.0022 178.9385)" class="st19 st20 st21">2</text>
	<text transform="matrix(1 0 0 1 253.2307 178.9385)" class="st19 st20 st21">4</text>
	<text transform="matrix(1 0 0 1 274.4593 178.9385)" class="st19 st20 st21">6</text>
	<text transform="matrix(1 0 0 1 294.6634 178.9385)" class="st19 st20 st21">8</text>
</g>
<g id="Beschriftung">
	<text transform="matrix(1 0 0 1 313.0242 150.9355)" class="st22 st23">Energie</text>
	<text transform="matrix(1 0 0 1 277.1743 258.0281)"><tspan x="0" y="0" class="st22 st23">Landwirtschaft,  </tspan><tspan x="0" y="14" class="st22 st23">Natur &amp;  </tspan><tspan x="0" y="28" class="st22 st23">Ern채hrung</tspan></text>
	<text transform="matrix(1 0 0 1 218.0446 300.2815)" class="st22 st23">Verkehr</text>
	<text transform="matrix(1 0 0 1 62.2625 143.3671)"><tspan x="0" y="0" class="st22 st23">Geb채ude &amp; </tspan><tspan x="17.8" y="14" class="st22 st23">W채rme</tspan></text>
	<text transform="matrix(1 0 0 1 153.1291 40.5819)"><tspan x="0" y="0" class="st22 st23">Klimaschutz- </tspan><tspan x="0" y="14" class="st22 st23">management &amp;  </tspan><tspan x="0" y="28" class="st22 st23">Verwaltung</tspan></text>
	<g>
		<g>
			<g>
				<path class="st24" d="M132.3,113.5h-31.6c-0.4,0-0.7-0.3-0.7-0.7V91.8h-5.8c-0.3,0-0.6-0.2-0.7-0.5s-0.1-0.6,0.2-0.8L116,68.2
					c0.3-0.3,0.8-0.3,1,0l22.3,22.3c0.2,0.2,0.3,0.5,0.2,0.8s-0.4,0.5-0.7,0.5h-5.8v20.9C133.1,113.2,132.7,113.5,132.3,113.5z
					 M101.5,112h30.1V91.1c0-0.4,0.3-0.7,0.7-0.7h4.8l-20.5-20.5L96,90.4h4.8c0.4,0,0.7,0.3,0.7,0.7V112z"/>
			</g>
			<g>
				<path class="st24" d="M117.3,98.6V86c0-0.4-0.4-0.8-0.8-0.8s-0.8,0.4-0.8,0.8v12.6c-1.7,0.4-2.9,1.8-2.9,3.6
					c0,2,1.6,3.7,3.7,3.7s3.7-1.6,3.7-3.7C120.1,100.5,118.9,99,117.3,98.6z M119.1,102.2c0,1.5-1.2,2.6-2.6,2.6s-2.6-1.2-2.6-2.6
					s1.2-2.6,2.6-2.6S119.1,100.8,119.1,102.2z"/>
				<path class="st24" d="M118.9,96.6V82c0-1.3-1.1-2.4-2.4-2.4h-0.2c-1.3,0-2.4,1.1-2.4,2.4v14.7c-2.2,1-3.6,3.2-3.6,5.6
					c0,3.4,2.7,6.1,6.1,6.1s6.1-2.7,6.1-6.1C122.5,99.8,121.1,97.6,118.9,96.6z M116.4,107.3c-2.8,0-5.1-2.3-5.1-5.1
					c0-2.1,1.3-4,3.3-4.7l0.3-0.1V82c0-0.7,0.6-1.3,1.3-1.3h0.2c0.7,0,1.3,0.6,1.3,1.3v15.4l0.3,0.1c2,0.7,3.3,2.6,3.3,4.7
					C121.5,105,119.2,107.3,116.4,107.3z"/>
				<path class="st24" d="M119.5,82.4h1.2c0.2,0,0.3-0.1,0.3-0.3c0-0.2-0.1-0.3-0.3-0.3h-1.2c-0.2,0-0.3,0.1-0.3,0.3
					C119.2,82.3,119.4,82.4,119.5,82.4z"/>
				<path class="st24" d="M119.5,84.3h2.7c0.2,0,0.3-0.1,0.3-0.3c0-0.2-0.1-0.3-0.3-0.3h-2.7c-0.2,0-0.3,0.1-0.3,0.3
					C119.2,84.2,119.3,84.3,119.5,84.3z"/>
				<path class="st24" d="M120.8,85.6h-1.2c-0.2,0-0.3,0.1-0.3,0.3c0,0.2,0.1,0.3,0.3,0.3h1.2c0.2,0,0.3-0.1,0.3-0.3
					C121.1,85.8,120.9,85.6,120.8,85.6z"/>
				<path class="st24" d="M119.5,90h2.7c0.2,0,0.3-0.1,0.3-0.3s-0.1-0.3-0.3-0.3h-2.7c-0.2,0-0.3,0.1-0.3,0.3S119.3,90,119.5,90z"/>
				<path class="st24" d="M120.8,87.5h-1.2c-0.2,0-0.3,0.1-0.3,0.3s0.1,0.3,0.3,0.3h1.2c0.2,0,0.3-0.1,0.3-0.3
					S120.9,87.5,120.8,87.5z"/>
				<path class="st24" d="M120.8,93.2h-1.2c-0.2,0-0.3,0.1-0.3,0.3c0,0.2,0.1,0.3,0.3,0.3h1.2c0.2,0,0.3-0.1,0.3-0.3
					C121.1,93.3,120.9,93.2,120.8,93.2z"/>
				<path class="st24" d="M120.8,91.3h-1.2c-0.2,0-0.3,0.1-0.3,0.3c0,0.2,0.1,0.3,0.3,0.3h1.2c0.2,0,0.3-0.1,0.3-0.3
					C121.1,91.4,120.9,91.3,120.8,91.3z"/>
				<path class="st24" d="M119.5,95.6h2.7c0.2,0,0.3-0.1,0.3-0.3c0-0.2-0.1-0.3-0.3-0.3h-2.7c-0.2,0-0.3,0.1-0.3,0.3
					C119.2,95.5,119.3,95.6,119.5,95.6z"/>
			</g>
		</g>
	</g>
	<g>
		<g>
			<path class="st24" d="M86.2,193.7c-0.5,0.1-1.1,0.1-1.6,0.2c-2.1,0.5-3.4,2-3.5,3.9c0,0.6,0.2,0.9,0.7,0.9c0.5,0,0.7-0.3,0.8-0.9
				c0-1,0.5-1.8,1.4-2.2c1.7-0.7,3.4-0.8,5,0.5c0.7,0.5,1.3,1.1,1.9,1.7c1.5,1.2,3.2,1.7,5.1,1c0.5-0.2,0.7-0.5,0.5-0.9
				c-0.1-0.4-0.5-0.6-1-0.4c-1.5,0.5-2.8,0.1-3.9-0.9c-0.6-0.5-1.2-1.1-1.9-1.6C88.7,194.1,87.5,193.7,86.2,193.7z"/>
			<path class="st24" d="M86.2,193.7c1.3,0,2.5,0.4,3.5,1.2c0.6,0.5,1.3,1.1,1.9,1.6c1.1,1,2.4,1.4,3.9,0.9c0.5-0.2,0.9,0,1,0.4
				c0.1,0.4-0.1,0.7-0.5,0.9c-1.9,0.7-3.6,0.3-5.1-1c-0.7-0.5-1.3-1.1-1.9-1.7c-1.5-1.2-3.2-1.2-5-0.5c-0.9,0.4-1.4,1.2-1.4,2.2
				c0,0.6-0.3,0.9-0.8,0.9c-0.4,0-0.7-0.3-0.7-0.9c0-1.9,1.4-3.4,3.5-3.9C85.1,193.8,85.7,193.8,86.2,193.7z"/>
			<path class="st24" d="M114.6,233.7c0-0.4-0.3-0.7-0.8-0.7c-0.7,0-1.4,0-2.2,0c0-0.3,0-0.5,0-0.7c0-7.7,0-15.3,0-23
				c0-1-0.5-1.3-1.3-0.8c-3,1.6-6,3.2-9.1,4.8c-0.2,0.1-0.3,0.2-0.5,0.3c0-0.2,0-0.4,0-0.5c0-1.3,0-2.5,0-3.8c0-1-0.4-1.2-1.3-0.9
				c-2.4,1-4.8,1.9-7.2,2.9c-1.1,0.4-2.2,0.9-3.4,1.3c-0.3,0.1-0.6,0.4-0.5,0.8c0.1,0.2,0.3,0.5,0.6,0.6c0.1,0.1,0.4,0,0.6-0.1
				c3.1-1.2,6.1-2.4,9.1-3.7c0.2-0.1,0.4-0.1,0.6-0.2c0,1.5,0,2.9,0,4.3c0,1.1,0.4,1.4,1.4,0.8c2.6-1.4,5.1-2.7,7.7-4.1
				c0.6-0.3,1.2-0.6,1.8-1c0,7.6,0,15.2,0,22.7c-0.1,0-0.3,0-0.4,0c-6.8,0-13.7,0-20.5,0c-0.3,0-0.4-0.1-0.5-0.4
				c-0.3-1.6-0.6-3.3-0.8-4.9c-0.4-3.1-0.7-6.3-0.9-9.4c-0.3-3.3-0.4-6.7-0.6-10c-0.1-2.1-0.2-4.3-0.3-6.4c0-0.5-0.3-0.8-0.8-0.8
				c-2.4,0-4.8,0-7.2,0c-0.5,0-0.7,0.3-0.8,0.7c0,0.4-0.1,0.9-0.1,1.3c-0.2,3.2-0.4,6.5-0.7,9.7c-0.3,3.5-0.5,6.9-0.9,10.4
				c-0.3,3.1-0.7,6.3-1.1,9.4c0,0.3-0.1,0.4-0.4,0.4c-0.4,0-0.9,0-1.3,0c-0.4,0-0.7,0.3-0.7,0.7c0,0.4,0.3,0.7,0.7,0.7
				c0.2,0,0.3,0,0.5,0c13.3,0,26.6,0,39.9,0c0.2,0,0.3,0,0.5,0C114.4,234.4,114.6,234.1,114.6,233.7z M76.2,233
				c1.4-10.1,2-20.3,2.7-30.5c2,0,3.9,0,5.9,0c0,0.7,0,1.4,0,2.2c-0.4,0-0.8,0-1.2,0c-0.8,0-1.6,0-2.4,0c-0.5,0-0.8,0.3-0.8,0.7
				c0,0.4,0.3,0.7,0.8,0.7c1.1,0,2.1,0,3.2,0c0.2,0,0.3,0,0.5,0c0.5,9,0.9,18,2.5,26.9C83.7,233,79.9,233,76.2,233z"/>
			<rect x="91.6" y="217.1" class="st24" width="5.6" height="5.6"/>
			<rect x="101.7" y="217.1" class="st24" width="5.6" height="5.6"/>
			<rect x="91.6" y="224.1" class="st24" width="5.6" height="5.6"/>
			<rect x="101.7" y="224.1" class="st24" width="5.6" height="5.6"/>
		</g>
	</g>
	<g>
		<g>
			<path class="st24" d="M337.6,210c-3,1.7-5.7,4.9-5.7,7c-0.1,0.1-0.2,0.1-0.3,0.2l-0.3-2.9c0,0,0,0,0,0c0.2-0.9,0.4-1.7,0.6-2.6
				c2-0.6,4.3-4.1,5-7.5c0.8-3.9-2.3-9.3-2.3-9.3s-5.1,3.7-5.9,7.6c-0.7,3.4,0,7.7,1.6,9c-0.1,0.7-0.7,2.3-0.7,2.3l0.4,3.8
				c-0.2-0.1-0.4-0.3-0.7-0.4c0-2.1-2.7-5.3-5.7-7c-3.5-1.9-9.6-0.5-9.6-0.5s2,6,5.5,7.9c3,1.7,7.3,2.3,9,1.1
				c0.5,0.3,1.1,0.6,1.6,0.9c0,0,0,0.1,0.1,0.1l0.7,6.7l1.7-0.2l-0.8-7c0.3-0.2,0.6-0.3,0.9-0.5c1.7,1.1,6,0.6,9-1.1
				c3.5-1.9,5.5-7.9,5.5-7.9S341.1,208,337.6,210z M320.7,213.4l6.5,3.9c-1.2,0.9-4.5,0.4-6.9-0.9c-2.6-1.5-4.2-5.9-4.2-5.9
				s4.6-1,7.2,0.5c2.3,1.3,4.4,3.8,4.4,5.3l-6.5-3.9c-0.2-0.1-0.6-0.1-0.7,0.2C320.3,212.9,320.4,213.3,320.7,213.4z M329.7,202.8
				c0.6-3,4.4-5.8,4.4-5.8s2.3,4.1,1.6,7.1c-0.6,2.6-2.3,5.3-3.8,5.7l1.8-7.3c0.1-0.3-0.1-0.6-0.4-0.6c-0.3-0.1-0.6,0.1-0.6,0.4
				l-1.9,7.4C329.7,208.8,329.2,205.5,329.7,202.8z M340.9,216.5c-2.4,1.3-5.7,1.8-6.9,0.9l6.5-3.9c0.3-0.2,0.3-0.5,0.2-0.7
				c-0.2-0.3-0.5-0.3-0.7-0.2l-6.5,3.9c0-1.5,2.1-4,4.4-5.3c2.6-1.5,7.2-0.5,7.2-0.5S343.5,215,340.9,216.5z"/>
			<path class="st25" d="M357.1,235.4c-1.9-2.1-3.7-4.2-5.6-6.2c-1-1.4-1.3-3.1-3.2-3.7c0.4-0.9,1.6-1.3,1.9-2.2
				c0.1-1.8,0.1-3.6,0.2-5.4c-0.1,0-0.2,0-0.3,0c-0.1,0.8-0.4,1.2-0.6,1.8c-0.3,0.8-0.3,1.6-0.8,2.2c-0.8,1.2-3.1,1.5-4.3,2.4
				c-2.4,1.7-2.9,4.5-5.9,5.8c0.4,1.4,1.4,2.5,2.1,3.7c1,1.6,1.6,3.3,2.6,5c0.5,0.8,1.3,1.7,1.6,2.7c0.1,0,0.1,0,0.2,0
				c1.4-2.1,4.2-2,7.8-1.9c0.9,0,2.3,0.5,3,0C356.8,239,357.1,237,357.1,235.4z M345.4,238.8c-1-0.2-1.1-1.4-1.5-2.2
				c-0.7-1.4-2.1-4.5-3-5.6c0.3-2.5,2.9-2.7,4.6-3.9c0.8,0,1.6,0,2.4,0c2.4,2.3,4,5.7,6.9,7.5c0.2,1.1,0.3,2.3,0.5,3.4
				C352.2,238.9,347.4,236.9,345.4,238.8z M336.8,230.3c0.2,0,0.3,0,0.5,0c0.4,1.5,1.6,2.9,2.4,4.2c1,1.6,1.6,3.3,2.6,5
				c0.6,0.9,1.4,1.7,1.6,3c-0.6,0.5-0.8,1.5-1.6,1.9c0-0.1,0-0.1,0-0.2c-1.5-1.6-2.2-4-3.4-5.9c-1.4-2.2-3.5-4.8-4.3-7.4
				C335.2,230.9,336.3,230.7,336.8,230.3z M347.6,230.8c0.4,0,0.9,0,1.3,0c0.3,0.4,0.8,0.9,0.6,1.3c-0.2,0.1-0.4,0.1-0.8,0.2
				c-0.2-0.1-0.3-0.1-0.6-0.2c-0.3-0.3-0.6-0.6-1-1c0-0.1,0-0.1,0-0.2C347.5,230.9,347.5,230.9,347.6,230.8z"/>
		</g>
	</g>
	<path class="st24" d="M255,42.2c-4.4,0-8.1,3.6-8.1,8.1s3.6,8.1,8.1,8.1c4.4,0,8.1-3.6,8.1-8.1S259.5,42.2,255,42.2z M255,57.2
		c-3.9,0-7-3.1-7-7c0-3.9,3.1-7,7-7c3.9,0,7,3.1,7,7C262,54.1,258.9,57.2,255,57.2z M266,58c1.6-2.3,2.5-5,2.5-7.8
		c0-0.3,0.2-0.5,0.5-0.5c0.3,0,0.5,0.2,0.5,0.5c0,3-0.9,5.9-2.7,8.4c-0.1,0.1-0.3,0.2-0.4,0.2c-0.1,0-0.2,0-0.3-0.1
		C265.9,58.6,265.8,58.2,266,58z M264,60.3c0.2-0.2,0.6-0.2,0.8,0c0.2,0.2,0.2,0.6,0,0.8c-0.3,0.2-0.6,0.5-0.9,0.7
		c-0.1,0.1-0.2,0.1-0.3,0.1c-0.2,0-0.3-0.1-0.4-0.2c-0.2-0.2-0.1-0.6,0.1-0.8C263.4,60.7,263.7,60.5,264,60.3z M242.4,54.7
		c0.9,2.6,2.6,4.9,4.9,6.5c0.2,0.2,0.3,0.5,0.1,0.7c-0.1,0.1-0.3,0.2-0.4,0.2c-0.1,0-0.2,0-0.3-0.1c-2.5-1.8-4.3-4.2-5.3-7
		c-0.1-0.3,0-0.6,0.3-0.7C242,54.3,242.3,54.4,242.4,54.7z M241.1,50.1c0.3,0,0.5,0.2,0.6,0.5c0,0.3,0,0.7,0.1,1
		c0,0.3-0.2,0.6-0.5,0.6c0,0,0,0-0.1,0c-0.3,0-0.5-0.2-0.5-0.5c0-0.4-0.1-0.7-0.1-1.1C240.5,50.4,240.8,50.1,241.1,50.1z
		 M251.7,49.6c0.2-0.2,0.6-0.2,0.8,0l1.8,1.8l3.4-3.4c0.2-0.2,0.6-0.2,0.8,0c0.2,0.2,0.2,0.6,0,0.8l-3.8,3.8
		c-0.1,0.1-0.2,0.2-0.4,0.2s-0.3-0.1-0.4-0.2l-2.2-2.2C251.5,50.1,251.5,49.8,251.7,49.6z M255,30.3c-1.9,0-3.5-1.5-3.5-3.5
		c0-1.9,1.5-3.5,3.5-3.5s3.5,1.5,3.5,3.5C258.5,28.8,256.9,30.3,255,30.3z M255,24.5c-1.3,0-2.3,1-2.3,2.3s1,2.3,2.3,2.3
		s2.3-1,2.3-2.3S256.3,24.5,255,24.5z M262.1,37H248v-2.1c0-2.3,1.9-4.2,4.2-4.2h5.7c2.3,0,4.2,1.9,4.2,4.2V37z M249.1,35.9H261v-1
		c0-1.7-1.4-3.1-3.1-3.1h-5.7c-1.7,0-3.1,1.4-3.1,3.1V35.9z M255,69.5c-1.9,0-3.5-1.5-3.5-3.5c0-1.9,1.5-3.5,3.5-3.5
		s3.5,1.5,3.5,3.5C258.5,68,256.9,69.5,255,69.5z M255,63.7c-1.3,0-2.3,1-2.3,2.3s1,2.3,2.3,2.3s2.3-1,2.3-2.3S256.3,63.7,255,63.7z
		 M262.1,76.2H248v-2.1c0-2.3,1.9-4.2,4.2-4.2h5.7c2.3,0,4.2,1.9,4.2,4.2V76.2z M249.1,75.1H261v-1c0-1.7-1.4-3.1-3.1-3.1h-5.7
		c-1.7,0-3.1,1.4-3.1,3.1V75.1z M235.4,41.7c-1.9,0-3.5-1.5-3.5-3.5c0-1.9,1.5-3.5,3.5-3.5c1.9,0,3.5,1.5,3.5,3.5
		C238.8,40.1,237.3,41.7,235.4,41.7z M235.4,35.9c-1.3,0-2.3,1-2.3,2.3s1,2.3,2.3,2.3c1.3,0,2.3-1,2.3-2.3S236.7,35.9,235.4,35.9z
		 M242.5,48.4h-14.2v-2.1c0-2.3,1.9-4.2,4.2-4.2h5.7c2.3,0,4.2,1.9,4.2,4.2V48.4z M229.4,47.3h11.9v-1c0-1.7-1.4-3.1-3.1-3.1h-5.7
		c-1.7,0-3.1,1.4-3.1,3.1V47.3z M274.7,41.7c-1.9,0-3.5-1.5-3.5-3.5c0-1.9,1.5-3.5,3.5-3.5s3.5,1.5,3.5,3.5
		C278.2,40.1,276.6,41.7,274.7,41.7z M274.7,35.9c-1.3,0-2.3,1-2.3,2.3s1,2.3,2.3,2.3s2.3-1,2.3-2.3S276,35.9,274.7,35.9z
		 M281.8,48.4h-14.2v-2.1c0-2.3,1.9-4.2,4.2-4.2h5.7c2.3,0,4.2,1.9,4.2,4.2V48.4z M268.8,47.3h11.9v-1c0-1.7-1.4-3.1-3.1-3.1h-5.7
		c-1.7,0-3.1,1.4-3.1,3.1V47.3z"/>
	<g>
		<g>
			<g>
				<path class="st24" d="M179.6,278.5h-14.7c-0.3,0-0.5-0.2-0.5-0.5c0-0.3,0.2-0.5,0.5-0.5h14.7c0.3,0,0.5,0.2,0.5,0.5
					C180.2,278.3,179.9,278.5,179.6,278.5z"/>
			</g>
			<g>
				<path class="st24" d="M181.9,276.7h-13.2c-0.3,0-0.5-0.2-0.5-0.5c0-0.3,0.2-0.5,0.5-0.5h13.2c0.3,0,0.5,0.2,0.5,0.5
					C182.5,276.5,182.2,276.7,181.9,276.7z"/>
			</g>
		</g>
		<g>
			<g>
				<g>
					<g>
						<path class="st24" d="M189.3,292h-16.4c-1.1,0-2-0.9-2-2v-6.1c0-1.1,0.9-2,2-2h16.4c1.1,0,2,0.9,2,2v6.1
							C191.3,291.1,190.4,292,189.3,292z M172.9,283c-0.5,0-0.9,0.4-0.9,0.9v6.1c0,0.5,0.4,0.9,0.9,0.9h16.4c0.5,0,0.9-0.4,0.9-0.9
							v-6.1c0-0.5-0.4-0.9-0.9-0.9H172.9z"/>
					</g>
					<g>
						<path class="st24" d="M185.1,292c-0.3,0-0.5-0.2-0.5-0.5v-9c0-0.3,0.2-0.5,0.5-0.5s0.5,0.2,0.5,0.5v9
							C185.7,291.7,185.4,292,185.1,292z"/>
					</g>
					<g>
						<path class="st24" d="M176.5,292c-0.3,0-0.5-0.2-0.5-0.5v-9c0-0.3,0.2-0.5,0.5-0.5s0.5,0.2,0.5,0.5v9
							C177.1,291.7,176.8,292,176.5,292z"/>
					</g>
				</g>
				<g>
					<g>
						<path class="st24" d="M167.3,292h-4.8c-1.1,0-2.1-0.9-2.1-2.1V284c0-1.1,0.9-2.1,2.1-2.1h4.8c1.1,0,2.1,0.9,2.1,2.1v5.9
							C169.4,291,168.5,292,167.3,292z M162.5,283c-0.6,0-1,0.5-1,1v5.9c0,0.6,0.5,1,1,1h4.8c0.6,0,1-0.5,1-1V284c0-0.6-0.5-1-1-1
							H162.5z"/>
					</g>
					<g>
						<path class="st24" d="M164.9,292c-0.3,0-0.5-0.2-0.5-0.5v-9c0-0.3,0.2-0.5,0.5-0.5s0.5,0.2,0.5,0.5v9
							C165.5,291.7,165.2,292,164.9,292z"/>
					</g>
				</g>
			</g>
			<g>
				<g>
					<g>
						<path class="st24" d="M170.8,301.8c-1.8,0-3.3-1.2-3.3-2.6c0-0.3,0.2-0.5,0.5-0.5c0.3,0,0.5,0.2,0.5,0.5c0,0.8,1,1.5,2.3,1.5
							s2.3-0.7,2.3-1.5c0-0.3,0.2-0.5,0.5-0.5s0.5,0.2,0.5,0.5C174.1,300.7,172.6,301.8,170.8,301.8z"/>
					</g>
					<g>
						<path class="st24" d="M180.6,301.8c-1.8,0-3.3-1.2-3.3-2.6c0-0.3,0.2-0.5,0.5-0.5s0.5,0.2,0.5,0.5c0,0.8,1,1.5,2.3,1.5
							c1.2,0,2.3-0.7,2.3-1.5c0-0.3,0.2-0.5,0.5-0.5c0.3,0,0.5,0.2,0.5,0.5C184,300.7,182.5,301.8,180.6,301.8z"/>
					</g>
					<g>
						<path class="st24" d="M190.4,301.8c-1.8,0-3.3-1.2-3.3-2.6c0-0.3,0.2-0.5,0.5-0.5s0.5,0.2,0.5,0.5c0,0.8,1,1.5,2.3,1.5
							c1.2,0,2.3-0.7,2.3-1.5c0-0.3,0.2-0.5,0.5-0.5s0.5,0.2,0.5,0.5C193.8,300.7,192.3,301.8,190.4,301.8z"/>
					</g>
				</g>
				<g>
					<g>
						<path class="st24" d="M208.6,297.4l-47.6-0.1c-0.3,0-0.5-0.2-0.5-0.5c0-0.3,0.2-0.5,0.5-0.5c0,0,0,0,0,0l47.6,0.1
							c1.5,0,2.8-0.9,2.8-1.9v-0.9c0-3.4-1.8-6.6-5.2-9c-3.4-2.5-7.9-3.8-12.7-3.8l-32.6,0.2c0,0,0,0,0,0c-0.3,0-0.5-0.2-0.5-0.5
							c0-0.3,0.2-0.5,0.5-0.5l32.6-0.2c10.4,0,18.9,6.2,18.9,13.9v0.9C212.5,296.1,210.7,297.4,208.6,297.4z"/>
					</g>
					<g>
						<path class="st24" d="M208.2,292h-8.9c-3.2,0-5.8-1.9-5.8-4.3v-7.5c0-0.3,0.2-0.5,0.5-0.5c0.3,0,0.5,0.2,0.5,0.5v7.5
							c0,1.8,2.1,3.3,4.7,3.3h8.9c0.3,0,0.5,0.2,0.5,0.5C208.8,291.7,208.5,292,208.2,292z"/>
					</g>
					<g>
						<path class="st24" d="M207.6,299.8l-46.7,0c-0.3,0-0.5-0.2-0.5-0.5s0.2-0.5,0.5-0.5h0l46.7,0c0.7,0,1.1-0.3,1.1-0.4v-1.5
							c0-0.3,0.2-0.5,0.5-0.5c0.3,0,0.5,0.2,0.5,0.5v1.5C209.8,299.1,208.8,299.8,207.6,299.8z"/>
					</g>
					<g>
						<path class="st24" d="M211.9,295.4h-0.6c-2.2,0-3.9-1.3-3.9-3c0-1.7,1.7-3,3.8-3c0,0,0,0,0,0c0.3,0,0.5,0.2,0.5,0.5
							c0,0.3-0.2,0.5-0.5,0.5c-1.5,0-2.8,0.9-2.8,1.9c0,1,1.3,1.9,2.9,1.9h0.6c0.3,0,0.5,0.2,0.5,0.5
							C212.5,295.1,212.2,295.4,211.9,295.4z"/>
					</g>
					<g>
						<path class="st24" d="M208.3,294H161c-0.3,0-0.5-0.2-0.5-0.5s0.2-0.5,0.5-0.5h47.4c0.3,0,0.5,0.2,0.5,0.5S208.6,294,208.3,294
							z"/>
					</g>
				</g>
			</g>
		</g>
	</g>
	<g>
		<g>
			<path class="st24" d="M333.4,95.2c0.8-0.5,1.5-1.2,2.1-2l2.4,1.4c0.1,0.1,0.2,0.1,0.4,0.1c0.3,0,0.5-0.1,0.6-0.4
				c0.2-0.4,0.1-0.8-0.3-1l-2.4-1.4c0.4-0.9,0.7-1.8,0.8-2.8h2.7c0.4,0,0.7-0.3,0.7-0.7c0-0.4-0.3-0.7-0.7-0.7h-2.6
				c-0.1-1-0.3-2-0.7-2.9l2.2-1.3c0.4-0.2,0.5-0.7,0.3-1c-0.2-0.4-0.7-0.5-1-0.3l-2.2,1.3c-0.6-0.8-1.3-1.6-2.1-2.2l1.2-2.2
				c0.2-0.4,0.1-0.8-0.3-1c-0.4-0.2-0.8-0.1-1,0.3l-1.2,2.1c-0.9-0.4-1.9-0.7-3-0.8v-2.5c0-0.4-0.3-0.7-0.7-0.7s-0.7,0.3-0.7,0.7
				v2.5c-1.1,0.1-2.1,0.4-3,0.8l-1.2-2.1c-0.2-0.4-0.7-0.5-1-0.3c-0.4,0.2-0.5,0.7-0.3,1l1.2,2.2c-0.8,0.6-1.5,1.3-2.1,2.2l-2.2-1.3
				c-0.4-0.2-0.8-0.1-1,0.3c-0.2,0.4-0.1,0.8,0.3,1l2.2,1.3c-0.4,0.9-0.6,1.9-0.7,2.9h-2.6c-0.4,0-0.7,0.3-0.7,0.7
				c0,0.4,0.3,0.7,0.7,0.7h2.7c0.1,1,0.4,2,0.8,2.8l-2.4,1.4c-0.4,0.2-0.5,0.7-0.3,1c0.1,0.2,0.4,0.4,0.6,0.4c0.1,0,0.3,0,0.4-0.1
				l2.4-1.4c0.6,0.8,1.3,1.5,2.1,2l-1.4,2.5c-0.2,0.4-0.1,0.8,0.3,1c0.1,0.1,0.2,0.1,0.4,0.1c0.3,0,0.5-0.1,0.6-0.4l1.4-2.5
				c0.9,0.4,1.8,0.6,2.8,0.7v2.9c0,0.4,0.3,0.7,0.7,0.7s0.7-0.3,0.7-0.7v-2.9c1-0.1,1.9-0.3,2.8-0.7l1.4,2.5
				c0.1,0.2,0.4,0.4,0.6,0.4c0.1,0,0.3,0,0.4-0.1c0.4-0.2,0.5-0.7,0.3-1L333.4,95.2z M321.6,88.2c0-3.9,3.2-7.1,7.1-7.1
				c3.9,0,7.1,3.2,7.1,7.1c0,3.9-3.2,7.1-7.1,7.1C324.7,95.2,321.6,92.1,321.6,88.2z"/>
			<path class="st24" d="M341.7,121.1c0-0.6-0.3-1.1-0.7-1.6c-0.5-0.8-1.2-1.4-2.1-1.8c-0.1,0-0.2-0.1-0.3-0.1
				c-0.1,0-0.2-0.1-0.3-0.1l-0.4-0.1c0,0-0.1,0-0.1,0c-0.1,0-0.1,0-0.2,0c-0.5,0-1-0.1-1.4-0.1c-2.7,0-5.5,0-8.2,0
				c-2.9,0-5.8,0-8.7,0c-0.1,0-0.1,0-0.2,0c0,0-0.1,0-0.1,0c-0.1,0-0.1,0-0.2,0c-0.1,0-0.2-0.1-0.4-0.1l-0.1-0.1c0,0,0,0-0.1-0.1
				c-1-0.4-1.7-1.1-2.2-2c-0.4-0.7-0.4-1.5-0.3-2.3c0,0,0-0.1,0-0.1c0.1-0.6,0.4-1.2,0.8-1.7c0.7-0.8,1.5-1.3,2.5-1.5
				c0.1-0.2,0.4-0.1,0.4,0c0.1,0,0.1,0,0.2,0c2.3,0,4.6,0,6.9,0c0.1,0,0.2,0,0.3,0l0.3,0c0,0,0,0,0.1,0c0,0,0.1,0,0.2,0
				c0.1,0.1,0.1,0.2,0.1,0.3c0.1,0.2,0.1,0.5,0.2,0.7c0.4,1,1.2,1.6,2.1,2.1c0,0,0.7,0.3,1.1,0.3c2,0,3.9,0,5.9,0
				c0.5,0,0.9-0.4,0.9-1c0-0.2,0-0.3,0-0.5c0,0,0-0.1,0.1-0.1c0,0,0,0,0,0h2.9v-1.8h-1.4c-0.5,0-1,0-1.5,0c-0.1-0.1-0.2-0.1-0.2-0.2
				c0-0.4,0-0.8,0-1.2c0-0.1,0.1-0.1,0.2-0.2h3v-1.8h-0.2c0,0,0,0,0,0c-0.1,0-0.2,0-0.3,0h-2.3c-0.2,0-0.3-0.1-0.3-0.4
				c0.1-0.8-0.5-1.1-1.1-1.1c-1.7,0-3.4,0-5,0c-0.2,0-0.4,0-0.6,0.1c-0.1,0-0.2,0-0.3,0.1c-0.1,0-0.1,0-0.2,0
				c-0.2,0.1-0.3,0.1-0.5,0.2c-0.1,0-0.2,0-0.3,0.1c-1.1,0.6-1.9,1.4-2.3,2.6c0,0.1-0.1,0.1-0.1,0.2c0,0-0.1,0-0.1,0
				c-2.2,0-4.4,0-6.6,0c-0.5,0-0.9,0-1.4,0c-0.1,0-0.2,0-0.3,0c0,0-0.1,0-0.1,0c-0.1,0-0.1,0-0.2,0c-0.1,0-0.2,0-0.3,0
				c0,0-0.1,0-0.1,0c-0.4,0.2-0.8,0.3-1.3,0.5c-0.8,0.4-1.5,1-2,1.7c-0.5,0.6-0.8,1.4-1,2.2c0,0.1-0.1,0.2-0.1,0.4
				c0,0.1,0,0.1,0,0.2c0,0.5,0,1,0,1.4l0,0.2c0,0.1,0.1,0.2,0.1,0.3c0.3,1.4,1.1,2.6,2.2,3.4c1.1,0.8,2.3,1.1,3.6,1.1
				c5.5,0,11,0,16.5,0c0.2,0,0.5,0,0.7,0c0.1-0.2,0.2-0.2,0.3,0.1c0.5,0,0.9,0.3,1.4,0.6c0.8,0.6,1.1,1.4,1.2,2.3
				c0.1,0.7-0.2,1.4-0.6,2c-0.5,0.7-1.3,1.2-2.1,1.3c-1.2,0.1-2.3,0-3.5,0c-1.1-1.9-5.4-3.6-9.1-3.6c-4.3,0-9.3,4.6-9.3,4.6
				s5,4.6,9.3,4.6c3.8,0,8.1-1.7,9.1-3.7c0.8,0,1.7,0,2.5,0c1.1,0,2.2-0.2,3.2-0.9c1.2-0.8,1.8-1.9,2.1-3.2c0-0.1,0-0.2,0-0.3
				c0-0.3,0-0.5,0-0.8C341.8,121.6,341.7,121.3,341.7,121.1z M329.2,108.1c0-0.1,0.1-0.2,0.1-0.4c0,0,0-0.1,0-0.1
				c0-0.1,0.1-0.2,0.1-0.3c0.5-0.9,1.3-1.3,2.3-1.3c1.3,0,2.7,0,4,0c0.1,0,0.2,0,0.3,0c0,0.1,0.1,0.2,0.1,0.3c0,1.4,0,2.7,0,4.1
				c0,0.2,0,0.3-0.3,0.3c0,0-0.1,0-0.1,0c-1.5,0-3,0-4.6,0c-0.1,0-0.1,0-0.2,0c-0.6-0.2-1.1-0.6-1.4-1.2c0,0,0,0-0.1-0.1
				c-0.1-0.2-0.1-0.3-0.2-0.5c0-0.1,0-0.2-0.1-0.4C329.2,108.5,329.2,108.3,329.2,108.1z M325.2,129.5c-3.3,0-7.1-3.3-7.1-3.3
				s3.8-3.3,7.1-3.3c2.8,0,6.1,1.2,6.9,2.7l-8.1-0.3c-0.3,0-0.6,0.2-0.6,0.6c0,0.3,0.2,0.6,0.6,0.6l8.2,0.3
				C331.5,128.2,328.1,129.5,325.2,129.5z"/>
		</g>
		<path class="st24" d="M296,80.5l0.6,1.6l10.5,6.1l1.1-1.9l-7.8-7.4l-0.3-0.3l-0.4,0.1c-0.8,0.2-2.1,0.4-2.6,0.2l-0.5-0.3
			c0-1.2-0.9-2.3-2.1-2.5l1.4-1.7l0-12.1h-2.2l-2.5,10.5l-0.1,0.4l0.3,0.3c0.6,0.5,1.4,1.6,1.4,2.1v0.7h0.1c-1,0.4-1.7,1.3-1.7,2.5
			c0,0.1,0,0.3,0,0.4l-2.3-0.4l-10.5,6l1.1,1.9l10.3-3.1l0.4-0.1l0.1-0.4c0.2-0.8,0.7-2,1.1-2.3l0.5-0.3c0.1,0.1,0.2,0.2,0.3,0.3
			v18.5H290l-2.7,3.1H300l-2.4-3.1h-2.1V80.9C295.7,80.8,295.8,80.7,296,80.5z M299.6,80.3l5.9,5.5l-7.9-4.6l-0.3-0.8
			C298.2,80.6,299.1,80.4,299.6,80.3z M289.1,82.4l-7.7,2.3l7.9-4.5l0.8,0.1C289.6,81,289.3,81.9,289.1,82.4z M292.7,72.8l1.9-7.9
			l0,9.1l-0.5,0.6C293.8,74.2,293.4,73.6,292.7,72.8z M293.9,77.5c0.7,0,1.3,0.6,1.3,1.3c0,0.7-0.6,1.3-1.3,1.3s-1.3-0.6-1.3-1.3
			C292.7,78.1,293.2,77.5,293.9,77.5z M297,100.7l0.3,0.4h-7l0.3-0.4h3V81.5h0.6v19.2H297z"/>
	</g>
	<g>
		<path class="st24" d="M220.6,326.5C220.6,326.5,220.6,326.5,220.6,326.5C220.6,326.5,220.6,326.5,220.6,326.5
			C220.6,326.5,220.6,326.5,220.6,326.5C220.6,326.4,220.6,326.4,220.6,326.5C220.6,326.4,220.6,326.4,220.6,326.5
			C220.6,326.4,220.6,326.4,220.6,326.5C220.6,326.4,220.6,326.4,220.6,326.5l5.2-7.4l4.2,7.3c0.1,0.2,0.3,0.3,0.6,0.3
			c0.1,0,0.2,0,0.3-0.1c0.3-0.2,0.4-0.6,0.2-0.9l-6.4-11.1l2.1-0.8c0.1-0.1,0.3,0,0.4,0c0.1,0.1,0.2,0.2,0.3,0.3
			c0.1,0.2,0,0.5-0.2,0.6l-0.3,0.1c-0.3,0.2-0.4,0.6-0.3,0.9c0.2,0.3,0.6,0.4,0.9,0.3l0.3-0.1c0.8-0.4,1.1-1.3,0.9-2.1
			c-0.1-0.5-0.5-0.9-0.9-1.1c-0.4-0.2-1-0.2-1.4-0.1l-2.8,1.1c-0.2,0.1-0.3,0.2-0.4,0.4c-0.1,0.2,0,0.4,0,0.5l1.7,2.9l-7.1,1.6
			l-0.9-2h0.6c0.4,0,0.6-0.3,0.6-0.6c0-0.4-0.3-0.6-0.6-0.6H214c-0.4,0-0.6,0.3-0.6,0.6c0,0.4,0.3,0.6,0.6,0.6h1.5l1.2,2.6l-1.8,1.8
			c-1-0.8-2.3-1.3-3.6-1.3c-3.2,0-5.9,2.6-5.9,5.9c0,3.2,2.6,5.9,5.9,5.9c3,0,5.5-2.3,5.8-5.2l3.1,0c0,0,0,0,0,0c0,0,0.1,0,0.1,0
			c0,0,0,0,0,0c0,0,0,0,0,0c0,0,0.1,0,0.1,0c0,0,0,0,0,0c0,0,0,0,0,0c0,0,0,0,0,0c0,0,0,0,0,0c0,0,0,0,0,0c0,0,0,0,0,0c0,0,0,0,0,0
			c0,0,0,0,0,0c0,0,0,0,0,0c0,0,0,0,0,0c0,0,0,0,0,0c0,0,0,0,0,0C220.5,326.6,220.5,326.6,220.6,326.5
			C220.5,326.6,220.5,326.6,220.6,326.5C220.5,326.6,220.5,326.6,220.6,326.5C220.5,326.6,220.5,326.5,220.6,326.5
			C220.5,326.5,220.5,326.5,220.6,326.5C220.5,326.5,220.5,326.5,220.6,326.5C220.5,326.5,220.5,326.5,220.6,326.5
			C220.5,326.5,220.5,326.5,220.6,326.5C220.5,326.5,220.5,326.5,220.6,326.5C220.5,326.5,220.5,326.5,220.6,326.5
			C220.5,326.5,220.5,326.5,220.6,326.5C220.5,326.5,220.5,326.5,220.6,326.5C220.5,326.5,220.5,326.5,220.6,326.5
			C220.6,326.5,220.6,326.5,220.6,326.5C220.6,326.5,220.6,326.5,220.6,326.5z M224.3,318.9l-4.1,5.8l-2-4.5L224.3,318.9z
			 M219.1,325.4l-2.1,0c-0.1-1.1-0.6-2.2-1.3-3l1.4-1.4L219.1,325.4z M214.8,323.3c0.5,0.6,0.8,1.3,0.9,2.1l-3,0L214.8,323.3z
			 M211.2,330.6c-2.5,0-4.6-2-4.6-4.6s2-4.6,4.6-4.6c1,0,2,0.3,2.7,0.9l-3.2,3.2c-0.2,0.3-0.2,0.7,0,0.9c0.1,0.1,0.3,0.2,0.5,0.2
			c0,0,0,0,0,0c0,0,0,0,0,0l4.5,0C215.4,328.9,213.5,330.6,211.2,330.6z"/>
		<path class="st24" d="M230.5,320.2c-0.1,0-0.3,0-0.4,0c-0.4,0-0.6,0.3-0.6,0.7c0,0.4,0.3,0.6,0.7,0.6c0.1,0,0.2,0,0.3,0
			c2.5,0,4.6,2,4.6,4.6s-2,4.6-4.6,4.6c-2.5,0-4.6-2-4.6-4.6c0-0.9,0.3-1.8,0.8-2.5c0.2-0.3,0.1-0.7-0.2-0.9
			c-0.3-0.2-0.7-0.1-0.9,0.2c-0.6,1-1,2.1-1,3.2c0,3.2,2.6,5.9,5.9,5.9s5.9-2.6,5.9-5.9C236.3,322.8,233.7,320.2,230.5,320.2z"/>
	</g>
	<path class="st24" d="M366.7,192.7c1-0.8,1.9-1.7,2.4-2.7c0.8-1.5,0.9-2.9,0.2-4c-0.6-1.1-1.9-1.7-3.6-1.8c-1.1,0-2.3,0.2-3.5,0.7
		c-0.4-3.2-2.2-5.6-4.5-5.6c-2.2,0-4.1,2.4-4.5,5.6c-1.2-0.5-2.4-0.7-3.5-0.7c-1.7,0-2.9,0.7-3.6,1.8s-0.6,2.5,0.2,4
		c0.5,1,1.4,1.9,2.4,2.7c-1,0.8-1.9,1.7-2.4,2.7c-0.8,1.5-0.9,2.9-0.2,4c0.6,1.1,1.9,1.7,3.6,1.8c1.1,0,2.3-0.2,3.5-0.7
		c0.4,3.2,2.2,5.6,4.5,5.6c2.2,0,4.1-2.4,4.5-5.6c1.2,0.5,2.4,0.7,3.5,0.7c1.7,0,2.9-0.7,3.6-1.8s0.6-2.5-0.2-4
		C368.6,194.4,367.8,193.5,366.7,192.7z M365.8,185.7c1.1,0,2,0.4,2.4,1.1c0.4,0.7,0.3,1.6-0.3,2.6c-0.5,0.9-1.4,1.8-2.4,2.5
		c-0.3-0.2-0.6-0.3-0.9-0.4c-0.4-1.4-1.2-2.7-2.3-3.6c0.1-0.4,0.1-0.8,0.1-1.3C363.5,186,364.7,185.7,365.8,185.7z M357.8,180.8
		c1.6,0,2.9,2.2,3.1,4.9c-0.4,0.2-0.8,0.5-1.2,0.8c-0.6-0.2-1.2-0.2-1.8-0.2c-0.7,0-1.3,0.1-1.9,0.3c-0.4-0.3-0.8-0.6-1.2-0.8
		C354.9,183,356.2,180.8,357.8,180.8z M347.7,189.3c-0.5-1-0.6-1.9-0.3-2.6c0.4-0.7,1.2-1,2.4-1.1c0,0,0.1,0,0.1,0
		c1,0,2.2,0.3,3.3,0.8c0,0.5,0,1,0.1,1.4c-1,0.9-1.8,2.1-2.2,3.4c-0.3,0.2-0.7,0.3-1,0.5C349.1,191.2,348.2,190.3,347.7,189.3z
		 M349.8,199.7c-1.1,0-2-0.4-2.4-1.1c-0.4-0.7-0.3-1.6,0.3-2.6c0.5-0.9,1.4-1.8,2.4-2.5c0.3,0.2,0.6,0.3,0.8,0.4
		c0.2,1.7,1,3.2,2.3,4.3c0,0.2,0,0.4,0,0.6C352.1,199.5,350.9,199.8,349.8,199.7z M357.8,204.6c-1.6,0-2.9-2.2-3.1-4.9
		c0.1-0.1,0.3-0.2,0.4-0.2c0.8,0.4,1.8,0.6,2.8,0.6c0.9,0,1.9-0.2,2.7-0.5c0.1,0.1,0.2,0.1,0.3,0.2
		C360.7,202.5,359.3,204.6,357.8,204.6z M368.1,198.7c-0.4,0.7-1.2,1-2.4,1.1c-1.1,0-2.3-0.3-3.4-0.8c0-0.2,0-0.3,0-0.5
		c1.3-1.1,2.2-2.7,2.4-4.5c0.2-0.1,0.5-0.2,0.7-0.4c1.1,0.7,1.9,1.6,2.4,2.5C368.4,197.1,368.5,198,368.1,198.7z"/>
	<path id="Pfad_252" class="st24" d="M189.2,328.7c0.1,0.1,0.2,0.1,0.2,0.2c0.3,0.3,0.7,0.5,1.2,0.4l0.1,0l3.2-3.8l1.3-3.2h0
		l2.4,2.2l1.4,4.9l1,0.4l1.2,0l0.9-0.6l0.4-0.8l-1.5-5.3l-0.1-0.1c-0.1-0.1-2.7-2.8-4-4c-0.1-0.4-0.1-0.8,0-1.2c0-0.3,0-0.6,0-0.8
		c0-0.1,0-0.2,0-0.3c0.6,0.9,1.5,1.5,2.5,2c0.6,0.3,1.4,0.4,2.1,0.3c0.3,0,0.6-0.1,1-0.3l0.1,0l0,0c0.5-0.5,0.6-1.2,0.1-1.8
		c0,0,0,0,0,0c-0.3-0.2-0.7-0.4-1-0.4c-0.4-0.1-0.8-0.2-1.2-0.3c-0.5-0.4-0.8-1-1-1.6c-0.1-0.3-0.3-0.7-0.5-1
		c-0.6-1-1.4-1.9-2.4-2.5c1-0.3,1.8-1.2,1.8-2.2c-0.1-1.4-1.2-2.4-2.6-2.3c-1.3,0.1-2.3,1.1-2.3,2.3c0,0.7,0.3,1.3,0.8,1.7
		c-0.3,0-0.7,0-1,0c-0.8,0-1.7,0.8-2.8,2.3c-0.5,0.7-0.9,1.4-1.3,2.1l0,0.1v4.2l0.1,0.1c0.1,0.1,0.4,0.5,1.4,0.6
		c0.4,0,0.7-0.1,1-0.3c0.1-0.1,0.1-0.1,0.1-0.2l-0.2,3.9c-0.4,0.5-2.3,3.4-2.6,4C188.3,328,188.8,328.4,189.2,328.7 M195.7,310.5
		c-0.9-0.1-1.5-0.9-1.5-1.7c0.1-0.9,0.9-1.5,1.7-1.5c0.8,0.1,1.5,0.8,1.5,1.6C197.4,309.8,196.6,310.5,195.7,310.5 M189.4,327.6
		c0.3-0.6,2.6-4,2.6-4l0.1-0.1l0.4-9.8l-1.5,2v3c0,0.1-0.1,0.3-0.1,0.4c-0.1,0.1-0.3,0.1-0.4,0.1c-0.2,0-0.5,0-0.7-0.2v-3.8
		c0.8-1.5,2.3-3.9,3.4-3.9c0.8,0,1.5,0.1,2.3,0.2h0c0.1,0,1.3,0.2,2.8,2.5c0.2,0.3,0.3,0.6,0.5,0.9c0.2,0.8,0.7,1.4,1.3,1.9
		c0.4,0.2,0.9,0.4,1.4,0.4c0.2,0,0.4,0.1,0.6,0.2c0.2,0.2,0.2,0.5,0,0.7c0,0,0,0,0,0c-0.2,0.1-0.4,0.1-0.7,0.2
		c-0.6,0.1-1.1,0-1.7-0.2l0,0c-0.9-0.4-1.6-1-2.2-1.8c-0.3-0.5-0.6-0.4-0.8-0.4c-0.4,0.2-0.7,0.7-0.6,1.2c0,0.2,0,0.5,0,0.7
		c-0.1,0.9-0.1,1.5,0.3,1.8c1.2,1.1,3.5,3.5,3.9,3.9l1.4,4.9l-0.2,0.4l-0.5,0.3H200l-0.5-0.2l-1.3-4.8l-2.6-2.4l-0.8-0.4l-1.5,3.8
		l-2.9,3.5c-0.2,0-0.3-0.1-0.4-0.2c-0.1-0.1-0.2-0.1-0.3-0.2C189.3,327.9,189.2,327.8,189.4,327.6"/>
	<text transform="matrix(1 0 0 1 103.4082 259.0278)"><tspan x="0" y="0" class="st22 st23">Industrie, </tspan><tspan x="-14.3" y="14" class="st22 st23">Wirtschaft &amp; </tspan><tspan x="5.3" y="28" class="st22 st23">Konsum</tspan></text>
</g>
</svg>
