<?xml version="1.0" encoding="UTF-8"?>
<svg id="Ebene_1" data-name="Ebene 1" xmlns="http://www.w3.org/2000/svg" viewBox="0 0 283.46 129.66">
  <defs>
    <style>
      .cls-1 {
        fill: #fd0;
      }

      .cls-2 {
        fill: #f39200;
      }

      .cls-3 {
        fill: #9d9d9c;
      }

      .cls-4 {
        fill: #afca0b;
      }

      .cls-5 {
        fill: #16bae7;
      }

      .cls-6 {
        fill: #1ea64a;
      }

      .cls-7 {
        fill: #1d1d1b;
      }
    </style>
  </defs>
  <g>
    <path class="cls-7" d="m103.81,87.6l-2.04,2.57v7.31h-5.17v-25.59h5.17v11.16l1.63-2.76,4.76-8.4h6.33l-7.33,11.25,7.45,14.34h-6.13l-4.68-9.88Z"/>
    <path class="cls-7" d="m121.49,97.48h-4.99v-27h4.99v27Z"/>
    <path class="cls-7" d="m125.34,73.54c0-.39.06-.74.19-1.06s.31-.6.54-.83.52-.42.85-.54.71-.19,1.12-.19.78.06,1.12.19.62.31.85.54.42.51.54.83.19.68.19,1.06-.06.74-.19,1.06-.31.6-.54.84-.52.42-.85.55-.71.19-1.12.19-.78-.06-1.12-.19-.62-.31-.85-.55-.42-.52-.54-.84-.19-.68-.19-1.06Zm5.22,23.94h-4.99v-19.02h4.99v19.02Z"/>
    <path class="cls-7" d="m139.09,78.46l.14,1.76c.53-.67,1.16-1.19,1.89-1.56s1.57-.55,2.52-.55c.88,0,1.67.21,2.36.62s1.25,1.06,1.66,1.95c.52-.81,1.16-1.44,1.92-1.89s1.68-.68,2.73-.68c.77,0,1.47.13,2.1.39s1.16.67,1.61,1.25.79,1.32,1.04,2.25.37,2.06.37,3.39v12.09h-4.97v-12.11c0-.63-.04-1.15-.13-1.55s-.22-.71-.4-.94-.39-.39-.63-.47-.53-.13-.84-.13c-.49,0-.91.15-1.25.46s-.62.72-.83,1.25c.01.13.02.26.03.4s0,.28,0,.42v12.67h-4.97v-12.08c0-.63-.04-1.15-.13-1.56s-.22-.72-.39-.96c-.17-.23-.38-.4-.63-.48s-.54-.13-.85-.13c-.46,0-.85.12-1.19.37s-.62.59-.85,1.02v13.82h-4.97v-19.02h4.66Z"/>
    <path class="cls-7" d="m170.15,97.48c-.09-.2-.17-.42-.24-.68s-.13-.52-.18-.8c-.38.52-.86.95-1.45,1.3s-1.32.53-2.17.53c-.77,0-1.5-.13-2.17-.4s-1.26-.65-1.76-1.14-.89-1.09-1.18-1.78-.43-1.48-.43-2.35c0-.96.16-1.83.47-2.61s.78-1.44,1.41-1.99,1.41-.96,2.36-1.26,2.05-.44,3.33-.44h1.35v-1.53c0-.86-.15-1.46-.44-1.81s-.72-.53-1.28-.53c-.64,0-1.12.19-1.42.57s-.45.92-.45,1.61h-4.97c0-.83.16-1.61.48-2.35s.79-1.37,1.4-1.92,1.34-.99,2.2-1.31,1.82-.48,2.9-.48c.95,0,1.82.12,2.62.36s1.49.62,2.07,1.12,1.04,1.16,1.37,1.95.49,1.74.49,2.86v8.44c0,.55.01,1.04.04,1.47s.07.81.13,1.16.13.66.22.93.19.54.31.78v.3h-5.01Zm-2.94-3.55c.55,0,1.02-.11,1.41-.33s.67-.49.86-.79v-3.96h-1.18c-.47,0-.87.08-1.21.23s-.62.36-.85.63-.4.59-.51.95-.17.75-.17,1.16c0,.69.14,1.22.43,1.57s.69.54,1.22.54Z"/>
    <path class="cls-7" d="m193,97.48h-15.08v-3.52l6.93-8.81c.49-.68.9-1.3,1.23-1.85s.59-1.07.79-1.54.34-.9.42-1.3.12-.79.12-1.16c0-1.14-.2-2.03-.59-2.67s-.96-.97-1.7-.97c-.45,0-.83.11-1.16.33s-.6.52-.83.9-.39.83-.49,1.36-.16,1.1-.16,1.71h-4.99c0-1.16.18-2.25.54-3.27s.87-1.91,1.53-2.67,1.47-1.37,2.43-1.81,2.03-.67,3.23-.67,2.21.17,3.1.5,1.65.81,2.26,1.43,1.07,1.38,1.38,2.29.47,1.92.47,3.04c0,.86-.11,1.68-.33,2.49s-.54,1.6-.96,2.4-.92,1.6-1.52,2.42-1.27,1.67-2.02,2.56l-3.29,4.69h8.7v4.13Z"/>
    <path class="cls-7" d="m211,86.9c0,1.92-.18,3.57-.54,4.95s-.87,2.51-1.53,3.39-1.44,1.54-2.35,1.96-1.91.63-3,.63-2.09-.21-3.01-.63-1.7-1.08-2.36-1.96-1.17-2.02-1.54-3.39-.55-3.03-.55-4.95v-4.46c0-1.91.18-3.55.54-4.93s.87-2.51,1.53-3.39,1.44-1.54,2.35-1.95,1.91-.62,3-.62,2.09.21,3.01.62,1.7,1.07,2.36,1.95,1.17,2.02,1.54,3.39.55,3.02.55,4.93v4.46Zm-4.99-5.19c0-1.12-.06-2.07-.18-2.84s-.28-1.39-.49-1.86-.47-.82-.77-1.03-.64-.32-1.02-.32-.71.11-1.02.32-.56.55-.77,1.03-.38,1.1-.49,1.86-.18,1.71-.18,2.84v5.87c0,1.14.06,2.09.18,2.87s.28,1.41.5,1.89.48.83.78,1.04.65.32,1.04.32.71-.11,1.01-.32.55-.56.76-1.04.37-1.11.48-1.89.17-1.74.17-2.87v-5.87Z"/>
    <path class="cls-7" d="m218.77,82.42h2.41c.91,0,1.58-.32,2.01-.96s.64-1.49.64-2.56c0-.47-.05-.9-.15-1.29s-.25-.73-.46-1.02-.46-.51-.76-.68-.66-.25-1.05-.25c-.32,0-.62.06-.91.19s-.54.32-.75.56-.38.54-.51.9-.19.75-.19,1.2h-4.97c0-1.05.19-2.01.56-2.87s.88-1.59,1.53-2.2,1.4-1.07,2.28-1.41,1.81-.5,2.82-.5c1.11,0,2.13.16,3.06.47s1.72.77,2.38,1.39,1.18,1.38,1.55,2.29.55,1.96.55,3.16c0,.56-.07,1.11-.22,1.64s-.36,1.04-.64,1.51-.62.91-1.03,1.32-.87.75-1.4,1.03c1.21.52,2.11,1.29,2.7,2.32s.89,2.25.89,3.66c0,1.2-.2,2.26-.61,3.2s-.96,1.73-1.66,2.36-1.54,1.12-2.5,1.46-2,.5-3.11.5c-.94,0-1.85-.15-2.73-.44s-1.67-.74-2.36-1.35-1.24-1.37-1.66-2.29-.63-2.01-.63-3.28h4.97c0,.47.06.9.19,1.29s.3.73.53,1.02.49.51.8.68.65.25,1.03.25c.43,0,.82-.08,1.16-.25s.63-.4.87-.7.42-.67.55-1.1.19-.91.19-1.43c0-1.35-.26-2.32-.78-2.91s-1.25-.89-2.19-.89h-2.41v-4.01Z"/>
    <path class="cls-7" d="m233.06,84.9l1.27-13.01h12.39v4.25h-8.31l-.46,5.48c.14-.09.31-.2.51-.31s.43-.22.69-.32.54-.18.83-.25.61-.1.94-.1c1.07,0,2.01.19,2.83.58s1.51.95,2.07,1.69.98,1.64,1.27,2.71.43,2.28.43,3.64c0,1.14-.15,2.22-.46,3.25s-.77,1.94-1.39,2.72-1.4,1.41-2.34,1.88-2.04.7-3.3.7c-.95,0-1.87-.17-2.76-.5s-1.68-.82-2.38-1.47-1.26-1.43-1.68-2.36-.64-1.98-.65-3.16h4.92c.08,1.07.35,1.89.79,2.48s1.02.88,1.72.88c.47,0,.87-.12,1.2-.37s.59-.58.8-1,.35-.92.44-1.49.13-1.2.13-1.86-.06-1.28-.18-1.83-.3-1.02-.55-1.41-.57-.69-.95-.91-.83-.33-1.36-.33c-.35,0-.66.04-.92.12s-.49.19-.69.32-.36.28-.5.45-.27.34-.39.52l-3.96-1.02Z"/>
    <path class="cls-3" d="m98.16,116.94h4.54v2.14h-7.12v-12.8h2.58v10.65Z"/>
    <path class="cls-3" d="m108.58,119.08c-.05-.1-.09-.21-.12-.34-.03-.13-.06-.26-.09-.4-.19.26-.43.47-.73.65s-.66.26-1.08.26c-.39,0-.75-.07-1.08-.2-.34-.13-.63-.33-.88-.57-.25-.25-.45-.54-.59-.89-.14-.35-.21-.74-.21-1.17,0-.48.08-.92.23-1.31.16-.39.39-.72.7-.99.31-.27.71-.48,1.18-.63s1.03-.22,1.67-.22h.68v-.76c0-.43-.07-.73-.22-.91s-.36-.26-.64-.26c-.32,0-.56.1-.71.29-.15.19-.22.46-.22.8h-2.49c0-.42.08-.81.24-1.17.16-.37.39-.69.7-.96s.67-.49,1.1-.65.91-.24,1.45-.24c.47,0,.91.06,1.31.18.4.12.74.31,1.04.56.29.26.52.58.69.98.16.39.25.87.25,1.43v4.22c0,.28,0,.52.02.73s.04.41.07.58.07.33.11.46c.04.14.1.27.15.39v.15h-2.5Zm-1.47-1.78c.28,0,.51-.06.7-.17s.34-.24.43-.4v-1.98h-.59c-.23,0-.44.04-.61.11s-.31.18-.43.32c-.11.13-.2.29-.25.47-.06.18-.08.38-.08.58,0,.35.07.61.21.79s.35.27.61.27Z"/>
    <path class="cls-3" d="m114.81,109.57l.07.94c.28-.36.6-.64.97-.83.37-.19.78-.29,1.24-.29.37,0,.71.06,1.02.19s.58.33.8.62.4.66.52,1.12.18,1.03.18,1.71v6.05h-2.5v-6.06c0-.3-.02-.56-.07-.76s-.12-.36-.21-.47-.2-.2-.34-.25-.29-.07-.47-.07c-.23,0-.44.06-.62.18s-.32.29-.44.51v6.91h-2.5v-9.51h2.34Z"/>
    <path class="cls-3" d="m121.06,114.04c0-1.56.26-2.72.79-3.49s1.29-1.15,2.3-1.15c.39,0,.73.08,1.03.25.3.17.57.4.8.7v-4.76h2.5v13.5h-2.26l-.11-.97c-.24.36-.52.64-.85.84-.33.2-.7.3-1.12.3-1.01,0-1.77-.39-2.3-1.17s-.79-1.92-.79-3.43v-.62Zm2.5.62c0,.44.02.82.06,1.13s.11.58.21.79.24.36.4.46c.17.1.38.14.63.14s.49-.06.67-.18.33-.28.45-.48v-4.34c-.12-.22-.27-.4-.45-.52-.19-.12-.4-.18-.66-.18s-.45.05-.62.15c-.17.1-.3.25-.41.46s-.18.47-.22.79c-.04.33-.07.71-.07,1.16v.62Z"/>
    <path class="cls-3" d="m139.14,118.21c-.25.33-.54.59-.88.77-.34.18-.74.27-1.19.27-.4,0-.76-.07-1.08-.2-.33-.13-.61-.34-.84-.62-.23-.28-.42-.65-.54-1.1-.13-.45-.19-.99-.19-1.61v-6.15h2.49v6.17c0,.52.08.89.25,1.11.17.22.39.33.67.33.3,0,.56-.07.76-.2.2-.13.36-.31.47-.54v-6.87h2.5v9.51h-2.34l-.07-.87Z"/>
    <path class="cls-3" d="m145.6,109.57l.07.94c.28-.36.6-.64.97-.83.37-.19.78-.29,1.24-.29.37,0,.71.06,1.02.19s.58.33.8.62.4.66.52,1.12.18,1.03.18,1.71v6.05h-2.5v-6.06c0-.3-.02-.56-.07-.76s-.12-.36-.21-.47-.2-.2-.34-.25-.29-.07-.47-.07c-.23,0-.44.06-.62.18s-.32.29-.44.51v6.91h-2.5v-9.51h2.34Z"/>
    <path class="cls-3" d="m151.85,114.04c0-1.56.26-2.72.79-3.49s1.29-1.15,2.3-1.15c.39,0,.73.08,1.03.25.3.17.57.4.8.7v-4.76h2.5v13.5h-2.26l-.11-.97c-.24.36-.52.64-.85.84-.33.2-.7.3-1.12.3-1.01,0-1.77-.39-2.3-1.17s-.79-1.92-.79-3.43v-.62Zm2.5.62c0,.44.02.82.06,1.13s.11.58.21.79.24.36.4.46c.17.1.38.14.63.14s.49-.06.67-.18.33-.28.45-.48v-4.34c-.12-.22-.27-.4-.45-.52-.19-.12-.4-.18-.66-.18s-.45.05-.62.15c-.17.1-.3.25-.41.46s-.18.47-.22.79c-.04.33-.07.71-.07,1.16v.62Z"/>
    <path class="cls-3" d="m170.78,115.72c0-.22-.02-.42-.06-.6s-.13-.34-.26-.5c-.13-.16-.32-.31-.56-.45-.24-.15-.57-.3-.97-.47-.48-.18-.94-.39-1.38-.62s-.82-.51-1.15-.83c-.33-.32-.6-.69-.79-1.11-.2-.42-.29-.91-.29-1.46s.1-1.02.3-1.46c.2-.44.48-.82.84-1.13.36-.31.79-.55,1.28-.72.49-.17,1.04-.26,1.64-.26s1.17.1,1.67.29c.49.2.92.47,1.27.82.35.35.62.77.8,1.25.19.48.28,1.02.28,1.6h-2.58c0-.27-.03-.52-.08-.74s-.14-.42-.26-.58-.27-.29-.46-.38c-.19-.09-.41-.14-.68-.14-.25,0-.46.04-.64.11s-.33.18-.44.31c-.12.13-.21.29-.26.47s-.09.38-.09.58.04.4.14.57c.09.17.22.33.39.47.17.15.37.28.61.41.24.13.5.25.79.38.6.22,1.12.46,1.56.72s.82.56,1.12.9.52.71.67,1.13c.15.42.22.89.22,1.42,0,.56-.09,1.06-.28,1.5-.18.44-.45.81-.79,1.11-.34.3-.76.53-1.24.69-.49.16-1.03.24-1.64.24-.55,0-1.09-.08-1.62-.25-.53-.17-1-.42-1.42-.77s-.75-.78-1.01-1.31c-.26-.53-.38-1.15-.38-1.88h2.59c0,.39.04.71.11.98s.19.49.35.66c.15.17.35.29.58.36.23.07.5.11.8.11.25,0,.46-.04.63-.11.17-.07.31-.17.42-.3.11-.12.19-.28.23-.45s.07-.37.07-.57Z"/>
    <path class="cls-3" d="m177.87,107.23v2.34h1.27v1.87h-1.27v4.72c0,.2.01.36.04.49.03.13.07.23.13.3.06.07.14.12.23.15.09.03.21.04.34.04.12,0,.24,0,.34-.02.1-.01.19-.03.25-.04l-.02,1.93c-.19.07-.39.13-.61.17-.22.04-.47.07-.76.07-.37,0-.7-.05-1-.15-.3-.1-.56-.27-.77-.49-.21-.22-.38-.52-.49-.87-.11-.36-.17-.79-.17-1.29v-5h-1.1v-1.87h1.1v-2.34h2.49Z"/>
    <path class="cls-3" d="m185.02,119.08c-.05-.1-.09-.21-.12-.34-.03-.13-.06-.26-.09-.4-.19.26-.43.47-.73.65s-.66.26-1.08.26c-.39,0-.75-.07-1.08-.2-.34-.13-.63-.33-.88-.57-.25-.25-.45-.54-.59-.89-.14-.35-.21-.74-.21-1.17,0-.48.08-.92.23-1.31.16-.39.39-.72.7-.99.31-.27.71-.48,1.18-.63s1.03-.22,1.67-.22h.68v-.76c0-.43-.07-.73-.22-.91s-.36-.26-.64-.26c-.32,0-.56.1-.71.29-.15.19-.22.46-.22.8h-2.49c0-.42.08-.81.24-1.17.16-.37.39-.69.7-.96s.67-.49,1.1-.65.91-.24,1.45-.24c.47,0,.91.06,1.31.18.4.12.74.31,1.04.56.29.26.52.58.69.98.16.39.25.87.25,1.43v4.22c0,.28,0,.52.02.73s.04.41.07.58.07.33.11.46c.04.14.1.27.15.39v.15h-2.5Zm-1.47-1.78c.28,0,.51-.06.7-.17s.34-.24.43-.4v-1.98h-.59c-.23,0-.44.04-.61.11s-.31.18-.43.32c-.11.13-.2.29-.25.47-.06.18-.08.38-.08.58,0,.35.07.61.21.79s.35.27.61.27Z"/>
    <path class="cls-3" d="m188.64,114.04c0-1.56.26-2.72.79-3.49s1.29-1.15,2.3-1.15c.39,0,.73.08,1.03.25.3.17.57.4.8.7v-4.76h2.5v13.5h-2.26l-.11-.97c-.24.36-.52.64-.85.84-.33.2-.7.3-1.12.3-1.01,0-1.77-.39-2.3-1.17s-.79-1.92-.79-3.43v-.62Zm2.5.62c0,.44.02.82.06,1.13s.11.58.21.79.24.36.4.46c.17.1.38.14.63.14s.49-.06.67-.18.33-.28.45-.48v-4.34c-.12-.22-.27-.4-.45-.52-.19-.12-.4-.18-.66-.18s-.45.05-.62.15c-.17.1-.3.25-.41.46s-.18.47-.22.79c-.04.33-.07.71-.07,1.16v.62Z"/>
    <path class="cls-3" d="m200.79,107.23v2.34h1.27v1.87h-1.27v4.72c0,.2.01.36.04.49.03.13.07.23.13.3.06.07.14.12.23.15.09.03.21.04.34.04.12,0,.24,0,.34-.02.1-.01.19-.03.25-.04l-.02,1.93c-.19.07-.39.13-.61.17-.22.04-.47.07-.76.07-.37,0-.7-.05-1-.15-.3-.1-.56-.27-.77-.49-.21-.22-.38-.52-.49-.87-.11-.36-.17-.79-.17-1.29v-5h-1.1v-1.87h1.1v-2.34h2.49Z"/>
    <path class="cls-3" d="m211.57,114.41h-1.28v4.68h-2.58v-12.8h4.12c.64,0,1.21.08,1.71.25.5.17.92.41,1.27.74.35.33.62.73.8,1.21.18.48.28,1.04.28,1.67,0,.46-.04.88-.13,1.25-.08.37-.21.7-.37.99-.16.29-.36.54-.58.76s-.49.4-.77.56l2.24,5.24v.12h-2.78l-1.92-4.68Zm-1.28-2.15h1.47c.52,0,.9-.17,1.16-.51.26-.34.39-.8.39-1.38,0-.29-.03-.56-.08-.79-.06-.24-.14-.44-.26-.61-.12-.17-.27-.29-.46-.39-.19-.09-.41-.14-.67-.14h-1.54v3.81Z"/>
    <path class="cls-3" d="m222.06,119.08c-.05-.1-.09-.21-.12-.34-.03-.13-.06-.26-.09-.4-.19.26-.43.47-.73.65s-.66.26-1.08.26c-.39,0-.75-.07-1.08-.2-.34-.13-.63-.33-.88-.57-.25-.25-.45-.54-.59-.89-.14-.35-.21-.74-.21-1.17,0-.48.08-.92.23-1.31.16-.39.39-.72.7-.99.31-.27.71-.48,1.18-.63s1.03-.22,1.67-.22h.68v-.76c0-.43-.07-.73-.22-.91s-.36-.26-.64-.26c-.32,0-.56.1-.71.29-.15.19-.22.46-.22.8h-2.49c0-.42.08-.81.24-1.17.16-.37.39-.69.7-.96s.67-.49,1.1-.65.91-.24,1.45-.24c.47,0,.91.06,1.31.18.4.12.74.31,1.04.56.29.26.52.58.69.98.16.39.25.87.25,1.43v4.22c0,.28,0,.52.02.73s.04.41.07.58.07.33.11.46c.04.14.1.27.15.39v.15h-2.5Zm-1.47-1.78c.28,0,.51-.06.7-.17s.34-.24.43-.4v-1.98h-.59c-.23,0-.44.04-.61.11s-.31.18-.43.32c-.11.13-.2.29-.25.47-.06.18-.08.38-.08.58,0,.35.07.61.21.79s.35.27.61.27Z"/>
    <path class="cls-3" d="m228.29,109.57l.07.94c.28-.36.6-.64.97-.83.37-.19.78-.29,1.24-.29.37,0,.71.06,1.02.19s.58.33.8.62.4.66.52,1.12.18,1.03.18,1.71v6.05h-2.5v-6.06c0-.3-.02-.56-.07-.76s-.12-.36-.21-.47-.2-.2-.34-.25-.29-.07-.47-.07c-.23,0-.44.06-.62.18s-.32.29-.44.51v6.91h-2.5v-9.51h2.34Z"/>
    <path class="cls-3" d="m238.03,115.42l-.67.75v2.92h-2.49v-13.5h2.49v7.29l.31-.46,1.72-2.85h2.96l-2.76,3.92,3.02,5.59h-2.85l-1.74-3.67Z"/>
    <path class="cls-3" d="m243.48,107.11c0-.19.03-.37.1-.53s.16-.3.27-.42.26-.21.43-.27c.17-.06.35-.1.56-.1s.39.03.56.1c.17.06.31.16.43.27s.21.26.27.42.1.34.1.53-.03.37-.1.53c-.06.16-.16.3-.27.42-.12.12-.26.21-.43.28-.17.06-.35.1-.56.1s-.39-.03-.56-.1c-.17-.06-.31-.16-.43-.28-.12-.12-.21-.26-.27-.42-.06-.16-.1-.34-.1-.53Zm2.61,11.97h-2.5v-9.51h2.5v9.51Z"/>
    <path class="cls-3" d="m250.3,109.57l.07.94c.28-.36.6-.64.97-.83.37-.19.78-.29,1.24-.29.37,0,.71.06,1.02.19s.58.33.8.62.4.66.52,1.12.18,1.03.18,1.71v6.05h-2.5v-6.06c0-.3-.02-.56-.07-.76s-.12-.36-.21-.47-.2-.2-.34-.25-.29-.07-.47-.07c-.23,0-.44.06-.62.18s-.32.29-.44.51v6.91h-2.5v-9.51h2.34Z"/>
    <path class="cls-3" d="m256.58,114.04c0-1.56.28-2.72.84-3.49s1.35-1.15,2.36-1.15c.46,0,.86.09,1.18.27.32.18.59.43.82.75l.1-.84h2.24v9.51c0,.65-.1,1.21-.29,1.68-.19.47-.46.86-.8,1.16s-.76.53-1.24.68c-.48.15-1.02.22-1.61.22-.22,0-.47-.02-.74-.07s-.54-.12-.81-.21-.53-.21-.77-.34c-.24-.14-.45-.3-.61-.49l.83-1.72c.11.12.24.23.4.33.15.1.32.19.49.26.17.07.35.13.54.18.19.04.37.07.54.07.25,0,.48-.03.67-.08.2-.06.36-.15.5-.29s.24-.31.3-.54.1-.5.1-.83v-.76c-.23.3-.49.53-.79.69-.3.16-.66.24-1.06.24-.5,0-.95-.1-1.35-.3-.4-.2-.73-.49-1-.88-.27-.39-.48-.87-.63-1.44-.15-.57-.22-1.23-.22-1.98v-.62Zm2.49.62c0,.88.11,1.52.34,1.92s.59.6,1.09.6c.27,0,.5-.05.68-.14.19-.1.34-.23.45-.41v-4.54c-.12-.19-.28-.34-.46-.45-.19-.11-.4-.16-.66-.16-.49,0-.86.2-1.09.61-.24.4-.36,1.05-.36,1.95v.62Z"/>
  </g>
  <g>
    <path class="cls-1" d="m76.86,23.93c0-9.16-8-16.61-16.61-16.61s-16.61,7.45-16.61,16.61c0,1.74-.44,3.6,2.08,9.97,1.38,3.46,14.53,26.58,14.53,26.58,0,0,13.12-23.01,14.53-26.58,2.52-6.37,2.08-8.22,2.08-9.97Zm-16.58,7.53c-3.93,0-7.14-3.24-7.14-7.25s3.18-7.25,7.14-7.25,7.14,3.24,7.14,7.25-3.21,7.25-7.14,7.25Z"/>
    <path class="cls-2" d="m101.63,58.49c7.94-4.58,10.38-15.23,6.08-22.69s-14.75-10.66-22.69-6.08c-1.51.87-3.34,1.42-7.59,6.78-2.3,2.93-15.75,25.87-15.75,25.87,0,0,26.48-.14,30.28-.7,6.77-1,8.16-2.31,9.67-3.18Zm-14.81-10.6c-1.97-3.4-.77-7.8,2.71-9.81s7.87-.87,9.85,2.56.77,7.8-2.71,9.81-7.89.85-9.85-2.56Z"/>
    <path class="cls-5" d="m43.64,102.71c0,9.16,8,16.61,16.61,16.61s16.61-7.45,16.61-16.61c0-1.74.44-3.6-2.08-9.97-1.38-3.46-14.53-26.58-14.53-26.58,0,0-13.12,23.01-14.53,26.58-2.52,6.37-2.08,8.22-2.08,9.97Zm16.58-7.53c3.93,0,7.14,3.24,7.14,7.25s-3.18,7.25-7.14,7.25-7.14-3.24-7.14-7.25,3.21-7.25,7.14-7.25Z"/>
    <path class="cls-4" d="m35.49,29.72c-7.94-4.58-18.39-1.38-22.69,6.08-4.3,7.46-1.86,18.11,6.08,22.69,1.51.87,2.9,2.18,9.67,3.18,3.69.53,30.28.7,30.28.7,0,0-13.36-22.87-15.75-25.87-4.25-5.37-6.08-5.91-7.59-6.78Zm-1.77,18.13c-1.97,3.4-6.38,4.57-9.85,2.56s-4.69-6.38-2.71-9.81,6.38-4.57,9.85-2.56,4.68,6.41,2.71,9.81Z"/>
    <path class="cls-6" d="m18.88,68.16c-7.94,4.58-10.38,15.23-6.08,22.69,4.3,7.46,14.75,10.66,22.69,6.08,1.51-.87,3.34-1.42,7.59-6.78,2.3-2.93,15.75-25.87,15.75-25.87,0,0-26.48.14-30.28.7-6.77,1-8.16,2.31-9.67,3.18Zm14.81,10.6c1.97,3.4.77,7.8-2.71,9.81s-7.87.87-9.85-2.56c-1.97-3.4-.77-7.8,2.71-9.81,3.48-2.01,7.89-.85,9.85,2.56Z"/>
  </g>
</svg>