<?xml version="1.0" encoding="UTF-8" standalone="no"?>
<!-- Generator: Adobe Illustrator 27.7.0, SVG Export Plug-In . SVG Version: 6.00 Build 0)  -->

<svg
   version="1.1"
   id="Ebene_1"
   x="0px"
   y="0px"
   viewBox="0 0 128 128"
   xml:space="preserve"
   sodipodi:docname="Stadt-Land-Klima-Blume.svg"
   inkscape:export-filename="Stadt-Land-Klima-Blume.png"
   inkscape:export-xdpi="384"
   inkscape:export-ydpi="384"
   inkscape:version="1.4.3 (0d15f75042, 2025-12-25)"
   width="128"
   height="128"
   xmlns:inkscape="http://www.inkscape.org/namespaces/inkscape"
   xmlns:sodipodi="http://sodipodi.sourceforge.net/DTD/sodipodi-0.dtd"
   xmlns="http://www.w3.org/2000/svg"
   xmlns:svg="http://www.w3.org/2000/svg"><defs
   id="defs22" /><sodipodi:namedview
   id="namedview22"
   pagecolor="#ffffff"
   bordercolor="#000000"
   borderopacity="0.25"
   inkscape:showpageshadow="2"
   inkscape:pageopacity="0.0"
   inkscape:pagecheckerboard="0"
   inkscape:deskcolor="#d1d1d1"
   inkscape:zoom="2.4168835"
   inkscape:cx="82.544318"
   inkscape:cy="56.477691"
   inkscape:window-width="1920"
   inkscape:window-height="1043"
   inkscape:window-x="0"
   inkscape:window-y="0"
   inkscape:window-maximized="1"
   inkscape:current-layer="Ebene_1" />
<style
   type="text/css"
   id="style1">
	.st0{fill:#FFDD00;}
	.st1{fill:#F39200;}
	.st2{fill:#16BAE7;}
	.st3{fill:#AFCA0B;}
	.st4{fill:#1EA64A;}
	.st5{fill:#010202;}
</style>
<g
   id="g6"
   transform="matrix(1.1071429,0,0,1.1071429,4.2816752,-2.7607169)">
	<g
   id="g1">
		<path
   class="st0"
   d="m 70.6,20.9 c 0,-9.2 -8,-16.6 -16.6,-16.6 -8.6,0 -16.6,7.4 -16.6,16.6 0,1.7 -0.4,3.6 2.1,10 1.4,3.5 14.5,26.6 14.5,26.6 0,0 13.1,-23 14.5,-26.6 2.5,-6.4 2.1,-8.2 2.1,-10 z M 54,28.5 c -3.9,0 -7.1,-3.2 -7.1,-7.3 0,-4 3.2,-7.3 7.1,-7.3 3.9,0 7.1,3.2 7.1,7.3 0,4 -3.2,7.3 -7.1,7.3 z"
   id="path1" />
	</g>
	<g
   id="g2">
		<path
   class="st1"
   d="m 95.3,55.5 c 7.9,-4.6 10.4,-15.2 6.1,-22.7 -4.3,-7.5 -14.8,-10.7 -22.7,-6.1 -1.5,0.9 -3.3,1.4 -7.6,6.8 -2.3,2.9 -15.7,25.9 -15.7,25.9 0,0 26.5,-0.1 30.3,-0.7 6.7,-1 8.1,-2.3 9.6,-3.2 z M 80.5,44.9 c -2,-3.4 -0.8,-7.8 2.7,-9.8 3.5,-2 7.9,-0.9 9.9,2.6 2,3.4 0.8,7.8 -2.7,9.8 -3.5,2 -7.9,0.8 -9.9,-2.6 z"
   id="path2" />
	</g>
	<g
   id="g3">
		<path
   class="st2"
   d="m 37.3,99.7 c 0,9.2 8,16.6 16.6,16.6 8.6,0 16.6,-7.4 16.6,-16.6 0,-1.7 0.4,-3.6 -2.1,-10 C 67,86.2 53.9,63.1 53.9,63.1 c 0,0 -13.1,23 -14.5,26.6 -2.5,6.4 -2.1,8.3 -2.1,10 z m 16.6,-7.5 c 3.9,0 7.1,3.2 7.1,7.3 0,4 -3.2,7.3 -7.1,7.3 -3.9,0 -7.1,-3.2 -7.1,-7.3 0,-4.1 3.2,-7.3 7.1,-7.3 z"
   id="path3" />
	</g>
	<g
   id="g4">
		<path
   class="st3"
   d="m 29.2,26.7 c -7.9,-4.6 -18.4,-1.4 -22.7,6.1 -4.3,7.5 -1.9,18.1 6.1,22.7 1.5,0.9 2.9,2.2 9.7,3.2 3.7,0.5 30.3,0.7 30.3,0.7 0,0 -13.4,-22.9 -15.8,-25.9 -4.3,-5.4 -6.1,-5.9 -7.6,-6.8 z m -1.8,18.2 c -2,3.4 -6.4,4.6 -9.9,2.6 -3.5,-2 -4.7,-6.4 -2.7,-9.8 2,-3.4 6.4,-4.6 9.9,-2.6 3.5,1.9 4.7,6.3 2.7,9.8 z"
   id="path4" />
	</g>
	<g
   id="g5">
		<path
   class="st4"
   d="m 12.6,65.2 c -8,4.5 -10.4,15.2 -6.1,22.7 4.3,7.5 14.8,10.7 22.7,6.1 1.5,-0.9 3.3,-1.4 7.6,-6.8 2.3,-2.9 15.7,-25.9 15.7,-25.9 0,0 -26.5,0.1 -30.3,0.7 -6.7,1 -8.1,2.3 -9.6,3.2 z m 14.8,10.6 c 2,3.4 0.8,7.8 -2.7,9.8 -3.5,2 -7.9,0.9 -9.9,-2.6 -2,-3.4 -0.8,-7.8 2.7,-9.8 3.5,-2 7.9,-0.8 9.9,2.6 z"
   id="path5" />
	</g>
</g>

</svg>
