<?xml version="1.0" encoding="utf-8"?>
<!-- Generator: Adobe Illustrator 27.7.0, SVG Export Plug-In . SVG Version: 6.00 Build 0)  -->
<svg version="1.1" id="Ebene_1" xmlns="http://www.w3.org/2000/svg" xmlns:xlink="http://www.w3.org/1999/xlink" x="0px" y="0px"
	 viewBox="0 0 322 121.6" style="enable-background:new 0 0 322 121.6;" xml:space="preserve">
<style type="text/css">
	.st0{fill:#010202;}
	.st1{fill:#FFDD00;}
	.st2{fill:#F39200;}
	.st3{fill:#16BAE7;}
	.st4{fill:#AFCA0B;}
	.st5{fill:#1EA64A;}
</style>
<path class="st0" d="M94.7,85.5c0-0.4,0-0.8-0.1-1.2s-0.3-0.7-0.5-1s-0.6-0.6-1.1-0.9s-1.1-0.6-1.9-0.9c-1-0.4-1.9-0.8-2.8-1.2
	s-1.6-1-2.3-1.7s-1.2-1.4-1.6-2.2s-0.6-1.8-0.6-2.9c0-1.1,0.2-2,0.6-2.9s1-1.6,1.7-2.3s1.6-1.1,2.6-1.5s2.1-0.5,3.3-0.5
	c1.2,0,2.3,0.2,3.3,0.6s1.8,0.9,2.5,1.6s1.2,1.5,1.6,2.5s0.6,2,0.6,3.2h-5.2c0-0.5-0.1-1-0.2-1.5s-0.3-0.8-0.5-1.2s-0.5-0.6-0.9-0.8
	s-0.8-0.3-1.4-0.3c-0.5,0-0.9,0.1-1.3,0.2s-0.7,0.4-0.9,0.6s-0.4,0.6-0.5,0.9s-0.2,0.8-0.2,1.2c0,0.4,0.1,0.8,0.3,1.1
	s0.4,0.7,0.8,0.9s0.7,0.6,1.2,0.8s1,0.5,1.6,0.8c1.2,0.4,2.2,0.9,3.1,1.4s1.6,1.1,2.2,1.8s1,1.4,1.3,2.3s0.4,1.8,0.4,2.8
	c0,1.1-0.2,2.1-0.6,3s-0.9,1.6-1.6,2.2s-1.5,1.1-2.5,1.4s-2.1,0.5-3.3,0.5c-1.1,0-2.2-0.2-3.2-0.5s-2-0.8-2.8-1.5s-1.5-1.6-2-2.6
	s-0.8-2.3-0.8-3.8h5.2c0,0.8,0.1,1.4,0.2,2s0.4,1,0.7,1.3s0.7,0.6,1.2,0.7s1,0.2,1.6,0.2c0.5,0,0.9-0.1,1.3-0.2s0.6-0.3,0.8-0.6
	s0.4-0.6,0.5-0.9S94.7,85.9,94.7,85.5z"/>
<path class="st0" d="M108.8,68.5v4.7h2.5v3.7h-2.5v9.4c0,0.4,0,0.7,0.1,1s0.1,0.5,0.3,0.6s0.3,0.2,0.5,0.3s0.4,0.1,0.7,0.1
	c0.2,0,0.5,0,0.7,0s0.4-0.1,0.5-0.1l0,3.9c-0.4,0.1-0.8,0.3-1.2,0.3s-0.9,0.1-1.5,0.1c-0.7,0-1.4-0.1-2-0.3s-1.1-0.5-1.5-1
	s-0.8-1-1-1.7s-0.3-1.6-0.3-2.6v-10h-2.2v-3.7h2.2v-4.7H108.8z"/>
<path class="st0" d="M123.1,92.2c-0.1-0.2-0.2-0.4-0.2-0.7s-0.1-0.5-0.2-0.8c-0.4,0.5-0.9,0.9-1.5,1.3s-1.3,0.5-2.2,0.5
	c-0.8,0-1.5-0.1-2.2-0.4s-1.3-0.7-1.8-1.1s-0.9-1.1-1.2-1.8s-0.4-1.5-0.4-2.3c0-1,0.2-1.8,0.5-2.6s0.8-1.4,1.4-2s1.4-1,2.4-1.3
	s2.1-0.4,3.3-0.4h1.4V79c0-0.9-0.1-1.5-0.4-1.8s-0.7-0.5-1.3-0.5c-0.6,0-1.1,0.2-1.4,0.6s-0.4,0.9-0.4,1.6h-5c0-0.8,0.2-1.6,0.5-2.3
	s0.8-1.4,1.4-1.9s1.3-1,2.2-1.3s1.8-0.5,2.9-0.5c0.9,0,1.8,0.1,2.6,0.4s1.5,0.6,2.1,1.1s1,1.2,1.4,2s0.5,1.7,0.5,2.9v8.4
	c0,0.6,0,1,0,1.5s0.1,0.8,0.1,1.2s0.1,0.7,0.2,0.9s0.2,0.5,0.3,0.8v0.3H123.1z M120.2,88.6c0.6,0,1-0.1,1.4-0.3s0.7-0.5,0.9-0.8v-4
	h-1.2c-0.5,0-0.9,0.1-1.2,0.2s-0.6,0.4-0.9,0.6s-0.4,0.6-0.5,0.9s-0.2,0.8-0.2,1.2c0,0.7,0.1,1.2,0.4,1.6S119.7,88.6,120.2,88.6z"/>
<path class="st0" d="M130.4,82.1c0-3.1,0.5-5.4,1.6-7s2.6-2.3,4.6-2.3c0.8,0,1.5,0.2,2.1,0.5s1.1,0.8,1.6,1.4v-9.5h5v27h-4.5
	l-0.2-1.9c-0.5,0.7-1,1.3-1.7,1.7s-1.4,0.6-2.2,0.6c-2,0-3.5-0.8-4.6-2.3s-1.6-3.8-1.6-6.9V82.1z M135.4,83.3c0,0.9,0,1.6,0.1,2.3
	s0.2,1.2,0.4,1.6s0.5,0.7,0.8,0.9s0.8,0.3,1.3,0.3c0.5,0,1-0.1,1.3-0.4s0.7-0.6,0.9-1v-8.7c-0.2-0.4-0.5-0.8-0.9-1S138.5,77,138,77
	c-0.5,0-0.9,0.1-1.2,0.3s-0.6,0.5-0.8,0.9s-0.4,0.9-0.4,1.6s-0.1,1.4-0.1,2.3V83.3z"/>
<path class="st0" d="M154.7,68.5v4.7h2.5v3.7h-2.5v9.4c0,0.4,0,0.7,0.1,1s0.1,0.5,0.3,0.6s0.3,0.2,0.5,0.3s0.4,0.1,0.7,0.1
	c0.2,0,0.5,0,0.7,0s0.4-0.1,0.5-0.1l0,3.9c-0.4,0.1-0.8,0.3-1.2,0.3s-0.9,0.1-1.5,0.1c-0.7,0-1.4-0.1-2-0.3s-1.1-0.5-1.5-1
	s-0.8-1-1-1.7s-0.3-1.6-0.3-2.6v-10h-2.2v-3.7h2.2v-4.7H154.7z"/>
<path class="st0" d="M170,87.9h7.1v4.3h-12.2V66.6h5.2V87.9z"/>
<path class="st0" d="M187.6,92.2c-0.1-0.2-0.2-0.4-0.2-0.7s-0.1-0.5-0.2-0.8c-0.4,0.5-0.9,0.9-1.5,1.3s-1.3,0.5-2.2,0.5
	c-0.8,0-1.5-0.1-2.2-0.4s-1.3-0.7-1.8-1.1s-0.9-1.1-1.2-1.8s-0.4-1.5-0.4-2.3c0-1,0.2-1.8,0.5-2.6s0.8-1.4,1.4-2s1.4-1,2.4-1.3
	s2.1-0.4,3.3-0.4h1.4V79c0-0.9-0.1-1.5-0.4-1.8s-0.7-0.5-1.3-0.5c-0.6,0-1.1,0.2-1.4,0.6s-0.4,0.9-0.4,1.6h-5c0-0.8,0.2-1.6,0.5-2.3
	s0.8-1.4,1.4-1.9s1.3-1,2.2-1.3s1.8-0.5,2.9-0.5c0.9,0,1.8,0.1,2.6,0.4s1.5,0.6,2.1,1.1s1,1.2,1.4,2s0.5,1.7,0.5,2.9v8.4
	c0,0.6,0,1,0,1.5s0.1,0.8,0.1,1.2s0.1,0.7,0.2,0.9s0.2,0.5,0.3,0.8v0.3H187.6z M184.7,88.6c0.6,0,1-0.1,1.4-0.3s0.7-0.5,0.9-0.8v-4
	h-1.2c-0.5,0-0.9,0.1-1.2,0.2s-0.6,0.4-0.9,0.6s-0.4,0.6-0.5,0.9s-0.2,0.8-0.2,1.2c0,0.7,0.1,1.2,0.4,1.6S184.2,88.6,184.7,88.6z"/>
<path class="st0" d="M200.1,73.2l0.1,1.9c0.6-0.7,1.2-1.3,1.9-1.7s1.6-0.6,2.5-0.6c0.7,0,1.4,0.1,2,0.4s1.2,0.7,1.6,1.2
	s0.8,1.3,1,2.2s0.4,2.1,0.4,3.4v12.1h-5V80.1c0-0.6,0-1.1-0.1-1.5s-0.2-0.7-0.4-0.9s-0.4-0.4-0.7-0.5s-0.6-0.1-0.9-0.1
	c-0.5,0-0.9,0.1-1.2,0.4s-0.6,0.6-0.9,1v13.8h-5v-19H200.1z"/>
<path class="st0" d="M212.6,82.1c0-3.1,0.5-5.4,1.6-7s2.6-2.3,4.6-2.3c0.8,0,1.5,0.2,2.1,0.5s1.1,0.8,1.6,1.4v-9.5h5v27h-4.5
	l-0.2-1.9c-0.5,0.7-1,1.3-1.7,1.7s-1.4,0.6-2.2,0.6c-2,0-3.5-0.8-4.6-2.3s-1.6-3.8-1.6-6.9V82.1z M217.6,83.3c0,0.9,0,1.6,0.1,2.3
	s0.2,1.2,0.4,1.6s0.5,0.7,0.8,0.9s0.8,0.3,1.3,0.3c0.5,0,1-0.1,1.3-0.4s0.7-0.6,0.9-1v-8.7c-0.2-0.4-0.5-0.8-0.9-1s-0.8-0.4-1.3-0.4
	c-0.5,0-0.9,0.1-1.2,0.3s-0.6,0.5-0.8,0.9s-0.4,0.9-0.4,1.6s-0.1,1.4-0.1,2.3V83.3z"/>
<path class="st0" d="M241.4,82.3l-2,2.6v7.3h-5.2V66.6h5.2v11.2L241,75l4.8-8.4h6.3l-7.3,11.2l7.5,14.3h-6.1L241.4,82.3z"/>
<path class="st0" d="M259.1,92.2h-5v-27h5V92.2z"/>
<path class="st0" d="M263,68.2c0-0.4,0.1-0.7,0.2-1.1s0.3-0.6,0.5-0.8s0.5-0.4,0.9-0.5s0.7-0.2,1.1-0.2s0.8,0.1,1.1,0.2
	s0.6,0.3,0.9,0.5s0.4,0.5,0.5,0.8s0.2,0.7,0.2,1.1s-0.1,0.7-0.2,1.1s-0.3,0.6-0.5,0.8s-0.5,0.4-0.9,0.6s-0.7,0.2-1.1,0.2
	s-0.8-0.1-1.1-0.2s-0.6-0.3-0.9-0.6s-0.4-0.5-0.5-0.8S263,68.6,263,68.2z M268.2,92.2h-5v-19h5V92.2z"/>
<path class="st0" d="M276.7,73.2l0.1,1.8c0.5-0.7,1.2-1.2,1.9-1.6s1.6-0.6,2.5-0.6c0.9,0,1.7,0.2,2.4,0.6s1.3,1.1,1.7,2
	c0.5-0.8,1.2-1.4,1.9-1.9s1.7-0.7,2.7-0.7c0.8,0,1.5,0.1,2.1,0.4s1.2,0.7,1.6,1.2s0.8,1.3,1,2.2s0.4,2.1,0.4,3.4v12.1h-5V80.1
	c0-0.6,0-1.1-0.1-1.5s-0.2-0.7-0.4-0.9s-0.4-0.4-0.6-0.5s-0.5-0.1-0.8-0.1c-0.5,0-0.9,0.2-1.2,0.5s-0.6,0.7-0.8,1.2
	c0,0.1,0,0.3,0,0.4s0,0.3,0,0.4v12.7h-5V80.1c0-0.6,0-1.2-0.1-1.6s-0.2-0.7-0.4-1s-0.4-0.4-0.6-0.5s-0.5-0.1-0.9-0.1
	c-0.5,0-0.9,0.1-1.2,0.4s-0.6,0.6-0.9,1v13.8h-5v-19H276.7z"/>
<path class="st0" d="M307.8,92.2c-0.1-0.2-0.2-0.4-0.2-0.7s-0.1-0.5-0.2-0.8c-0.4,0.5-0.9,0.9-1.5,1.3s-1.3,0.5-2.2,0.5
	c-0.8,0-1.5-0.1-2.2-0.4s-1.3-0.7-1.8-1.1s-0.9-1.1-1.2-1.8s-0.4-1.5-0.4-2.3c0-1,0.2-1.8,0.5-2.6s0.8-1.4,1.4-2s1.4-1,2.4-1.3
	s2.1-0.4,3.3-0.4h1.4V79c0-0.9-0.1-1.5-0.4-1.8s-0.7-0.5-1.3-0.5c-0.6,0-1.1,0.2-1.4,0.6s-0.4,0.9-0.4,1.6h-5c0-0.8,0.2-1.6,0.5-2.3
	s0.8-1.4,1.4-1.9s1.3-1,2.2-1.3s1.8-0.5,2.9-0.5c0.9,0,1.8,0.1,2.6,0.4s1.5,0.6,2.1,1.1s1,1.2,1.4,2s0.5,1.7,0.5,2.9v8.4
	c0,0.6,0,1,0,1.5s0.1,0.8,0.1,1.2s0.1,0.7,0.2,0.9s0.2,0.5,0.3,0.8v0.3H307.8z M304.9,88.6c0.6,0,1-0.1,1.4-0.3s0.7-0.5,0.9-0.8v-4
	h-1.2c-0.5,0-0.9,0.1-1.2,0.2s-0.6,0.4-0.9,0.6s-0.4,0.6-0.5,0.9s-0.2,0.8-0.2,1.2c0,0.7,0.1,1.2,0.4,1.6S304.3,88.6,304.9,88.6z"/>
<g>
	<g>
		<path class="st1" d="M70.6,20.9c0-9.2-8-16.6-16.6-16.6s-16.6,7.4-16.6,16.6c0,1.7-0.4,3.6,2.1,10c1.4,3.5,14.5,26.6,14.5,26.6
			s13.1-23,14.5-26.6C71,24.5,70.6,22.7,70.6,20.9z M54,28.5c-3.9,0-7.1-3.2-7.1-7.3c0-4,3.2-7.3,7.1-7.3c3.9,0,7.1,3.2,7.1,7.3
			C61.1,25.2,57.9,28.5,54,28.5z"/>
	</g>
	<g>
		<path class="st2" d="M95.3,55.5c7.9-4.6,10.4-15.2,6.1-22.7s-14.8-10.7-22.7-6.1c-1.5,0.9-3.3,1.4-7.6,6.8
			c-2.3,2.9-15.7,25.9-15.7,25.9s26.5-0.1,30.3-0.7C92.4,57.7,93.8,56.4,95.3,55.5z M80.5,44.9c-2-3.4-0.8-7.8,2.7-9.8
			c3.5-2,7.9-0.9,9.9,2.6c2,3.4,0.8,7.8-2.7,9.8C86.9,49.5,82.5,48.3,80.5,44.9z"/>
	</g>
	<g>
		<path class="st3" d="M37.3,99.7c0,9.2,8,16.6,16.6,16.6s16.6-7.4,16.6-16.6c0-1.7,0.4-3.6-2.1-10c-1.4-3.5-14.5-26.6-14.5-26.6
			s-13.1,23-14.5,26.6C36.9,96.1,37.3,98,37.3,99.7z M53.9,92.2c3.9,0,7.1,3.2,7.1,7.3c0,4-3.2,7.3-7.1,7.3c-3.9,0-7.1-3.2-7.1-7.3
			C46.8,95.4,50,92.2,53.9,92.2z"/>
	</g>
	<g>
		<path class="st4" d="M29.2,26.7c-7.9-4.6-18.4-1.4-22.7,6.1s-1.9,18.1,6.1,22.7c1.5,0.9,2.9,2.2,9.7,3.2
			c3.7,0.5,30.3,0.7,30.3,0.7S39.2,36.5,36.8,33.5C32.5,28.1,30.7,27.6,29.2,26.7z M27.4,44.9c-2,3.4-6.4,4.6-9.9,2.6
			c-3.5-2-4.7-6.4-2.7-9.8c2-3.4,6.4-4.6,9.9-2.6C28.2,37,29.4,41.4,27.4,44.9z"/>
	</g>
	<g>
		<path class="st5" d="M12.6,65.2C4.6,69.7,2.2,80.4,6.5,87.9c4.3,7.5,14.8,10.7,22.7,6.1c1.5-0.9,3.3-1.4,7.6-6.8
			c2.3-2.9,15.7-25.9,15.7-25.9S26,61.4,22.2,62C15.5,63,14.1,64.3,12.6,65.2z M27.4,75.8c2,3.4,0.8,7.8-2.7,9.8
			c-3.5,2-7.9,0.9-9.9-2.6c-2-3.4-0.8-7.8,2.7-9.8C21,71.2,25.4,72.4,27.4,75.8z"/>
	</g>
</g>
</svg>
