<?xml version="1.0" encoding="UTF-8"?>
<svg id="Ebene_2" data-name="Ebene 2" xmlns="http://www.w3.org/2000/svg" viewBox="0 0 90.81 90.81">
  <defs>
    <style>
      .cls-1 {
        fill: #fff;
      }

      .cls-2 {
        fill: #9d9d9c;
      }
    </style>
  </defs>
  <g id="Bewertunstorten">
    <g>
      <rect class="cls-2" width="90.81" height="90.81" rx="9.08" ry="9.08"/>
      <g>
        <path class="cls-1" d="M21.23,35.1c-4.42,0-8.04-3.64-8.04-8.16s3.58-8.16,8.04-8.16,8.04,3.64,8.04,8.16-3.61,8.16-8.04,8.16Z"/>
        <path class="cls-1" d="M21.23,54.79c-4.42,0-8.04-3.64-8.04-8.16s3.58-8.16,8.04-8.16,8.04,3.64,8.04,8.16-3.61,8.16-8.04,8.16Z"/>
        <path class="cls-1" d="M21.23,74.48c-4.42,0-8.04-3.64-8.04-8.16s3.58-8.16,8.04-8.16,8.04,3.64,8.04,8.16-3.61,8.16-8.04,8.16Z"/>
        <path class="cls-1" d="M77.39,27.37c0,1.15-.82,2.08-1.82,2.08h-40.16c-1,0-1.82-.94-1.82-2.08v-.85c0-1.15.82-2.08,1.82-2.08h40.16c1,0,1.82.94,1.82,2.08v.85Z"/>
        <path class="cls-1" d="M77.39,47.05c0,1.15-.82,2.08-1.82,2.08h-40.16c-1,0-1.82-.94-1.82-2.08v-.85c0-1.15.82-2.08,1.82-2.08h40.16c1,0,1.82.94,1.82,2.08v.85Z"/>
        <path class="cls-1" d="M77.39,66.74c0,1.15-.82,2.08-1.82,2.08h-40.16c-1,0-1.82-.94-1.82-2.08v-.85c0-1.15.82-2.08,1.82-2.08h40.16c1,0,1.82.94,1.82,2.08v.85Z"/>
      </g>
    </g>
  </g>
</svg>