<svg width="18" height="16" viewBox="0 0 18 16" fill="none" xmlns="http://www.w3.org/2000/svg">
<path d="M5.12187 4.27852C4.20312 3.34727 4.20312 1.83477 5.12187 0.903516C6.04062 -0.0277344 7.52812 -0.0277344 8.44687 0.903516L9 1.46602L9.55313 0.903516C10.4719 -0.0277344 11.9594 -0.0277344 12.8781 0.903516C13.7969 1.83477 13.7969 3.34727 12.8781 4.27852L9.70312 7.50352C9.50937 7.70039 9.25625 7.79727 9 7.79727C8.74375 7.79727 8.49063 7.70039 8.29688 7.50352L5.12187 4.27852ZM17.7563 10.5098C18.1656 11.066 18.0469 11.8473 17.4906 12.2566L13.5344 15.1723C12.8031 15.7098 11.9219 16.0004 11.0125 16.0004H1C0.446875 16.0004 0 15.5535 0 15.0004V13.0004C0 12.4473 0.446875 12.0004 1 12.0004H2.15L3.55312 10.8754C4.2625 10.3066 5.14375 10.0004 6.05312 10.0004H11C11.5531 10.0004 12 10.4473 12 11.0004C12 11.5535 11.5531 12.0004 11 12.0004H8.5C8.225 12.0004 8 12.2254 8 12.5004C8 12.7754 8.225 13.0004 8.5 13.0004H12.2688L16.0094 10.2441C16.5656 9.83477 17.3469 9.95352 17.7563 10.5098Z" fill="white"/>
</svg>
