<?xml version="1.0" encoding="UTF-8"?>
<svg id="Ebene_2" data-name="Ebene 2" xmlns="http://www.w3.org/2000/svg" viewBox="0 0 90.81 90.81">
  <defs>
    <style>
      .cls-1 {
        fill: #fff;
        fill-rule: evenodd;
      }

      .cls-2 {
        fill: #9d9d9c;
      }
    </style>
  </defs>
  <g id="Isolationsmodus">
    <g>
      <rect class="cls-2" width="90.81" height="90.81" rx="9.08" ry="9.08"/>
      <polygon class="cls-1" points="34.83 4.93 38.74 4.93 39.44 5.61 42.59 5.63 44.02 7.06 42.26 8.8 44.43 8.8 45.34 9.71 50.37 9.71 50.37 10.84 48.58 12.65 48.58 14.63 50.37 12.82 51.83 14.27 54.88 11.19 57.58 11.19 60.65 8.14 63.16 8.14 62.28 9.04 63.9 9.04 66.41 11.55 68.75 11.55 68.75 13.72 73.24 18.23 73.24 22.76 70.9 25.11 75.41 29.6 74.15 30.87 76.13 32.85 76.13 36.28 74.86 37.54 76.84 39.53 75.58 40.77 77.94 43.13 77.94 47.45 76.49 48.88 74.33 46.73 72.17 46.73 73.43 48 71.09 50.34 67.67 50.34 64.07 53.94 61.01 53.94 58.49 56.45 57.41 55.37 56.5 56.28 59.75 59.52 59.75 62.12 69.13 71.51 69.13 74.04 67.13 74.04 67.13 75.49 64.79 77.85 62.28 77.85 62.28 80.2 63.9 81.83 63.9 86.34 61.92 84.35 59.39 84.35 58.3 83.26 56.5 85.07 52.71 85.07 50.56 87.24 48.03 87.24 48.03 85.07 43.53 85.07 43.53 86.51 41.54 88.49 41.54 86.51 39.39 84.35 38.13 85.62 36.15 83.64 32.54 83.64 30.92 82.01 28.04 82.01 28.04 84.35 23.17 84.35 21.38 82.54 21.38 80.56 22.81 79.13 22.81 75.25 27.85 70.2 26.06 68.4 23.53 68.4 22.09 66.95 18.85 66.95 13.79 61.91 15.95 59.76 12.32 56.13 15.6 52.85 14.15 51.41 14.15 49.79 12.91 48.53 12.91 44.39 14.89 42.39 14.89 38.79 13.79 37.72 13.79 35.55 19.75 35.55 19.75 33.04 21.91 30.87 19.75 28.72 19.75 26.91 22.62 26.91 22.62 21.99 24.24 20.36 22.26 18.4 24.6 16.06 29.47 16.06 29.47 19.31 31.45 17.32 33.07 18.95 33.07 13.36 35.06 15.34 37.58 15.34 41.9 19.65 41.9 18.23 37.94 14.27 35.6 14.27 35.6 10.25 33.98 10.25 33.98 8.27 36.87 8.27 34.83 6.24 34.83 4.93 34.83 4.93"/>
      <polygon class="cls-1" points="64.79 5.92 64.79 9.04 66.05 10.31 67.14 9.21 68.39 10.31 68.39 7.92 66.41 5.92 64.79 5.92 64.79 5.92"/>
      <polygon class="cls-1" points="70.54 11.55 72.71 13.72 72.71 14.63 70.54 14.63 70.54 11.55 70.54 11.55"/>
      <path class="cls-2" d="M64.09,37.32c0-10.31-9-18.69-18.69-18.69s-18.69,8.38-18.69,18.69c0,1.96-.5,4.05,2.34,11.21,1.56,3.89,16.35,29.9,16.35,29.9,0,0,14.76-25.88,16.35-29.9,2.83-7.16,2.34-9.25,2.34-11.21ZM45.44,45.79c-4.42,0-8.04-3.64-8.04-8.16s3.58-8.16,8.04-8.16,8.04,3.64,8.04,8.16-3.61,8.16-8.04,8.16Z"/>
    </g>
  </g>
</svg>