<svg width="35" height="54" viewBox="0 0 35 54" fill="none" xmlns="http://www.w3.org/2000/svg">
<g id="Gruppe 3">
<path id="Pfad 6" d="M34.1346 17.514C34.1346 8.37716 26.1567 0.951477 17.5721 0.951477C8.98709 0.951477 1.00965 8.37716 1.00965 17.514C1.00965 19.253 0.567665 21.1028 3.07996 27.4515C4.45985 30.9022 17.5721 53.9515 17.5721 53.9515C17.5721 53.9515 30.6565 31.0124 32.0643 27.4515C34.5762 21.1028 34.1346 19.253 34.1346 17.514ZM17.5996 25.0225C13.68 25.0225 10.4777 21.7928 10.4777 17.7903C10.4777 13.8153 13.652 10.5577 17.5996 10.5577C21.5192 10.5577 24.7215 13.7874 24.7215 17.7903C24.7215 21.7928 21.5192 25.0225 17.5996 25.0225Z" fill="#339737"/>
</g>
</svg>
