<?xml version="1.0" encoding="UTF-8"?>
<svg id="Ebene_2" data-name="Ebene 2" xmlns="http://www.w3.org/2000/svg" viewBox="0 0 90.81 90.81">
  <defs>
    <style>
      .cls-1 {
        fill: #fff;
      }

      .cls-2 {
        fill: #9d9d9c;
      }
    </style>
  </defs>
  <g id="Beschriftung">
    <rect class="cls-2" width="90.81" height="90.81" rx="9.08" ry="9.08"/>
    <path class="cls-1" d="M45.24,9.21c11.77,0,21.31,9.54,21.31,21.31s-9.54,21.31-21.31,21.31-21.31-9.54-21.31-21.31,9.54-21.31,21.31-21.31ZM45.98,17.34c-2.51,0,.24,5.82-.75,8.7-.41,1.19-3.29,1.6-3.29,1.6l-.19,12.6s12.04,1.08,12.6-.14c.6-1.29-.33-.88-.14-1.77s1.24-.49,1.43-1.32c.25-1.07-.73-1.79-.54-2.48s.93-.3,1.34-1.81c.3-1.12-.69-1.13-.73-1.94s1.26-.66,1.26-1.82-4.23-.31-5.21-1.72c-2.03-2.93-2.47-9.89-5.77-9.89h0ZM33.67,40.34h5.22v-12.55h-5.22v12.55ZM64.74,49.56c-4.74,4.85-11.26,7.94-18.52,8.2l12.97,27.95,5.84-13.1,12.52,4.58-12.82-27.62h.01ZM26.09,49.57l-12.82,27.62,12.52-4.58,5.84,13.1,12.97-27.95c-7.26-.26-13.78-3.35-18.52-8.2h0Z"/>
  </g>
</svg>