<?xml version="1.0" encoding="UTF-8"?>
<svg id="Ebene_2" data-name="Ebene 2" xmlns="http://www.w3.org/2000/svg" viewBox="0 0 90.8 90.8">
  <defs>
    <style>
      .cls-1 {
        fill: none;
        stroke: #fff;
        stroke-miterlimit: 10;
        stroke-width: 4.78px;
      }

      .cls-2 {
        fill: #fff;
      }

      .cls-3 {
        fill: #9d9d9c;
      }
    </style>
  </defs>
  <g id="Bewertunstorten">
    <rect class="cls-3" width="90.8" height="90.8" rx="8.5" ry="8.5"/>
    <path class="cls-1" d="M78.27,16.23c-1.56-.7-6.49-1.27-10.96-1.27H23.49c-4.47,0-9.4.57-10.96,1.27s-2.83,8.06-2.83,12.53v22.75c0,4.47.57,9.4,1.27,10.96s4.97,2.83,5.66,2.83,1.26,3.66,1.26,8.13v1.14c0,4.47,2.59,5.54,5.75,2.38l5.9-5.9c3.16-3.16,9.4-5.75,13.87-5.75h23.91c4.47,0,9.4-.57,10.96-1.27s2.83-8.06,2.83-12.53v-22.75c0-4.47-1.28-11.83-2.83-12.53Z"/>
    <path class="cls-2" d="M45.4,60.61c-1.27,0-2.35-.45-3.26-1.35-.91-.9-1.36-1.99-1.34-3.25-.01-1.25.43-2.33,1.34-3.22.91-.89,2-1.34,3.26-1.34s2.28.45,3.21,1.34c.92.9,1.39,1.97,1.4,3.22-.01.84-.23,1.61-.66,2.31-.43.7-.99,1.25-1.68,1.67-.69.42-1.45.62-2.26.62ZM49.66,20.81l-.75,27.52h-7.02l-.77-27.52h8.54Z"/>
  </g>
</svg>