<?xml version="1.0" encoding="utf-8"?>
<!-- Generator: Adobe Illustrator 27.7.0, SVG Export Plug-In . SVG Version: 6.00 Build 0)  -->
<svg version="1.1" id="Ebene_1" xmlns="http://www.w3.org/2000/svg" xmlns:xlink="http://www.w3.org/1999/xlink" x="0px" y="0px"
	 viewBox="0 0 141.7 141.7" style="enable-background:new 0 0 141.7 141.7;" xml:space="preserve">
<path d="M138.4,3.4c-2.2-2.2-5.5-3.4-9.8-3.4H13.1C8.9,0,5.6,1.1,3.4,3.4S0,8.9,0,13.1v115.5c0,4.3,1.1,7.5,3.4,9.8
	c2.2,2.2,5.5,3.4,9.8,3.4h115.5c4.3,0,7.5-1.1,9.8-3.4c2.2-2.2,3.4-5.5,3.4-9.8V13.1C141.7,8.9,140.6,5.6,138.4,3.4z M132.9,129.9
	c0,0.9-0.3,1.6-0.8,2.2s-1.3,0.8-2.1,0.8H11.8c-0.9,0-1.6-0.3-2.2-0.8s-0.8-1.3-0.8-2.2V11.8c0-0.9,0.3-1.6,0.8-2.1
	c0.5-0.6,1.3-0.8,2.2-0.8h118.1c0.9,0,1.6,0.3,2.1,0.8c0.6,0.6,0.8,1.3,0.8,2.1V129.9z M70.9,47c-2.7,0-4.9-0.9-6.8-2.6
	c-1.9-1.7-2.8-3.9-2.8-6.3c0-2.4,0.9-4.5,2.8-6.3c1.9-1.7,4.1-2.6,6.8-2.6c2.6,0,4.9,0.9,6.8,2.6c1.9,1.7,2.8,3.9,2.8,6.3
	c0,2.4-0.9,4.5-2.8,6.3C75.8,46.2,73.5,47,70.9,47z M61.5,112.5V53.9h18.7v58.6H61.5z"/>
</svg>
