<?xml version="1.0" encoding="UTF-8"?>
<svg id="Ebene_1" data-name="Ebene 1" xmlns="http://www.w3.org/2000/svg" viewBox="0 0 283.46 283.46">
  <defs>
    <style>
      .cls-1 {
        fill: #fff;
      }

      .cls-2 {
        fill: #000;
      }
    </style>
  </defs>
  <g id="Verwaltung">
    <rect class="cls-2" x="0" y="0" width="283.46" height="283.46" rx="28.35" ry="28.35"/>
    <path class="cls-1" d="m141.73,105.97c-19.72,0-35.76,16.04-35.76,35.76s16.04,35.76,35.76,35.76,35.76-16.04,35.76-35.76-16.04-35.76-35.76-35.76Zm0,66.75c-17.09,0-30.99-13.9-30.99-30.99s13.9-30.99,30.99-30.99,30.99,13.9,30.99,30.99-13.9,30.99-30.99,30.99Z"/>
    <path class="cls-1" d="m190.41,176.13c7.15-10.09,10.92-21.99,10.92-34.4,0-1.32,1.07-2.38,2.38-2.38s2.38,1.07,2.38,2.38c0,13.4-4.08,26.25-11.8,37.15-.47.66-1.2,1.01-1.95,1.01-.47,0-.96-.14-1.38-.44-1.07-.76-1.33-2.25-.57-3.32Z"/>
    <path class="cls-1" d="m181.24,186.35c.98-.87,2.49-.78,3.37.2.87.98.78,2.49-.2,3.36-1.23,1.09-2.51,2.14-3.83,3.14-.43.33-.94.48-1.44.48-.72,0-1.43-.32-1.9-.94-.8-1.05-.59-2.55.46-3.34,1.22-.92,2.4-1.89,3.54-2.91Z"/>
    <path class="cls-1" d="m85.51,161.56c4.11,11.65,11.63,21.61,21.76,28.8,1.07.76,1.32,2.25.56,3.32-.47.65-1.2,1-1.95,1-.48,0-.96-.14-1.38-.44-10.93-7.76-19.06-18.52-23.49-31.11-.44-1.24.21-2.6,1.46-3.04,1.23-.44,2.6.21,3.04,1.46Z"/>
    <path class="cls-1" d="m79.7,141.3c1.34-.07,2.42.99,2.46,2.3.05,1.54.16,3.07.32,4.58.14,1.31-.81,2.49-2.12,2.63-.09,0-.17.01-.26.01-1.2,0-2.24-.91-2.37-2.13-.17-1.62-.29-3.27-.34-4.93-.04-1.32.99-2.42,2.3-2.46Z"/>
    <path class="cls-1" d="m126.94,138.85c.93-.93,2.44-.93,3.37,0l7.85,7.85,15-15c.93-.93,2.44-.93,3.37,0,.93.93.93,2.44,0,3.37l-16.69,16.69c-.47.47-1.08.7-1.69.7s-1.22-.23-1.69-.7l-9.54-9.54c-.93-.93-.93-2.44,0-3.37Z"/>
    <path class="cls-1" d="m141.73,53.42c-8.45,0-15.32-6.87-15.32-15.32s6.87-15.32,15.32-15.32,15.32,6.87,15.32,15.32-6.87,15.32-15.32,15.32Zm0-25.63c-5.69,0-10.32,4.63-10.32,10.32s4.63,10.32,10.32,10.32,10.32-4.63,10.32-10.32-4.63-10.32-10.32-10.32Z"/>
    <path class="cls-1" d="m173.17,83.14h-62.87v-9.36c0-10.33,8.41-18.74,18.74-18.74h25.39c10.33,0,18.74,8.41,18.74,18.74v9.36Zm-57.87-5h52.87v-4.36c0-7.58-6.16-13.74-13.74-13.74h-25.39c-7.58,0-13.74,6.16-13.74,13.74v4.36Z"/>
    <path class="cls-1" d="m141.73,227.28c-8.45,0-15.32-6.87-15.32-15.32s6.87-15.32,15.32-15.32,15.32,6.87,15.32,15.32-6.87,15.32-15.32,15.32Zm0-25.63c-5.69,0-10.32,4.63-10.32,10.32s4.63,10.32,10.32,10.32,10.32-4.63,10.32-10.32-4.63-10.32-10.32-10.32Z"/>
    <path class="cls-1" d="m173.17,257h-62.87v-9.36c0-10.33,8.41-18.74,18.74-18.74h25.39c10.33,0,18.74,8.41,18.74,18.74v9.36Zm-57.87-5h52.87v-4.36c0-7.58-6.16-13.74-13.74-13.74h-25.39c-7.58,0-13.74,6.16-13.74,13.74v4.36Z"/>
    <path class="cls-1" d="m54.49,103.85c-8.45,0-15.32-6.87-15.32-15.32s6.87-15.32,15.32-15.32,15.32,6.87,15.32,15.32-6.87,15.32-15.32,15.32Zm0-25.63c-5.69,0-10.32,4.63-10.32,10.32s4.63,10.32,10.32,10.32,10.32-4.63,10.32-10.32-4.63-10.32-10.32-10.32Z"/>
    <path class="cls-1" d="m85.92,133.57H23.05v-9.36c0-10.33,8.41-18.74,18.74-18.74h25.39c10.33,0,18.74,8.41,18.74,18.74v9.36Zm-57.87-5h52.87v-4.36c0-7.58-6.16-13.74-13.74-13.74h-25.39c-7.58,0-13.74,6.16-13.74,13.74v4.36Z"/>
    <path class="cls-1" d="m228.98,103.85c-8.45,0-15.32-6.87-15.32-15.32s6.87-15.32,15.32-15.32,15.32,6.87,15.32,15.32-6.87,15.32-15.32,15.32Zm0-25.63c-5.69,0-10.32,4.63-10.32,10.32s4.63,10.32,10.32,10.32,10.32-4.63,10.32-10.32-4.63-10.32-10.32-10.32Z"/>
    <path class="cls-1" d="m260.41,133.57h-62.87v-9.36c0-10.33,8.41-18.74,18.74-18.74h25.39c10.33,0,18.74,8.41,18.74,18.74v9.36Zm-57.87-5h52.87v-4.36c0-7.58-6.16-13.74-13.74-13.74h-25.39c-7.58,0-13.74,6.16-13.74,13.74v4.36Z"/>
    <path class="cls-1" d="m53.59,182.08h-28.2c-.88,0-1.34.88-1.34,1.8s.46,1.8,1.34,1.8h28.2c1.34,0,1.8-.88,1.8-1.8-.46-.46-.46-1.8-1.8-1.8Zm1.34,16.57c0-.46,0-1.8-1.8-1.8h-27.75c-.88,0-1.34.88-1.34,1.8s.46,1.8,1.34,1.8h28.2c1.34,0,1.34-1.34,1.34-1.8Zm-29.54,13.43c-.88,0-1.34.88-1.34,1.8s.46,1.8,1.34,1.8h15.69c1.34,0,1.8-.88,1.8-1.8,0-.46,0-1.8-1.8-1.8h-15.69Zm17.91,17.48h-23.3c-.88,0-1.8,0-2.68-.46-.46-.46-.88-.88-1.34-1.8-.46-.46-.46-1.8-.46-2.68v-51.5c0-3.14.46-4.93,2.68-4.93h41.21c3.14,0,2.68,2.68,2.68,4.48v25.64c0,1.34,1.34,1.34,1.8,1.34.88,0,1.8-.46,1.8-1.34v-27.87c0-4.48-2.22-6.27-4.93-6.27H16.83c-1.8,0-4.93,2.22-4.93,5.39v53.76c0,1.8,0,4.02.46,4.93.88,2.22,2.68,3.14,4.93,4.02.46,0,.88.46,1.8.46h24.61c.88,0,1.34-.88,1.34-1.8-.4-.49-1.31-1.37-1.74-1.37Zm44.41-9.89h-28.2c-.88,0-1.34.88-1.34,1.8s.46,1.8,1.34,1.8h28.2c1.34,0,1.8-.88,1.8-1.8-.46-.46-.46-1.8-1.8-1.8Zm1.34,16.57c0-.46,0-1.8-1.8-1.8h-27.75c-.88,0-1.34.88-1.34,1.8s.46,1.8,1.34,1.8h28.2c1.34,0,1.34-1.34,1.34-1.8Zm0,15.23c0-.46,0-1.8-1.8-1.8h-27.75c-.88,0-1.34.88-1.34,1.8s.46,1.8,1.34,1.8h28.2c1.34,0,1.34-1.34,1.34-1.8Zm10.43-46.03c-.68-2.51-2.41-3.61-4.43-3.67-.06,0-.12,0-.18,0h-43.92c-.06,0-.12,0-.18,0-2.03.06-3.75,1.16-4.43,3.67-.2.53-.32,1.1-.32,1.71v53.76c0,1.8,0,4.02.46,4.93.88,2.22,2.68,3.14,4.93,4.02.46,0,.88.46,1.8.46h39.41c.91,0,1.34-.46,1.8-.46,2.25-.88,4.05-1.8,4.93-4.02.46-.91.46-3.14.46-4.93v-53.76c0-.61-.12-1.18-.32-1.71Zm-3.31,5.74v51.04c0,.88,0,2.22-.46,2.68-.46.91-.88,1.34-1.34,1.8-.88.46-1.8.46-2.68.46h-37.58c-.88,0-1.8,0-2.68-.46-.46-.46-.88-.88-1.34-1.8-.46-.46-.46-1.8-.46-2.68v-51.5c0-3.14.46-4.93,2.68-4.93h41.18c2.22,0,2.68,1.8,2.68,4.93v.46Z"/>
  </g>
</svg>
