<?xml version="1.0" encoding="UTF-8"?>
<svg id="Ebene_2" data-name="Ebene 2" xmlns="http://www.w3.org/2000/svg" viewBox="0 0 540 90">
  <defs>
    <style>
      .cls-1 {
        fill: none;
        stroke: #fff;
        stroke-miterlimit: 10;
        stroke-width: 3px;
      }

      .cls-2 {
        fill: #1ea64a;
      }

      .cls-3 {
        fill: #fff;
      }
    </style>
  </defs>
  <g id="Ebene_1-2" data-name="Ebene 1">
    <rect class="cls-2" width="540" height="90" rx="14.14" ry="14.14"/>
    <line class="cls-1" x1="90" x2="90" y2="90"/>
    <g>
      <path class="cls-3" d="M116.15,48.07l-2.21,2.78v7.92h-5.6v-27.73h5.6v12.09l1.77-2.99,5.16-9.1h6.86l-7.94,12.19,8.07,15.54h-6.65l-5.07-10.7Z"/>
      <path class="cls-3" d="M136.28,58.77h-5.41v-29.25h5.41v29.25Z"/>
      <path class="cls-3" d="M141.43,32.83c0-.84.27-1.52.8-2.06s1.24-.8,2.13-.8,1.6.27,2.13.8.8,1.22.8,2.06-.26,1.51-.79,2.06c-.53.55-1.24.82-2.14.82s-1.62-.27-2.14-.82c-.53-.55-.79-1.23-.79-2.06ZM147.09,58.77h-5.41v-20.6h5.41v20.6Z"/>
      <path class="cls-3" d="M157.3,38.17l.15,1.9c1.21-1.52,2.8-2.29,4.78-2.29s3.51.93,4.36,2.78c1.18-1.85,2.86-2.78,5.05-2.78,3.61,0,5.45,2.49,5.54,7.48v13.5h-5.39v-13.16c0-1.19-.17-2.04-.5-2.55s-.89-.76-1.68-.76c-1,0-1.75.62-2.25,1.85l.04.65v13.98h-5.39v-13.12c0-1.18-.16-2.03-.48-2.56s-.88-.79-1.7-.79c-.93,0-1.66.5-2.21,1.5v14.97h-5.39v-20.6h5.05Z"/>
      <path class="cls-3" d="M191.92,58.77c-.15-.32-.3-.85-.46-1.6-.96,1.32-2.27,1.98-3.92,1.98s-3.16-.57-4.29-1.71c-1.14-1.14-1.7-2.62-1.7-4.44,0-2.16.69-3.83,2.07-5.01,1.38-1.18,3.36-1.78,5.95-1.81h1.64v-1.66c0-.93-.16-1.58-.48-1.96s-.78-.57-1.39-.57c-1.35,0-2.02.79-2.02,2.36h-5.39c0-1.9.71-3.48,2.14-4.71,1.43-1.24,3.23-1.86,5.42-1.86s4.01.59,5.25,1.76c1.24,1.17,1.86,2.85,1.86,5.04v9.69c.03,1.78.28,3.17.76,4.17v.32h-5.43ZM188.74,54.92c.6,0,1.1-.12,1.52-.36s.73-.53.93-.86v-4.28h-1.29c-.91,0-1.63.29-2.16.88-.53.58-.79,1.36-.79,2.34,0,1.52.6,2.29,1.79,2.29Z"/>
      <path class="cls-3" d="M208.91,54.68c1.56,0,2.36-1.02,2.38-3.05h5.07c-.03,2.25-.72,4.06-2.08,5.45s-3.11,2.08-5.26,2.08c-2.65,0-4.68-.83-6.07-2.48s-2.11-4.08-2.13-7.29v-1.64c0-3.24.69-5.71,2.07-7.41,1.38-1.7,3.41-2.55,6.1-2.55,2.27,0,4.06.7,5.37,2.1s1.97,3.39,2,5.97h-5.07c-.01-1.16-.2-2.04-.57-2.67s-.98-.93-1.83-.93c-.94,0-1.61.33-2.02,1-.41.67-.62,1.96-.65,3.88v2.09c0,1.68.08,2.85.25,3.51.17.67.44,1.16.82,1.47s.92.47,1.62.47Z"/>
      <path class="cls-3" d="M225.63,39.98c1.17-1.46,2.6-2.19,4.3-2.19,1.88,0,3.31.66,4.29,1.98s1.47,3.29,1.49,5.9v13.1h-5.41v-13.04c0-1.21-.19-2.08-.56-2.62-.38-.54-.98-.81-1.82-.81-.98,0-1.74.45-2.29,1.35v15.12h-5.39v-29.25h5.39v10.45Z"/>
      <path class="cls-3" d="M248.87,59.15c-2.77,0-4.93-.83-6.47-2.48s-2.32-4.01-2.32-7.08v-1.64c0-3.25.71-5.76,2.13-7.52s3.46-2.65,6.11-2.65,4.54.83,5.85,2.48,1.97,4.1,2,7.35v2.64h-10.72c.08,1.53.41,2.65,1.01,3.36s1.52,1.06,2.76,1.06c1.8,0,3.31-.62,4.51-1.85l2.11,3.26c-.66.91-1.62,1.65-2.88,2.22-1.26.56-2.62.85-4.09.85ZM245.48,46.51h5.39v-.5c-.03-1.23-.23-2.16-.61-2.8s-1.04-.95-1.98-.95-1.62.34-2.05,1.01c-.42.67-.68,1.75-.75,3.24Z"/>
      <path class="cls-3" d="M267.63,54.68c1.56,0,2.36-1.02,2.38-3.05h5.07c-.03,2.25-.72,4.06-2.08,5.45s-3.11,2.08-5.26,2.08c-2.65,0-4.68-.83-6.07-2.48s-2.11-4.08-2.13-7.29v-1.64c0-3.24.69-5.71,2.07-7.41,1.38-1.7,3.41-2.55,6.1-2.55,2.27,0,4.06.7,5.37,2.1s1.97,3.39,2,5.97h-5.07c-.01-1.16-.2-2.04-.57-2.67s-.98-.93-1.83-.93c-.94,0-1.61.33-2.02,1-.41.67-.62,1.96-.65,3.88v2.09c0,1.68.08,2.85.25,3.51.17.67.44,1.16.82,1.47s.92.47,1.62.47Z"/>
      <path class="cls-3" d="M285.93,50.83l-1.45,1.62v6.32h-5.39v-29.25h5.39v15.81l.67-.99,3.73-6.17h6.42l-5.98,8.49,6.55,12.11h-6.17l-3.77-7.94Z"/>
      <path class="cls-3" d="M306.68,59.15c-2.77,0-4.93-.83-6.47-2.48s-2.32-4.01-2.32-7.08v-1.64c0-3.25.71-5.76,2.13-7.52s3.46-2.65,6.11-2.65,4.54.83,5.85,2.48,1.97,4.1,2,7.35v2.64h-10.72c.08,1.53.41,2.65,1.01,3.36s1.52,1.06,2.76,1.06c1.8,0,3.31-.62,4.51-1.85l2.11,3.26c-.66.91-1.62,1.65-2.88,2.22-1.26.56-2.62.85-4.09.85ZM303.29,46.51h5.39v-.5c-.03-1.23-.23-2.16-.61-2.8s-1.04-.95-1.98-.95-1.62.34-2.05,1.01c-.42.67-.68,1.75-.75,3.24Z"/>
      <path class="cls-3" d="M328.16,43.36l-1.79-.15c-1.47,0-2.47.65-2.99,1.94v13.62h-5.41v-20.6h5.08l.15,2.23c.85-1.74,2.03-2.61,3.52-2.61.61,0,1.1.08,1.49.25l-.06,5.33Z"/>
      <path class="cls-3" d="M356.87,49.73l1.85-11.56h5.16l-4.27,20.6h-4.47l-2.91-11.92-2.91,11.92h-4.49l-4.27-20.6h5.18l1.83,11.58,2.74-11.58h3.83l2.74,11.56Z"/>
      <path class="cls-3" d="M375.84,59.15c-2.77,0-4.93-.83-6.47-2.48s-2.32-4.01-2.32-7.08v-1.64c0-3.25.71-5.76,2.13-7.52s3.46-2.65,6.11-2.65,4.54.83,5.85,2.48,1.97,4.1,2,7.35v2.64h-10.72c.08,1.53.41,2.65,1.01,3.36s1.52,1.06,2.76,1.06c1.8,0,3.31-.62,4.51-1.85l2.11,3.26c-.66.91-1.62,1.65-2.88,2.22-1.26.56-2.62.85-4.09.85ZM372.45,46.51h5.39v-.5c-.03-1.23-.23-2.16-.61-2.8s-1.04-.95-1.98-.95-1.62.34-2.05,1.01c-.42.67-.68,1.75-.75,3.24Z"/>
      <path class="cls-3" d="M397.32,43.36l-1.79-.15c-1.47,0-2.47.65-2.99,1.94v13.62h-5.41v-20.6h5.08l.15,2.23c.85-1.74,2.03-2.61,3.52-2.61.61,0,1.1.08,1.49.25l-.06,5.33Z"/>
      <path class="cls-3" d="M399.97,47.84c0-3.38.57-5.9,1.71-7.56s2.81-2.49,4.99-2.49c1.59,0,2.91.69,3.96,2.06v-10.32h5.43v29.25h-4.89l-.25-2.09c-1.1,1.65-2.53,2.48-4.27,2.48-2.16,0-3.81-.83-4.94-2.48-1.14-1.65-1.72-4.08-1.74-7.27v-1.56ZM405.38,49.19c0,2.03.22,3.45.65,4.26s1.16,1.21,2.19,1.21,1.87-.48,2.42-1.43v-9.41c-.53-1.02-1.33-1.52-2.4-1.52-.99,0-1.71.4-2.17,1.2s-.69,2.22-.69,4.27v1.43Z"/>
      <path class="cls-3" d="M429.32,59.15c-2.77,0-4.93-.83-6.47-2.48s-2.32-4.01-2.32-7.08v-1.64c0-3.25.71-5.76,2.13-7.52s3.46-2.65,6.11-2.65,4.54.83,5.85,2.48,1.97,4.1,2,7.35v2.64h-10.72c.08,1.53.41,2.65,1.01,3.36s1.52,1.06,2.76,1.06c1.8,0,3.31-.62,4.51-1.85l2.11,3.26c-.66.91-1.62,1.65-2.88,2.22-1.26.56-2.62.85-4.09.85ZM425.93,46.51h5.39v-.5c-.03-1.23-.23-2.16-.61-2.8s-1.04-.95-1.98-.95-1.62.34-2.05,1.01c-.42.67-.68,1.75-.75,3.24Z"/>
      <path class="cls-3" d="M445.57,38.17l.15,2.04c1.22-1.61,2.81-2.42,4.78-2.42,3.54,0,5.36,2.48,5.46,7.45v13.54h-5.41v-13.14c0-1.17-.17-2.02-.52-2.54-.35-.53-.96-.79-1.84-.79-.98,0-1.74.5-2.29,1.5v14.97h-5.41v-20.6h5.07Z"/>
    </g>
    <path class="cls-3" d="M77.33,70.43l-18.57-18.57c3.05-4.14,4.88-9.26,4.88-14.83,0-13.82-11.22-25.03-25.03-25.03-13.86-.04-25.07,11.17-25.07,24.99s11.22,25.03,25.03,25.03c5.57,0,10.69-1.83,14.83-4.88l18.57,18.57c1.58,1.58,4.06,1.67,5.53.2,1.5-1.42,1.42-3.9-.16-5.49ZM38.57,54.5c-9.67,0-17.51-7.84-17.51-17.51s7.84-17.51,17.51-17.51,17.51,7.84,17.51,17.51-7.84,17.51-17.51,17.51Z"/>
  </g>
</svg>
