<?xml version="1.0" encoding="UTF-8"?>
<svg id="Ebene_1" data-name="Ebene 1" xmlns="http://www.w3.org/2000/svg" viewBox="0 0 283.46 283.46">
  <defs>
    <style>
      .cls-1, .cls-2 {
        fill: #fff;
      }

      .cls-3 {
        fill: #000;
      }

      .cls-2 {
        fill-rule: evenodd;
      }
    </style>
  </defs>
  <g id="Landwirtschaft">
    <rect class="cls-3" x="0" y="0" width="283.46" height="283.46" rx="28.35" ry="28.35"/>
    <path class="cls-1" d="m118.4,139.07c-14.17,7.89-26.88,23.34-26.92,33.11-.44.25-.87.5-1.31.75l-1.48-13.86s.04,0,.05,0c.72-4.15,1.75-8.25,2.69-12.37,9.33-2.9,20.39-19.57,23.8-35.43,3.95-18.37-10.93-44.09-10.93-44.09,0,0-24.12,17.34-28.07,35.71-3.45,16.09-.07,36.17,7.47,42.35-.71,3.53-3.39,10.69-3.39,10.69l1.93,18.02c-1.03-.6-2.06-1.2-3.1-1.79-.04-9.77-12.75-25.22-26.92-33.11-16.42-9.15-45.36-2.44-45.36-2.44,0,0,9.53,28.14,25.95,37.29,14.37,8.01,34.57,10.64,42.68,5.24,2.53,1.37,5.06,2.73,7.56,4.15.08.15.16.29.24.44l3.39,31.63,7.95-.85-3.55-33.16c1.35-.74,2.7-1.47,4.06-2.2,8.11,5.41,28.31,2.77,42.68-5.24,16.42-9.15,25.95-37.29,25.95-37.29,0,0-28.94-6.71-45.36,2.44Zm-79.95,16.3l30.88,18.6c-5.67,4.3-21.43,2.12-32.66-4.13-12.49-6.96-20.07-27.77-20.07-27.77,0,0,21.68-4.51,34.17,2.44,10.89,6.07,20.77,17.78,20.74,24.94l-30.49-18.36c-1.17-.7-2.72-.33-3.43.85-.71,1.18-.33,2.72.85,3.43Zm42.81-49.95c3-13.98,20.69-27.31,20.69-27.31,0,0,10.66,19.42,7.65,33.39-2.62,12.19-10.93,25.06-17.79,27.13l8.65-34.52c.32-1.32-.48-2.7-1.82-3.03-1.34-.34-2.7.48-3.03,1.82l-8.76,34.97c-5.77-4.16-8.29-19.88-5.6-32.44Zm52.69,64.41c-11.23,6.26-26.99,8.43-32.66,4.13l30.88-18.6c1.18-.71,1.56-2.25.85-3.43-.71-1.18-2.26-1.55-3.43-.85l-30.49,18.36c-.03-7.16,9.85-18.87,20.74-24.94,12.49-6.96,34.17-2.44,34.17-2.44,0,0-7.58,20.81-20.07,27.77Z"/>
    <path class="cls-2" d="m236.14,225.65c-8.81-9.81-17.61-19.63-26.42-29.44-4.71-6.57-6.29-14.85-15.1-17.36,1.98-4.02,7.51-6.26,9.06-10.57.25-8.55.5-17.11.75-25.67h-1.51c-.34,3.99-1.92,5.59-3.02,8.3-1.59,3.9-1.58,7.35-3.77,10.57-3.94,5.77-14.7,7.19-20.38,11.32-11.16,8.12-13.59,21.38-27.93,27.18,1.88,6.63,6.52,11.97,9.81,17.36,4.69,7.68,7.38,15.73,12.08,23.4,2.42,3.95,6.09,7.97,7.55,12.83h.75c6.6-10.04,20.04-9.27,36.99-9.06,4.28.05,10.7,2.18,14.34,0,5.42-1.91,7.1-11.29,6.79-18.87Zm-55.06,15.85c-4.89-1.14-5.14-6.47-7.2-10.4-3.47-6.63-9.82-21.25-14.41-26.41,1.23-12.02,13.79-12.73,21.61-18.41h11.21c11.3,11.04,18.97,26.83,32.82,35.22.8,5.34,1.6,10.67,2.4,16.01-14.39,4.69-36.81-4.88-46.42,4Zm-40.81-40.01h2.26c1.91,7.26,7.71,13.73,11.32,19.63,4.72,7.71,7.37,15.71,12.08,23.4,2.68,4.37,6.74,8.09,7.55,14.34-3.03,2.43-3.95,7.31-7.55,9.06v-.75c-7.05-7.58-10.27-18.94-15.85-27.93-6.56-10.58-16.32-22.51-20.38-34.72,3.34-.28,8.41-1.26,10.57-3.02Zm51.33,2.26h6.04c1.23,1.82,3.93,4.41,3.02,6.04-.98.66-1.86.68-3.77.75-.89-.61-1.27-.58-3.02-.75-1.51-1.51-3.02-3.02-4.53-4.53v-.75c1.57-.28,1.45-.18,2.26-.75Z"/>
    <path class="cls-1" d="m213.6,78.59c3.81-2.91,6.88-6.36,8.88-10.01,2.96-5.4,3.27-10.65.88-14.79-2.39-4.14-7.1-6.5-13.25-6.63-4.15-.09-8.68.85-13.1,2.69-1.54-12.04-8.28-20.85-16.6-20.85s-15.06,8.81-16.6,20.85c-4.42-1.84-8.96-2.78-13.1-2.69-6.16.14-10.86,2.49-13.25,6.63-2.39,4.14-2.08,9.39.88,14.79,2,3.65,5.07,7.1,8.88,10.01-3.81,2.91-6.88,6.36-8.88,10.01-2.96,5.4-3.27,10.65-.88,14.79,2.39,4.14,7.1,6.5,13.25,6.63,4.15.09,8.68-.85,13.1-2.69,1.54,12.04,8.28,20.85,16.6,20.85s15.06-8.81,16.6-20.85c4.42,1.84,8.95,2.78,13.1,2.69,6.16-.14,10.86-2.49,13.25-6.63,2.39-4.14,2.08-9.39-.88-14.79-2-3.65-5.07-7.1-8.88-10.01Zm-3.61-26.07c4.21.09,7.31,1.5,8.73,3.95,1.42,2.45,1.08,5.84-.94,9.54-1.9,3.47-5.04,6.75-8.97,9.43-1.06-.6-2.12-1.13-3.18-1.62-1.38-5.36-4.46-10.05-8.61-13.47.2-1.55.31-3.14.32-4.78,4.28-2.07,8.7-3.14,12.65-3.05Zm-29.59-18.17c5.76,0,10.7,8.03,11.47,18.07-1.55.92-3.02,1.92-4.39,3-2.16-.59-4.44-.92-6.79-.92-2.5,0-4.92.37-7.21,1.04-1.41-1.12-2.93-2.17-4.54-3.12.77-10.04,5.71-18.07,11.47-18.07Zm-37.37,31.66c-2.02-3.69-2.36-7.08-.94-9.54,1.42-2.45,4.52-3.86,8.73-3.95.15,0,.3,0,.46,0,3.84,0,8.08,1.07,12.2,3.05.02,1.8.15,3.54.38,5.23-3.82,3.31-6.65,7.72-8.01,12.73-1.28.56-2.57,1.2-3.84,1.91-3.93-2.68-7.07-5.96-8.97-9.43Zm7.79,38.66c-4.21-.09-7.31-1.5-8.73-3.95-1.42-2.45-1.08-5.84.94-9.54,1.9-3.47,5.04-6.75,8.97-9.43,1.04.59,2.09,1.12,3.14,1.6.77,6.36,3.86,12.02,8.41,16.09-.04.72-.07,1.45-.08,2.18-4.28,2.07-8.7,3.14-12.65,3.05Zm29.59,18.17c-5.76,0-10.7-8.03-11.47-18.07.5-.3,1-.61,1.48-.92,3.15,1.38,6.62,2.15,10.28,2.15s6.88-.71,9.93-2c.41.26.82.52,1.25.77-.77,10.04-5.71,18.07-11.47,18.07Zm38.31-22.12c-1.42,2.45-4.52,3.86-8.73,3.95-3.96.09-8.37-.98-12.65-3.05,0-.57-.03-1.14-.05-1.71,4.92-4.16,8.26-10.12,9-16.85.84-.4,1.69-.84,2.53-1.31,3.93,2.68,7.07,5.96,8.97,9.43,2.02,3.69,2.36,7.08.94,9.54Z"/>
  </g>
</svg>
