<?xml version="1.0" encoding="UTF-8"?>
<svg id="Ebene_1" data-name="Ebene 1" xmlns="http://www.w3.org/2000/svg" viewBox="0 0 283.46 283.46">
  <defs>
    <style>
      .cls-1 {
        fill: #fff;
      }

      .cls-2 {
        fill: #000;
      }
    </style>
  </defs>
  <g id="Team">
    <rect class="cls-2" x="0" y="0" width="283.46" height="283.46" rx="28.35" ry="28.35"/>
    <path class="cls-1" d="m65.52,157.46c13.19,0,23.92-10.61,24.18-23.73h66.21v-11.42h75.12v-14.78c0-16.33-13.28-29.61-29.61-29.61h-40.11c-10.31,0-19.37,5.31-24.67,13.32-3.23-1.21-6.7-1.9-10.34-1.9h-40.11c-13.33,0-24.62,8.85-28.32,20.98-9.6,3.21-16.55,12.27-16.55,22.94,0,13.34,10.86,24.2,24.2,24.2Zm95.79-71.64h40.11c11.97,0,21.71,9.74,21.71,21.71v6.88h-67.61c-1.23-7.96-5.63-14.87-11.88-19.41,3.93-5.54,10.37-9.18,17.67-9.18Zm-75.12,11.42h40.11c2.4,0,4.71.41,6.87,1.13h0c1.31.44,2.56,1,3.75,1.66,0,0,.02.01.03.02.58.33,1.14.68,1.69,1.06.03.02.06.05.09.07.53.37,1.04.75,1.53,1.17,3.63,3.05,6.24,7.27,7.27,12.07.15.7.26,1.42.35,2.15,0,.03.01.06.01.09.08.75.12,1.52.12,2.3v6.88h-59.46c-3.02-9.31-11.53-16.14-21.69-16.7,3.59-7.05,10.9-11.89,19.34-11.89Zm-29.61,22.41c.54-.36,1.11-.68,1.7-.97.08-.04.16-.08.25-.12,1.85-.88,3.89-1.43,6.05-1.55.31-.02.62-.05.94-.05,6.31,0,11.78,3.61,14.49,8.87.27.52.51,1.06.72,1.62.03.09.06.18.1.26.17.47.32.94.45,1.43.04.14.07.28.11.42.11.45.19.91.26,1.38.02.16.05.31.07.47.07.6.11,1.22.11,1.84,0,0,0,.01,0,.02,0,8.99-7.31,16.3-16.3,16.3s-16.3-7.31-16.3-16.3c0-5.69,2.93-10.7,7.36-13.61Z"/>
    <path class="cls-1" d="m115.19,189.63c0-16.33-13.28-29.61-29.61-29.61h-40.11c-16.32,0-29.61,13.28-29.61,29.61v14.78h99.32v-14.78Zm-7.9,6.88H23.76v-6.88c0-11.97,9.74-21.71,21.71-21.71h40.11c11.97,0,21.71,9.74,21.71,21.71v6.88Z"/>
    <path class="cls-1" d="m123.81,180.94c0,13.34,10.86,24.2,24.2,24.2s24.2-10.86,24.2-24.2-10.86-24.2-24.2-24.2-24.2,10.86-24.2,24.2Zm40.5,0c0,8.99-7.31,16.3-16.3,16.3s-16.3-7.31-16.3-16.3,7.31-16.3,16.3-16.3,16.3,7.31,16.3,16.3Z"/>
    <path class="cls-1" d="m192.25,162.58c0,13.34,10.86,24.2,24.2,24.2s24.2-10.86,24.2-24.2-10.86-24.2-24.2-24.2-24.2,10.86-24.2,24.2Zm40.5,0c0,8.99-7.31,16.3-16.3,16.3s-16.3-7.31-16.3-16.3,7.31-16.3,16.3-16.3,16.3,7.31,16.3,16.3Z"/>
    <path class="cls-1" d="m181.37,75.36c13.34,0,24.2-10.86,24.2-24.2s-10.86-24.2-24.2-24.2-24.2,10.86-24.2,24.2,10.86,24.2,24.2,24.2Zm0-40.5c8.99,0,16.3,7.31,16.3,16.3s-7.31,16.3-16.3,16.3-16.3-7.31-16.3-16.3,7.31-16.3,16.3-16.3Z"/>
    <path class="cls-1" d="m106.24,86.78c13.34,0,24.2-10.86,24.2-24.2s-10.86-24.2-24.2-24.2-24.2,10.86-24.2,24.2,10.86,24.2,24.2,24.2Zm0-40.5c8.99,0,16.3,7.31,16.3,16.3s-7.31,16.3-16.3,16.3-16.3-7.31-16.3-16.3,7.31-16.3,16.3-16.3Z"/>
    <path class="cls-1" d="m266.11,218.95c0-16.33-13.28-29.61-29.61-29.61h-40.11c-12.36,0-22.97,7.62-27.39,18.41-.32-.01-.63-.05-.94-.05h-40.11c-16.32,0-29.61,13.28-29.61,29.61v14.78h99.32v-14.78c0-1.21-.1-2.4-.24-3.58h68.68v-14.78Zm-76.35,25.25h-83.52v-6.88c0-11.97,9.74-21.71,21.71-21.71h40.11c1.08,0,2.13.1,3.17.26.17.03.34.05.51.08,1.05.18,2.07.43,3.06.75h0c4.87,1.6,8.97,4.87,11.64,9.14.37.59.71,1.2,1.02,1.83,0,0,0,0,0,.01.31.63.59,1.27.84,1.92,0,0,0,0,0,0,.5,1.32.88,2.7,1.12,4.13.2,1.17.32,2.36.32,3.59v6.88Zm68.45-18.36h-62.87c-3.34-7.92-10.04-14.08-18.29-16.72,3.59-7.04,10.91-11.87,19.34-11.87h40.11c11.97,0,21.71,9.74,21.71,21.71v6.88Z"/>
  </g>
</svg>
