<?xml version="1.0" encoding="UTF-8"?>
<svg id="Ebene_2" data-name="Ebene 2" xmlns="http://www.w3.org/2000/svg" viewBox="0 0 540 90">
  <defs>
    <style>
      .cls-1 {
        fill: none;
        stroke: #fff;
        stroke-miterlimit: 10;
        stroke-width: 3px;
      }

      .cls-2 {
        fill: #1ea64a;
      }

      .cls-3 {
        fill: #fff;
      }
    </style>
  </defs>
  <g id="Beschriftung">
    <g>
      <rect class="cls-2" width="540" height="90" rx="14.14" ry="14.14"/>
      <line class="cls-1" x1="90" x2="90" y2="90"/>
      <g>
        <path class="cls-3" d="M108.34,58.77v-27.73h8.57c2.89,0,5.09.64,6.6,1.93,1.5,1.29,2.26,3.18,2.26,5.67,0,1.41-.31,2.62-.93,3.64-.62,1.02-1.47,1.76-2.55,2.23,1.24.36,2.2,1.07,2.88,2.14.67,1.07,1.01,2.4,1.01,3.97,0,2.69-.74,4.72-2.22,6.09-1.48,1.37-3.62,2.06-6.43,2.06h-9.18ZM113.94,42.64h2.91c2.2,0,3.29-1.14,3.29-3.41,0-1.26-.25-2.16-.76-2.7s-1.33-.82-2.48-.82h-2.97v6.93ZM113.94,46.72v7.41h3.58c1,0,1.77-.31,2.29-.93.52-.62.78-1.5.78-2.65,0-2.49-.9-3.76-2.7-3.83h-3.94Z"/>
        <path class="cls-3" d="M130.3,47.8c0-3.12.74-5.57,2.21-7.35s3.51-2.67,6.11-2.67,4.68.89,6.15,2.67,2.21,4.24,2.21,7.39v1.31c0,3.14-.73,5.59-2.19,7.35-1.46,1.76-3.5,2.65-6.13,2.65s-4.69-.89-6.16-2.66c-1.47-1.77-2.2-4.23-2.2-7.38v-1.31ZM135.71,49.15c0,3.68.98,5.52,2.95,5.52,1.81,0,2.79-1.54,2.93-4.61l.02-2.27c0-1.88-.26-3.27-.78-4.18-.52-.91-1.26-1.36-2.21-1.36s-1.63.45-2.14,1.36c-.51.91-.77,2.3-.77,4.18v1.35Z"/>
        <path class="cls-3" d="M150.68,47.8c0-3.12.74-5.57,2.21-7.35s3.51-2.67,6.11-2.67,4.68.89,6.15,2.67,2.21,4.24,2.21,7.39v1.31c0,3.14-.73,5.59-2.19,7.35-1.46,1.76-3.5,2.65-6.13,2.65s-4.69-.89-6.16-2.66c-1.47-1.77-2.2-4.23-2.2-7.38v-1.31ZM156.09,49.15c0,3.68.98,5.52,2.95,5.52,1.82,0,2.79-1.54,2.93-4.61l.02-2.27c0-1.88-.26-3.27-.78-4.18-.52-.91-1.26-1.36-2.21-1.36s-1.63.45-2.14,1.36c-.51.91-.77,2.3-.77,4.18v1.35Z"/>
        <path class="cls-3" d="M178.53,50.83l-1.45,1.62v6.32h-5.39v-29.25h5.39v15.81l.67-.99,3.73-6.17h6.42l-5.98,8.49,6.55,12.11h-6.17l-3.77-7.94Z"/>
        <path class="cls-3" d="M221.08,47.4c0,3.72-.88,6.61-2.64,8.66-1.76,2.06-4.2,3.08-7.32,3.08s-5.55-1.02-7.33-3.06c-1.78-2.04-2.68-4.89-2.71-8.56v-4.74c0-3.81.88-6.78,2.65-8.92,1.76-2.14,4.21-3.21,7.35-3.21s5.52,1.05,7.29,3.15c1.78,2.1,2.68,5.05,2.71,8.85v4.74ZM215.46,42.76c0-2.5-.36-4.36-1.07-5.58s-1.82-1.83-3.31-1.83-2.58.59-3.29,1.76c-.71,1.17-1.08,2.96-1.1,5.36v4.93c0,2.42.36,4.21,1.08,5.36.72,1.15,1.84,1.72,3.35,1.72s2.55-.56,3.26-1.69c.71-1.12,1.07-2.87,1.08-5.23v-4.82Z"/>
        <path class="cls-3" d="M232.07,33.1v5.07h2.76v4.04h-2.76v10.24c0,.81.11,1.37.33,1.68.22.3.65.46,1.29.46.52,0,.95-.04,1.28-.13l-.04,4.19c-.91.34-1.9.51-2.97.51-3.48,0-5.24-2-5.28-5.99v-10.96h-2.38v-4.04h2.38v-5.07h5.39Z"/>
        <path class="cls-3" d="M245.02,33.1v5.07h2.76v4.04h-2.76v10.24c0,.81.11,1.37.33,1.68.22.3.65.46,1.29.46.52,0,.95-.04,1.28-.13l-.04,4.19c-.91.34-1.9.51-2.97.51-3.48,0-5.24-2-5.28-5.99v-10.96h-2.38v-4.04h2.38v-5.07h5.39Z"/>
        <path class="cls-3" d="M250.51,47.8c0-3.12.74-5.57,2.21-7.35s3.51-2.67,6.11-2.67,4.68.89,6.15,2.67,2.21,4.24,2.21,7.39v1.31c0,3.14-.73,5.59-2.19,7.35s-3.5,2.65-6.13,2.65-4.69-.89-6.16-2.66c-1.46-1.77-2.2-4.23-2.2-7.38v-1.31ZM255.92,49.15c0,3.68.98,5.52,2.95,5.52,1.82,0,2.79-1.54,2.93-4.61l.02-2.27c0-1.88-.26-3.27-.78-4.18-.52-.91-1.26-1.36-2.21-1.36s-1.63.45-2.14,1.36c-.51.91-.77,2.3-.77,4.18v1.35Z"/>
        <path class="cls-3" d="M280.64,53.25c0-.46-.22-.88-.66-1.27-.44-.39-1.41-.91-2.92-1.57-2.22-.9-3.75-1.83-4.58-2.8-.83-.96-1.25-2.16-1.25-3.6,0-1.8.65-3.29,1.95-4.47,1.3-1.17,3.02-1.76,5.17-1.76,2.26,0,4.07.58,5.43,1.75s2.04,2.74,2.04,4.7h-5.39c0-1.68-.7-2.51-2.09-2.51-.57,0-1.04.18-1.41.53s-.55.85-.55,1.49c0,.46.2.86.61,1.21.41.35,1.36.85,2.88,1.5,2.2.81,3.75,1.72,4.66,2.71.91,1,1.36,2.29,1.36,3.88,0,1.84-.69,3.32-2.08,4.44-1.38,1.12-3.2,1.68-5.45,1.68-1.51,0-2.84-.29-4-.89-1.15-.59-2.06-1.41-2.71-2.47-.65-1.05-.98-2.19-.98-3.41h5.12c.03.94.24,1.64.66,2.11.41.47,1.09.71,2.03.71,1.45,0,2.17-.65,2.17-1.96Z"/>
        <path class="cls-3" d="M308.24,48.07l-2.21,2.78v7.92h-5.6v-27.73h5.6v12.09l1.77-2.99,5.16-9.1h6.86l-7.94,12.19,8.07,15.54h-6.65l-5.07-10.7Z"/>
        <path class="cls-3" d="M332.51,58.77c-.15-.32-.3-.85-.46-1.6-.96,1.32-2.27,1.98-3.92,1.98s-3.16-.57-4.29-1.71c-1.14-1.14-1.71-2.62-1.71-4.44,0-2.16.69-3.83,2.07-5.01s3.36-1.78,5.95-1.81h1.64v-1.66c0-.93-.16-1.58-.48-1.96-.32-.38-.78-.57-1.39-.57-1.35,0-2.02.79-2.02,2.36h-5.39c0-1.9.71-3.48,2.14-4.71,1.43-1.24,3.23-1.86,5.42-1.86s4.01.59,5.25,1.76c1.24,1.17,1.86,2.85,1.86,5.04v9.69c.03,1.78.28,3.17.76,4.17v.32h-5.43ZM329.33,54.92c.6,0,1.1-.12,1.52-.36.42-.24.73-.53.93-.86v-4.28h-1.29c-.91,0-1.63.29-2.16.88-.53.58-.79,1.36-.79,2.34,0,1.52.6,2.29,1.79,2.29Z"/>
        <path class="cls-3" d="M347.71,58.77h-5.41v-29.25h5.41v29.25Z"/>
        <path class="cls-3" d="M361.17,59.15c-2.77,0-4.93-.83-6.47-2.48s-2.32-4.01-2.32-7.08v-1.64c0-3.25.71-5.76,2.13-7.52s3.46-2.65,6.11-2.65,4.54.83,5.85,2.48,1.97,4.1,2,7.35v2.64h-10.72c.08,1.53.41,2.65,1.01,3.36.6.71,1.52,1.06,2.76,1.06,1.8,0,3.31-.62,4.51-1.85l2.11,3.26c-.66.91-1.62,1.65-2.88,2.22-1.26.57-2.62.85-4.09.85ZM357.78,46.51h5.39v-.5c-.03-1.23-.23-2.16-.61-2.8s-1.04-.95-1.98-.95-1.62.34-2.05,1.01-.68,1.75-.75,3.24Z"/>
        <path class="cls-3" d="M377.42,38.17l.15,2.04c1.22-1.61,2.81-2.42,4.78-2.42,3.54,0,5.36,2.48,5.47,7.45v13.54h-5.41v-13.14c0-1.17-.18-2.01-.52-2.54-.35-.53-.96-.79-1.84-.79-.98,0-1.74.5-2.29,1.5v14.97h-5.41v-20.6h5.06Z"/>
        <path class="cls-3" d="M391.94,47.84c0-3.38.57-5.9,1.71-7.56s2.81-2.5,4.99-2.5c1.59,0,2.91.69,3.96,2.06v-10.32h5.43v29.25h-4.89l-.25-2.09c-1.1,1.65-2.53,2.48-4.27,2.48-2.16,0-3.81-.83-4.94-2.48-1.14-1.65-1.72-4.08-1.74-7.27v-1.56ZM397.34,49.19c0,2.03.21,3.45.65,4.26.43.81,1.16,1.21,2.19,1.21s1.87-.48,2.42-1.43v-9.41c-.53-1.02-1.33-1.52-2.4-1.52-.99,0-1.71.4-2.17,1.2s-.69,2.22-.69,4.27v1.43Z"/>
        <path class="cls-3" d="M421.28,59.15c-2.77,0-4.93-.83-6.47-2.48s-2.32-4.01-2.32-7.08v-1.64c0-3.25.71-5.76,2.13-7.52s3.46-2.65,6.11-2.65,4.54.83,5.85,2.48,1.97,4.1,2,7.35v2.64h-10.72c.08,1.53.41,2.65,1.01,3.36.6.71,1.52,1.06,2.76,1.06,1.8,0,3.31-.62,4.51-1.85l2.11,3.26c-.66.91-1.62,1.65-2.88,2.22-1.26.57-2.62.85-4.09.85ZM417.89,46.51h5.39v-.5c-.03-1.23-.23-2.16-.61-2.8s-1.04-.95-1.98-.95-1.62.34-2.05,1.01-.68,1.75-.75,3.24Z"/>
        <path class="cls-3" d="M442.77,43.36l-1.79-.15c-1.47,0-2.47.65-2.99,1.94v13.62h-5.41v-20.6h5.08l.15,2.23c.85-1.74,2.03-2.61,3.52-2.61.61,0,1.1.08,1.49.25l-.06,5.33Z"/>
      </g>
      <g>
        <path class="cls-3" d="M71.04,78.59H22.26c-3.31,0-6-2.69-6-6V23.81c0-3.31,2.69-6,6-6h48.78c3.31,0,6,2.69,6,6v48.78c0,3.31-2.69,6-6,6ZM22.26,21.81c-1.1,0-2,.9-2,2v48.78c0,1.1.9,2,2,2h48.78c1.1,0,2-.9,2-2V23.81c0-1.1-.9-2-2-2H22.26Z"/>
        <path class="cls-3" d="M32.89,30.05c-1.1,0-2-.9-2-2v-14.63c0-1.1.9-2,2-2s2,.9,2,2v14.63c0,1.1-.9,2-2,2Z"/>
        <path class="cls-3" d="M62.16,30.05c-1.1,0-2-.9-2-2v-14.63c0-1.1.9-2,2-2s2,.9,2,2v14.63c0,1.1-.9,2-2,2Z"/>
        <path class="cls-3" d="M66.26,44.54H27.04c-1.1,0-2-.9-2-2s.9-2,2-2h39.22c1.1,0,2,.9,2,2s-.9,2-2,2Z"/>
      </g>
    </g>
  </g>
</svg>