<?xml version="1.0" encoding="utf-8"?>
<!-- Generator: Adobe Illustrator 27.7.0, SVG Export Plug-In . SVG Version: 6.00 Build 0)  -->
<svg version="1.1" id="Ebene_1" xmlns="http://www.w3.org/2000/svg" xmlns:xlink="http://www.w3.org/1999/xlink" x="0px" y="0px"
	 viewBox="0 0 141.7 141.7" style="enable-background:new 0 0 141.7 141.7;" xml:space="preserve">
<style type="text/css">
	.st0{fill:#000;}
	.st1{fill:#FFFFFF;}
</style>
<circle class="st0" cx="70.9" cy="71" r="70.9"/>
<g>
	<g>
		<path class="st1" d="M95.4,50.3c-0.8,0.5-3.1,1.6-5.7,1.6c-2.6,0-5-1-6.5-2.6c-1.3-1.6-2.1-3.4-2.6-5.7h13.8v-3.1H80.2v-0.5
			c0-0.5,0-1.3,0-1.8h14.1v-3.1H80.8c0.5-2.4,1.6-4.4,2.9-5.7c1.6-1.8,3.7-2.6,6.3-2.6c2.4,0,4.2,0.8,5.2,1.3l0.3,0.3l1-3.9h-0.3
			c-1-0.5-3.4-1.6-6.5-1.6c-3.9,0-7.3,1.3-9.9,4.2c-2.1,2.1-3.4,5-3.9,8.1h-3.4v3.1h2.9c0,0.5,0,1.3,0,1.8v0.5h-2.9v3.1h3.1
			c0.5,3.4,1.6,6.3,3.7,8.4c2.6,2.9,6,4.4,10.2,4.4c3.9,0,6.5-1.6,7.6-2.1h0.3l-1-3.7L95.4,50.3z"/>
		<path class="st1" d="M89.1,15.1c-13.6,0-24.6,11-24.6,24.6c0,13.6,11,24.6,24.6,24.6c13.6,0,24.6-11,24.6-24.6
			C113.7,26,102.7,15.1,89.1,15.1z M110.3,39.6c0,11.8-9.4,21.2-21.2,21.2s-21.2-9.4-21.2-21.2s9.4-21.2,21.2-21.2
			S110.3,27.9,110.3,39.6z"/>
	</g>
</g>
<rect x="35.7" y="122.3" class="st1" width="49.1" height="6.4"/>
<rect x="44.7" y="114.1" class="st1" width="49.1" height="6.4"/>
<rect x="41.3" y="106" class="st1" width="49.1" height="6.4"/>
<rect x="41.7" y="97.9" class="st1" width="49.1" height="6.4"/>
<rect x="38.3" y="89.7" class="st1" width="49.1" height="6.4"/>
<rect x="41.7" y="81.6" class="st1" width="49.1" height="6.4"/>
<rect x="44.7" y="73.5" class="st1" width="49.1" height="6.4"/>
<rect x="40" y="65.3" class="st1" width="49.1" height="6.4"/>
</svg>
