<?xml version="1.0" encoding="UTF-8"?>
<svg id="Ebene_1" data-name="Ebene 1" xmlns="http://www.w3.org/2000/svg" viewBox="0 0 283.46 283.46">
  <defs>
    <style>
      .cls-1 {
        fill: #fff;
      }

      .cls-2 {
        fill: #1d1d1b;
      }
    </style>
  </defs>
  <g id="Energie">
    <rect class="cls-2" y="0" width="283.46" height="283.46" rx="28.35" ry="28.35"/>
    <path class="cls-1" d="m162.78,96.6c3.51-2.4,6.59-5.38,9.1-8.81l10.57,6.1c.51.29,1.07.43,1.62.43,1.12,0,2.21-.58,2.81-1.62.9-1.55.36-3.54-1.19-4.43l-10.44-6.03c1.88-3.8,3.13-7.97,3.62-12.36h11.74c1.79,0,3.24-1.45,3.24-3.24s-1.45-3.24-3.24-3.24h-11.59c-.28-4.51-1.36-8.81-3.11-12.75l9.77-5.64c1.55-.9,2.09-2.88,1.19-4.43-.9-1.56-2.89-2.08-4.43-1.19l-9.65,5.57c-2.49-3.72-5.64-6.96-9.27-9.57l5.46-9.46c.9-1.55.36-3.54-1.19-4.43-1.55-.9-3.54-.37-4.43,1.19l-5.41,9.38c-3.98-1.93-8.36-3.16-12.98-3.56v-10.75c0-1.79-1.45-3.24-3.24-3.24s-3.24,1.45-3.24,3.24v10.75c-4.61.4-8.99,1.63-12.98,3.56l-5.41-9.38c-.9-1.55-2.88-2.09-4.43-1.19-1.55.9-2.08,2.88-1.19,4.43l5.46,9.46c-3.63,2.61-6.78,5.85-9.27,9.57l-9.65-5.57c-1.56-.9-3.53-.36-4.43,1.19-.9,1.55-.36,3.54,1.19,4.43l9.77,5.64c-1.75,3.94-2.83,8.24-3.11,12.75h-11.59c-1.79,0-3.24,1.45-3.24,3.24s1.45,3.24,3.24,3.24h11.74c.49,4.39,1.74,8.56,3.62,12.36l-10.44,6.03c-1.55.9-2.08,2.88-1.19,4.43.6,1.04,1.69,1.62,2.81,1.62.55,0,1.11-.14,1.62-.43l10.57-6.1c2.51,3.43,5.59,6.41,9.1,8.81l-6.21,10.75c-.9,1.55-.36,3.54,1.19,4.43.51.29,1.07.43,1.62.43,1.12,0,2.21-.58,2.81-1.62l6.24-10.82c3.76,1.71,7.85,2.81,12.14,3.18v12.56c0,1.79,1.45,3.24,3.24,3.24s3.24-1.45,3.24-3.24v-12.56c4.3-.37,8.38-1.47,12.14-3.18l6.24,10.82c.6,1.04,1.69,1.62,2.81,1.62.55,0,1.11-.14,1.62-.43,1.55-.9,2.09-2.88,1.19-4.43l-6.21-10.75Zm-51.94-30.87c0-17.03,13.86-30.89,30.89-30.89s30.89,13.86,30.89,30.89-13.86,30.89-30.89,30.89-30.89-13.86-30.89-30.89Z"/>
    <path class="cls-1" d="m135.87,202.25c-.17-2.15-1.22-3.95-2.34-5.69-1.82-2.81-4.25-4.95-7.37-6.26-.34-.15-.69-.3-1.03-.46-.34-.11-.67-.22-1.01-.32l-1.29-.45c-.16-.04-.32-.08-.48-.11-.27-.04-.53-.08-.8-.12-1.72-.12-3.45-.35-5.17-.35-9.8-.03-19.61,0-29.41-.02-10.31,0-20.62-.04-30.93-.05-.26-.05-.53-.1-.79-.15-.16-.05-.32-.09-.48-.14-.18-.03-.36-.05-.54-.08-.42-.11-.84-.23-1.26-.34l-.51-.24c-.09-.07-.18-.17-.28-.22-3.52-1.45-6.02-3.93-7.71-7.32-1.32-2.64-1.34-5.41-1.19-8.24.06-.18.12-.35.17-.53.49-2.27,1.47-4.31,3-6.04,2.42-2.75,5.32-4.7,9.05-5.18.33-.57,1.45-.2,1.53-.17.26-.01.51-.02.77-.03,8.25,0,16.49,0,24.74,0,.34,0,.68,0,1.02,0h1.02c.08-.03.17-.04.25-.06.09-.08.51-.04.6-.12.47.18.25.65.39.92.26.79.45,1.61.78,2.37,1.5,3.53,4.27,5.76,7.66,7.32,0,0,2.37,1.13,3.85,1.1,6.99.03,13.97.09,20.96.09,1.88,0,3.3-1.58,3.32-3.46,0-.54.07-1.09.11-1.63.07-.1.14-.2.21-.31.06,0,.12,0,.17,0h10.39v-6.39h-4.96c-1.84-.03-3.67-.05-5.51-.08-.25-.25-.7-.49-.71-.74-.07-1.47-.07-2.94,0-4.41.01-.26.34-.5.58-.75h10.6v-6.39h-.84s0,0,0,0c-.31,0-.63,0-.94,0h-8.14c-.79-.1-1.16-.52-1.03-1.55.36-2.96-1.76-3.97-3.98-3.98-5.99-.02-11.99,0-17.98.03-.67,0-1.34.15-2,.24-.34.06-.69.12-1.03.18-.25.03-.5.05-.75.08-.6.22-1.2.45-1.81.67-.32.09-.66.13-.96.27-4.02,2.03-6.87,5.09-8.26,9.42-.16.25-.32.5-.47.76-.13.02-.25.06-.38.06-7.81,0-15.63-.01-23.44-.01-1.65,0-3.31.06-4.96.09-.35.05-.7.11-1.05.16-.16.03-.32.05-.48.08-.27.05-.54.09-.8.14-.34.04-.67.09-1.01.13-.09.04-.19.07-.28.11-1.49.6-3.03,1.11-4.47,1.81-2.87,1.41-5.31,3.41-7.21,5.98-1.71,2.31-2.91,4.88-3.41,7.74-.12.43-.24.87-.37,1.3-.04.25-.09.49-.13.74,0,1.71.01,3.41.02,5.12l.15.74c.12.36.25.71.37,1.07,1.07,5.12,3.82,9.15,8.03,12.21,3.85,2.79,8.19,3.91,12.93,3.91,19.59-.04,39.19-.02,58.78-.01.89,0,1.78.07,2.67.1.5-.61.64-.57,1.02.29,1.86.16,3.35,1.11,4.82,2.17,2.82,2.04,3.96,4.97,4.33,8.23.29,2.58-.6,4.98-2.09,7.03-1.86,2.56-4.47,4.46-7.59,4.7-4.11.31-8.26.14-12.4.09-3.91-6.95-19.11-12.92-32.35-12.92-15.34,0-33.31,16.28-33.31,16.28,0,0,17.97,16.28,33.31,16.28,13.43,0,28.88-6.14,32.51-13.22,2.98-.04,5.96-.08,8.94-.03,4.09.06,7.8-.82,11.29-3.06,4.29-2.75,6.57-6.68,7.63-11.49.04-.35.09-.7.13-1.05.01-.93.02-1.86.04-2.78-.15-1.02-.3-2.05-.45-3.07Zm-44.61-46.3c.13-.43.25-.87.38-1.3.03-.16.06-.33.09-.49.15-.34.3-.69.45-1.03,1.88-3.07,4.66-4.54,8.23-4.56,4.75-.03,9.5-.05,14.25-.07.34.02.69.04,1.03.06.14.42.41.83.41,1.25.04,4.9.04,9.81.06,14.71,0,.7-.15,1.18-.98,1.09-.17,0-.34,0-.51,0-5.44-.03-10.87-.05-16.31-.08-.26-.04-.53-.08-.79-.12-2.21-.76-3.85-2.23-5.15-4.13-.06-.09-.12-.17-.19-.26-.25-.6-.5-1.19-.75-1.79-.07-.43-.15-.85-.22-1.28,0-.67,0-1.34,0-2.01Zm-14.35,76.54c-11.67,0-25.34-11.83-25.34-11.83,0,0,13.67-11.83,25.34-11.83,10.18,0,21.87,4.43,24.7,9.55l-29.03-.98c-1.11-.03-2.07.84-2.11,1.97-.04,1.13.84,2.07,1.97,2.11l29.4,1c-2.33,5.32-14.44,10.03-24.93,10.03Z"/>
    <path class="cls-1" d="m215.1,154.24l2.14,6.03,38.64,22.46,3.97-6.88-28.79-27.15-1.04-.98-1.38.4c-2.79.82-7.72,1.58-9.41.6l-1.86-1.07c-.15-4.53-3.41-8.29-7.71-9.2l5.24-6.14.13-44.69h-7.95l-9.11,38.51-.33,1.4,1.04.99c2.11,2.01,5.22,5.9,5.22,7.85v2.5h.35c-3.7,1.38-6.35,4.94-6.35,9.12,0,.5.05.99.12,1.47l-8.41-1.55-38.77,22.23,3.97,6.88,37.91-11.36,1.37-.41.34-1.39c.69-2.83,2.49-7.47,4.19-8.45l1.72-.99c.33.38.69.74,1.08,1.06v68.09h-8.45l-9.88,11.44h46.93l-8.77-11.44h-7.66v-67.87c.55-.43,1.07-.91,1.52-1.45Zm13.54-.95l21.64,20.4-28.94-16.82-.98-2.77c2.99.3,6.34-.33,8.29-.81Zm-38.69,7.96l-28.48,8.54,29.04-16.65,2.89.53c-1.76,2.44-2.88,5.65-3.44,7.58Zm13.2-35.35l6.85-28.93-.1,33.47-1.93,2.26c-.78-1.78-2.21-4.12-4.82-6.81Zm4.49,17.33c2.62,0,4.74,2.13,4.74,4.74s-2.13,4.74-4.74,4.74-4.74-2.13-4.74-4.74,2.13-4.74,4.74-4.74Zm11.13,85.32l1.1,1.44h-25.87l1.24-1.44h11.16v-70.56h2.17v70.56h10.19Z"/>
  </g>
</svg>