<?xml version="1.0" encoding="UTF-8"?>
<svg id="Ebene_1" data-name="Ebene 1" xmlns="http://www.w3.org/2000/svg" viewBox="0 0 283.46 283.46">
  <defs>
    <style>
      .cls-1 {
        fill: #fff;
      }

      .cls-2 {
        fill: #1d1d1b;
      }
    </style>
  </defs>
  <g id="Gebäude">
    <rect class="cls-2" y="0" width="283.46" height="283.46" rx="28.35" ry="28.35"/>
    <path class="cls-1" d="m209.96,241.88H60.79c-1.93,0-3.5-1.57-3.5-3.5v-98.96h-27.4c-1.42,0-2.69-.85-3.23-2.16s-.24-2.81.76-3.81L132.9,27.96c1.37-1.37,3.58-1.37,4.95,0l105.48,105.48c1,1,1.3,2.51.76,3.81s-1.82,2.16-3.23,2.16h-27.39v98.96c0,1.93-1.57,3.5-3.5,3.5Zm-145.67-7h142.17v-98.96c0-1.93,1.57-3.5,3.5-3.5h22.45l-97.03-97.03-97.03,97.03h22.45c1.93,0,3.5,1.57,3.5,3.5v98.96Z"/>
    <path class="cls-1" d="m138.75,171.61v-59.69c0-2.11-1.72-3.83-3.83-3.83s-3.83,1.72-3.83,3.83v59.69c-7.85,1.77-13.47,8.73-13.47,16.86,0,9.54,7.76,17.3,17.3,17.3s17.3-7.76,17.3-17.3c0-8.13-5.61-15.09-13.47-16.86Zm8.64,16.86c0,6.87-5.59,12.47-12.47,12.47s-12.47-5.59-12.47-12.47,5.59-12.47,12.47-12.47,12.47,5.59,12.47,12.47Z"/>
    <path class="cls-1" d="m146.56,162.16v-69.24c0-6.16-5.01-11.18-11.18-11.18h-.94c-6.16,0-11.18,5.01-11.18,11.18v69.24c-10.29,4.57-17.15,15.06-17.15,26.31,0,15.88,12.92,28.8,28.8,28.8s28.8-12.92,28.8-28.8c0-11.25-6.87-21.74-17.15-26.31Zm-11.65,50.28c-13.22,0-23.97-10.75-23.97-23.97,0-9.93,6.26-18.94,15.58-22.43l1.57-.59v-72.54c0-3.5,2.85-6.35,6.35-6.35h.94c3.5,0,6.35,2.85,6.35,6.35v72.54l1.57.59c9.32,3.49,15.58,12.5,15.58,22.43,0,13.22-10.75,23.97-23.97,23.97Z"/>
    <path class="cls-1" d="m149.43,95.05h5.9c.78,0,1.41-.63,1.41-1.41s-.63-1.41-1.41-1.41h-5.9c-.78,0-1.41.63-1.41,1.41s.63,1.41,1.41,1.41Z"/>
    <path class="cls-1" d="m149.33,103.79h12.88c.78,0,1.41-.63,1.41-1.41s-.63-1.41-1.41-1.41h-12.88c-.78,0-1.41.63-1.41,1.41s.63,1.41,1.41,1.41Z"/>
    <path class="cls-1" d="m155.32,110.08h-5.9c-.78,0-1.41.63-1.41,1.41s.63,1.41,1.41,1.41h5.9c.78,0,1.41-.63,1.41-1.41s-.63-1.41-1.41-1.41Z"/>
    <path class="cls-1" d="m149.33,130.77h12.88c.78,0,1.41-.63,1.41-1.41s-.63-1.41-1.41-1.41h-12.88c-.78,0-1.41.63-1.41,1.41s.63,1.41,1.41,1.41Z"/>
    <path class="cls-1" d="m155.32,118.83h-5.9c-.78,0-1.41.63-1.41,1.41s.63,1.41,1.41,1.41h5.9c.78,0,1.41-.63,1.41-1.41s-.63-1.41-1.41-1.41Z"/>
    <path class="cls-1" d="m155.32,145.81h-5.9c-.78,0-1.41.63-1.41,1.41s.63,1.41,1.41,1.41h5.9c.78,0,1.41-.63,1.41-1.41s-.63-1.41-1.41-1.41Z"/>
    <path class="cls-1" d="m155.32,136.69h-5.9c-.78,0-1.41.63-1.41,1.41s.63,1.41,1.41,1.41h5.9c.78,0,1.41-.63,1.41-1.41s-.63-1.41-1.41-1.41Z"/>
    <path class="cls-1" d="m149.33,157.38h12.88c.78,0,1.41-.63,1.41-1.41s-.63-1.41-1.41-1.41h-12.88c-.78,0-1.41.63-1.41,1.41s.63,1.41,1.41,1.41Z"/>
  </g>
</svg>