<?xml version="1.0" encoding="utf-8"?>
<!-- Generator: Adobe Illustrator 27.7.0, SVG Export Plug-In . SVG Version: 6.00 Build 0)  -->
<svg version="1.1" id="Ebene_1" xmlns="http://www.w3.org/2000/svg" xmlns:xlink="http://www.w3.org/1999/xlink" x="0px" y="0px"
	 viewBox="0 0 47.5 62.2" style="enable-background:new 0 0 47.5 62.2;" xml:space="preserve">
<g>
	<path d="M40.4,21.1c0-9.2-8-16.6-16.6-16.6S7.1,12,7.1,21.1c0,1.7-0.4,3.6,2.1,10c1.4,3.5,14.5,26.6,14.5,26.6s13.1-23,14.5-26.6
		C40.8,24.7,40.4,22.9,40.4,21.1z M23.8,28.7c-3.9,0-7.1-3.2-7.1-7.3c0-4,3.2-7.3,7.1-7.3c3.9,0,7.1,3.2,7.1,7.3
		C30.9,25.4,27.7,28.7,23.8,28.7z"/>
</g>
</svg>
