<?xml version="1.0" encoding="utf-8"?>
<!-- Generator: Adobe Illustrator 27.7.0, SVG Export Plug-In . SVG Version: 6.00 Build 0)  -->
<svg version="1.1" id="Ebene_1" xmlns="http://www.w3.org/2000/svg" xmlns:xlink="http://www.w3.org/1999/xlink" x="0px" y="0px"
	 viewBox="0 0 320.3 320.3" style="enable-background:new 0 0 320.3 320.3;" xml:space="preserve">
<style type="text/css">
	.st0{fill:#EDEDED;}
	.st1{font-family:'RobotoCondensed-Regular';}
	.st2{font-size:12px;}
	.st3{fill:#FFFFFF;}
	.st4{fill-rule:evenodd;clip-rule:evenodd;fill:#FFFFFF;}
</style>
<g id="HG">
	<path class="st0" d="M291.5,68.7l-8.8-11.5C257.6,27.3,221.6,6.5,179.8,1.3C92.1-9.5,12.2,52.9,1.4,140.6S52.9,308.2,140.6,319
		S308.1,267.5,319,179.7C324,139,313.2,99.9,291.5,68.7z M260.7,172.5c-6.8,55.4-57.3,94.8-112.7,88c-55.4-6.8-94.7-57.3-87.9-112.7
		c6.8-55.4,57.3-94.8,112.7-88c26.4,3.3,49.1,16.4,65,35.3l5.6,7.3C257.1,122.1,263.9,146.8,260.7,172.5z"/>
</g>
<g id="Beschriftung">
	<text transform="matrix(1 0 0 1 258.8713 136.7921)" class="st1 st2">Energie</text>
	<text transform="matrix(1 0 0 1 223.0214 243.8848)" class="st1 st2">Landwirtschaft,  </text>
	<text transform="matrix(1 0 0 1 223.0214 257.8848)" class="st1 st2">Natur &amp;  </text>
	<text transform="matrix(1 0 0 1 223.0214 271.8848)" class="st1 st2">Ernährung</text>
	<text transform="matrix(1 0 0 1 163.8917 286.1382)" class="st1 st2">Verkehr</text>
	<text transform="matrix(1 0 0 1 8.1096 129.2237)" class="st1 st2">Gebäude &amp; </text>
	<text transform="matrix(1 0 0 1 25.9096 143.2237)" class="st1 st2">Wärme</text>
	<text transform="matrix(1 0 0 1 98.9762 26.4386)" class="st1 st2">Klimaschutz- </text>
	<text transform="matrix(1 0 0 1 98.9762 40.4386)" class="st1 st2">management &amp;  </text>
	<text transform="matrix(1 0 0 1 98.9762 54.4386)" class="st1 st2">Verwaltung</text>
	<g>
		<g>
			<g>
				<path class="st3" d="M78.1,99.4H46.5c-0.4,0-0.7-0.3-0.7-0.7v-21H40c-0.3,0-0.6-0.2-0.7-0.5s-0.1-0.6,0.2-0.8l22.3-22.3
					c0.3-0.3,0.8-0.3,1,0l22.3,22.3c0.2,0.2,0.3,0.5,0.2,0.8s-0.4,0.5-0.7,0.5h-5.8v20.9C78.9,99.1,78.5,99.4,78.1,99.4z M47.3,97.9
					h30.1V77c0-0.4,0.3-0.7,0.7-0.7h4.8L62.4,55.8L41.8,76.3h4.8c0.4,0,0.7,0.3,0.7,0.7V97.9z"/>
			</g>
			<g>
				<path class="st3" d="M63.1,84.5V71.9c0-0.4-0.4-0.8-0.8-0.8s-0.8,0.4-0.8,0.8v12.6c-1.7,0.4-2.9,1.8-2.9,3.6
					c0,2,1.6,3.7,3.7,3.7c2.1,0,3.7-1.6,3.7-3.7C65.9,86.4,64.7,84.9,63.1,84.5z M64.9,88.1c0,1.5-1.2,2.6-2.6,2.6s-2.6-1.2-2.6-2.6
					s1.2-2.6,2.6-2.6S64.9,86.7,64.9,88.1z"/>
				<path class="st3" d="M64.7,82.5V67.9c0-1.3-1.1-2.4-2.4-2.4h-0.2c-1.3,0-2.4,1.1-2.4,2.4v14.7c-2.2,1-3.6,3.2-3.6,5.6
					c0,3.4,2.7,6.1,6.1,6.1c3.4,0,6.1-2.7,6.1-6.1C68.3,85.7,66.9,83.5,64.7,82.5z M62.2,93.2c-2.8,0-5.1-2.3-5.1-5.1
					c0-2.1,1.3-4,3.3-4.7l0.3-0.1V67.9c0-0.7,0.6-1.3,1.3-1.3h0.2c0.7,0,1.3,0.6,1.3,1.3v15.4l0.3,0.1c2,0.7,3.3,2.6,3.3,4.7
					C67.3,90.9,65,93.2,62.2,93.2z"/>
				<path class="st3" d="M65.3,68.3h1.2c0.2,0,0.3-0.1,0.3-0.3c0-0.2-0.1-0.3-0.3-0.3h-1.2c-0.2,0-0.3,0.1-0.3,0.3
					S65.2,68.3,65.3,68.3z"/>
				<path class="st3" d="M65.3,70.2H68c0.2,0,0.3-0.1,0.3-0.3c0-0.2-0.1-0.3-0.3-0.3h-2.7c-0.2,0-0.3,0.1-0.3,0.3
					C65,70.1,65.1,70.2,65.3,70.2z"/>
				<path class="st3" d="M66.6,71.5h-1.2c-0.2,0-0.3,0.1-0.3,0.3c0,0.2,0.1,0.3,0.3,0.3h1.2c0.2,0,0.3-0.1,0.3-0.3
					C66.9,71.7,66.7,71.5,66.6,71.5z"/>
				<path class="st3" d="M65.3,75.9H68c0.2,0,0.3-0.1,0.3-0.3s-0.1-0.3-0.3-0.3h-2.7c-0.2,0-0.3,0.1-0.3,0.3S65.1,75.9,65.3,75.9z"
					/>
				<path class="st3" d="M66.6,73.4h-1.2c-0.2,0-0.3,0.1-0.3,0.3s0.1,0.3,0.3,0.3h1.2c0.2,0,0.3-0.1,0.3-0.3S66.7,73.4,66.6,73.4z"
					/>
				<path class="st3" d="M66.6,79.1h-1.2c-0.2,0-0.3,0.1-0.3,0.3c0,0.2,0.1,0.3,0.3,0.3h1.2c0.2,0,0.3-0.1,0.3-0.3
					C66.9,79.2,66.7,79.1,66.6,79.1z"/>
				<path class="st3" d="M66.6,77.2h-1.2c-0.2,0-0.3,0.1-0.3,0.3c0,0.2,0.1,0.3,0.3,0.3h1.2c0.2,0,0.3-0.1,0.3-0.3
					C66.9,77.3,66.7,77.2,66.6,77.2z"/>
				<path class="st3" d="M65.3,81.5H68c0.2,0,0.3-0.1,0.3-0.3c0-0.2-0.1-0.3-0.3-0.3h-2.7c-0.2,0-0.3,0.1-0.3,0.3
					S65.1,81.5,65.3,81.5z"/>
			</g>
		</g>
	</g>
	<g>
		<g>
			<path class="st3" d="M32,179.6c-0.5,0.1-1.1,0.1-1.6,0.2c-2.1,0.5-3.4,2-3.5,3.9c0,0.6,0.2,0.9,0.7,0.9s0.7-0.3,0.8-0.9
				c0-1,0.5-1.8,1.4-2.2c1.7-0.7,3.4-0.8,5,0.5c0.7,0.5,1.3,1.1,1.9,1.7c1.5,1.2,3.2,1.7,5.1,1c0.5-0.2,0.7-0.5,0.5-0.9
				c-0.1-0.4-0.5-0.6-1-0.4c-1.5,0.5-2.8,0.1-3.9-0.9c-0.6-0.5-1.2-1.1-1.9-1.6C34.5,180,33.3,179.6,32,179.6z"/>
			<path class="st3" d="M32,179.6c1.3,0,2.5,0.4,3.5,1.2c0.6,0.5,1.3,1.1,1.9,1.6c1.1,1,2.4,1.4,3.9,0.9c0.5-0.2,0.9,0,1,0.4
				s-0.1,0.7-0.5,0.9c-1.9,0.7-3.6,0.3-5.1-1c-0.7-0.5-1.3-1.1-1.9-1.7c-1.5-1.2-3.2-1.2-5-0.5c-0.9,0.4-1.4,1.2-1.4,2.2
				c0,0.6-0.3,0.9-0.8,0.9c-0.4,0-0.7-0.3-0.7-0.9c0-1.9,1.4-3.4,3.5-3.9C30.9,179.7,31.5,179.7,32,179.6z"/>
			<path class="st3" d="M60.4,219.6c0-0.4-0.3-0.7-0.8-0.7c-0.7,0-1.4,0-2.2,0c0-0.3,0-0.5,0-0.7c0-7.7,0-15.3,0-23
				c0-1-0.5-1.3-1.3-0.8c-3,1.6-6,3.2-9.1,4.8c-0.2,0.1-0.3,0.2-0.5,0.3c0-0.2,0-0.4,0-0.5c0-1.3,0-2.5,0-3.8c0-1-0.4-1.2-1.3-0.9
				c-2.4,1-4.8,1.9-7.2,2.9c-1.1,0.4-2.2,0.9-3.4,1.3c-0.3,0.1-0.6,0.4-0.5,0.8c0.1,0.2,0.3,0.5,0.6,0.6c0.1,0.1,0.4,0,0.6-0.1
				c3.1-1.2,6.1-2.4,9.1-3.7c0.2-0.1,0.4-0.1,0.6-0.2c0,1.5,0,2.9,0,4.3c0,1.1,0.4,1.4,1.4,0.8c2.6-1.4,5.1-2.7,7.7-4.1
				c0.6-0.3,1.2-0.6,1.8-1c0,7.6,0,15.2,0,22.7c-0.1,0-0.3,0-0.4,0c-6.8,0-13.7,0-20.5,0c-0.3,0-0.4-0.1-0.5-0.4
				c-0.3-1.6-0.6-3.3-0.8-4.9c-0.4-3.1-0.7-6.3-0.9-9.4c-0.3-3.3-0.4-6.7-0.6-10c-0.1-2.1-0.2-4.3-0.3-6.4c0-0.5-0.3-0.8-0.8-0.8
				c-2.4,0-4.8,0-7.2,0c-0.5,0-0.7,0.3-0.8,0.7c0,0.4-0.1,0.9-0.1,1.3c-0.2,3.2-0.4,6.5-0.7,9.7c-0.3,3.5-0.5,6.9-0.9,10.4
				c-0.3,3.1-0.7,6.3-1.1,9.4c0,0.3-0.1,0.4-0.4,0.4c-0.4,0-0.9,0-1.3,0s-0.7,0.3-0.7,0.7s0.3,0.7,0.7,0.7c0.2,0,0.3,0,0.5,0
				c13.3,0,26.6,0,39.9,0c0.2,0,0.3,0,0.5,0C60.2,220.3,60.4,220,60.4,219.6z M22,218.9c1.4-10.1,2-20.3,2.7-30.5c2,0,3.9,0,5.9,0
				c0,0.7,0,1.4,0,2.2c-0.4,0-0.8,0-1.2,0c-0.8,0-1.6,0-2.4,0c-0.5,0-0.8,0.3-0.8,0.7s0.3,0.7,0.8,0.7c1.1,0,2.1,0,3.2,0
				c0.2,0,0.3,0,0.5,0c0.5,9,0.9,18,2.5,26.9C29.5,218.9,25.7,218.9,22,218.9z"/>
			<rect x="37.4" y="203" class="st3" width="5.6" height="5.6"/>
			<rect x="47.5" y="203" class="st3" width="5.6" height="5.6"/>
			<rect x="37.4" y="210" class="st3" width="5.6" height="5.6"/>
			<rect x="47.5" y="210" class="st3" width="5.6" height="5.6"/>
		</g>
	</g>
	<g>
		<g>
			<path class="st3" d="M283.4,195.9c-3,1.7-5.7,4.9-5.7,7c-0.1,0.1-0.2,0.1-0.3,0.2l-0.3-2.9l0,0c0.2-0.9,0.4-1.7,0.6-2.6
				c2-0.6,4.3-4.1,5-7.5c0.8-3.9-2.3-9.3-2.3-9.3s-5.1,3.7-5.9,7.6c-0.7,3.4,0,7.7,1.6,9c-0.1,0.7-0.7,2.3-0.7,2.3l0.4,3.8
				c-0.2-0.1-0.4-0.3-0.7-0.4c0-2.1-2.7-5.3-5.7-7c-3.5-1.9-9.6-0.5-9.6-0.5s2,6,5.5,7.9c3,1.7,7.3,2.3,9,1.1
				c0.5,0.3,1.1,0.6,1.6,0.9c0,0,0,0.1,0.1,0.1l0.7,6.7l1.7-0.2l-0.8-7c0.3-0.2,0.6-0.3,0.9-0.5c1.7,1.1,6,0.6,9-1.1
				c3.5-1.9,5.5-7.9,5.5-7.9S286.9,193.9,283.4,195.9z M266.5,199.3l6.5,3.9c-1.2,0.9-4.5,0.4-6.9-0.9c-2.6-1.5-4.2-5.9-4.2-5.9
				s4.6-1,7.2,0.5c2.3,1.3,4.4,3.8,4.4,5.3l-6.5-3.9c-0.2-0.1-0.6-0.1-0.7,0.2C266.1,198.8,266.2,199.2,266.5,199.3z M275.5,188.7
				c0.6-3,4.4-5.8,4.4-5.8s2.3,4.1,1.6,7.1c-0.6,2.6-2.3,5.3-3.8,5.7l1.8-7.3c0.1-0.3-0.1-0.6-0.4-0.6c-0.3-0.1-0.6,0.1-0.6,0.4
				l-1.9,7.4C275.5,194.7,275,191.4,275.5,188.7z M286.7,202.4c-2.4,1.3-5.7,1.8-6.9,0.9l6.5-3.9c0.3-0.2,0.3-0.5,0.2-0.7
				c-0.2-0.3-0.5-0.3-0.7-0.2l-6.5,3.9c0-1.5,2.1-4,4.4-5.3c2.6-1.5,7.2-0.5,7.2-0.5S289.3,200.9,286.7,202.4z"/>
			<path class="st4" d="M302.9,221.3c-1.9-2.1-3.7-4.2-5.6-6.2c-1-1.4-1.3-3.1-3.2-3.7c0.4-0.9,1.6-1.3,1.9-2.2
				c0.1-1.8,0.1-3.6,0.2-5.4c-0.1,0-0.2,0-0.3,0c-0.1,0.8-0.4,1.2-0.6,1.8c-0.3,0.8-0.3,1.6-0.8,2.2c-0.8,1.2-3.1,1.5-4.3,2.4
				c-2.4,1.7-2.9,4.5-5.9,5.8c0.4,1.4,1.4,2.5,2.1,3.7c1,1.6,1.6,3.3,2.6,5c0.5,0.8,1.3,1.7,1.6,2.7c0.1,0,0.1,0,0.2,0
				c1.4-2.1,4.2-2,7.8-1.9c0.9,0,2.3,0.5,3,0C302.6,224.9,302.9,222.9,302.9,221.3z M291.2,224.7c-1-0.2-1.1-1.4-1.5-2.2
				c-0.7-1.4-2.1-4.5-3-5.6c0.3-2.5,2.9-2.7,4.6-3.9c0.8,0,1.6,0,2.4,0c2.4,2.3,4,5.7,6.9,7.5c0.2,1.1,0.3,2.3,0.5,3.4
				C298,224.8,293.2,222.8,291.2,224.7z M282.6,216.2c0.2,0,0.3,0,0.5,0c0.4,1.5,1.6,2.9,2.4,4.2c1,1.6,1.6,3.3,2.6,5
				c0.6,0.9,1.4,1.7,1.6,3c-0.6,0.5-0.8,1.5-1.6,1.9c0-0.1,0-0.1,0-0.2c-1.5-1.6-2.2-4-3.4-5.9c-1.4-2.2-3.5-4.8-4.3-7.4
				C281,216.8,282.1,216.6,282.6,216.2z M293.4,216.7c0.4,0,0.9,0,1.3,0c0.3,0.4,0.8,0.9,0.6,1.3c-0.2,0.1-0.4,0.1-0.8,0.2
				c-0.2-0.1-0.3-0.1-0.6-0.2c-0.3-0.3-0.6-0.6-1-1c0-0.1,0-0.1,0-0.2C293.3,216.8,293.3,216.8,293.4,216.7z"/>
		</g>
	</g>
	<path class="st3" d="M200.8,28.1c-4.4,0-8.1,3.6-8.1,8.1s3.6,8.1,8.1,8.1c4.4,0,8.1-3.6,8.1-8.1S205.3,28.1,200.8,28.1z
		 M200.8,43.1c-3.9,0-7-3.1-7-7s3.1-7,7-7s7,3.1,7,7S204.7,43.1,200.8,43.1z M211.8,43.9c1.6-2.3,2.5-5,2.5-7.8
		c0-0.3,0.2-0.5,0.5-0.5s0.5,0.2,0.5,0.5c0,3-0.9,5.9-2.7,8.4c-0.1,0.1-0.3,0.2-0.4,0.2s-0.2,0-0.3-0.1
		C211.7,44.5,211.6,44.1,211.8,43.9z M209.8,46.2c0.2-0.2,0.6-0.2,0.8,0c0.2,0.2,0.2,0.6,0,0.8c-0.3,0.2-0.6,0.5-0.9,0.7
		c-0.1,0.1-0.2,0.1-0.3,0.1c-0.2,0-0.3-0.1-0.4-0.2c-0.2-0.2-0.1-0.6,0.1-0.8C209.2,46.6,209.5,46.4,209.8,46.2z M188.2,40.6
		c0.9,2.6,2.6,4.9,4.9,6.5c0.2,0.2,0.3,0.5,0.1,0.7c-0.1,0.1-0.3,0.2-0.4,0.2c-0.1,0-0.2,0-0.3-0.1c-2.5-1.8-4.3-4.2-5.3-7
		c-0.1-0.3,0-0.6,0.3-0.7C187.8,40.2,188.1,40.3,188.2,40.6z M186.9,36c0.3,0,0.5,0.2,0.6,0.5c0,0.3,0,0.7,0.1,1
		c0,0.3-0.2,0.6-0.5,0.6c0,0,0,0-0.1,0c-0.3,0-0.5-0.2-0.5-0.5c0-0.4-0.1-0.7-0.1-1.1C186.3,36.3,186.6,36,186.9,36z M197.5,35.5
		c0.2-0.2,0.6-0.2,0.8,0l1.8,1.8l3.4-3.4c0.2-0.2,0.6-0.2,0.8,0c0.2,0.2,0.2,0.6,0,0.8l-3.8,3.8c-0.1,0.1-0.2,0.2-0.4,0.2
		s-0.3-0.1-0.4-0.2l-2.2-2.2C197.3,36,197.3,35.7,197.5,35.5z M200.8,16.2c-1.9,0-3.5-1.5-3.5-3.5c0-1.9,1.5-3.5,3.5-3.5
		s3.5,1.5,3.5,3.5S202.7,16.2,200.8,16.2z M200.8,10.4c-1.3,0-2.3,1-2.3,2.3s1,2.3,2.3,2.3c1.3,0,2.3-1,2.3-2.3
		S202.1,10.4,200.8,10.4z M207.9,22.9h-14.1v-2.1c0-2.3,1.9-4.2,4.2-4.2h5.7c2.3,0,4.2,1.9,4.2,4.2V22.9z M194.9,21.8h11.9v-1
		c0-1.7-1.4-3.1-3.1-3.1H198c-1.7,0-3.1,1.4-3.1,3.1L194.9,21.8L194.9,21.8z M200.8,55.4c-1.9,0-3.5-1.5-3.5-3.5
		c0-1.9,1.5-3.5,3.5-3.5s3.5,1.5,3.5,3.5S202.7,55.4,200.8,55.4z M200.8,49.6c-1.3,0-2.3,1-2.3,2.3s1,2.3,2.3,2.3
		c1.3,0,2.3-1,2.3-2.3S202.1,49.6,200.8,49.6z M207.9,62.1h-14.1V60c0-2.3,1.9-4.2,4.2-4.2h5.7c2.3,0,4.2,1.9,4.2,4.2V62.1z
		 M194.9,61h11.9v-1c0-1.7-1.4-3.1-3.1-3.1H198c-1.7,0-3.1,1.4-3.1,3.1L194.9,61L194.9,61z M181.2,27.6c-1.9,0-3.5-1.5-3.5-3.5
		c0-1.9,1.5-3.5,3.5-3.5c1.9,0,3.5,1.5,3.5,3.5C184.6,26,183.1,27.6,181.2,27.6z M181.2,21.8c-1.3,0-2.3,1-2.3,2.3s1,2.3,2.3,2.3
		s2.3-1,2.3-2.3S182.5,21.8,181.2,21.8z M188.3,34.3h-14.2v-2.1c0-2.3,1.9-4.2,4.2-4.2h5.7c2.3,0,4.2,1.9,4.2,4.2v2.1H188.3z
		 M175.2,33.2h11.9v-1c0-1.7-1.4-3.1-3.1-3.1h-5.7c-1.7,0-3.1,1.4-3.1,3.1L175.2,33.2L175.2,33.2z M220.5,27.6
		c-1.9,0-3.5-1.5-3.5-3.5c0-1.9,1.5-3.5,3.5-3.5s3.5,1.5,3.5,3.5C224,26,222.4,27.6,220.5,27.6z M220.5,21.8c-1.3,0-2.3,1-2.3,2.3
		s1,2.3,2.3,2.3s2.3-1,2.3-2.3S221.8,21.8,220.5,21.8z M227.6,34.3h-14.2v-2.1c0-2.3,1.9-4.2,4.2-4.2h5.7c2.3,0,4.2,1.9,4.2,4.2
		L227.6,34.3L227.6,34.3z M214.6,33.2h11.9v-1c0-1.7-1.4-3.1-3.1-3.1h-5.7c-1.7,0-3.1,1.4-3.1,3.1L214.6,33.2L214.6,33.2z"/>
	<g>
		<g>
			<g>
				<path class="st3" d="M125.4,264.4h-14.7c-0.3,0-0.5-0.2-0.5-0.5s0.2-0.5,0.5-0.5h14.7c0.3,0,0.5,0.2,0.5,0.5
					C126,264.2,125.7,264.4,125.4,264.4z"/>
			</g>
			<g>
				<path class="st3" d="M127.7,262.6h-13.2c-0.3,0-0.5-0.2-0.5-0.5s0.2-0.5,0.5-0.5h13.2c0.3,0,0.5,0.2,0.5,0.5
					C128.3,262.4,128,262.6,127.7,262.6z"/>
			</g>
		</g>
		<g>
			<g>
				<g>
					<g>
						<path class="st3" d="M135.1,277.9h-16.4c-1.1,0-2-0.9-2-2v-6.1c0-1.1,0.9-2,2-2h16.4c1.1,0,2,0.9,2,2v6.1
							C137.1,277,136.2,277.9,135.1,277.9z M118.7,268.9c-0.5,0-0.9,0.4-0.9,0.9v6.1c0,0.5,0.4,0.9,0.9,0.9h16.4
							c0.5,0,0.9-0.4,0.9-0.9v-6.1c0-0.5-0.4-0.9-0.9-0.9H118.7z"/>
					</g>
					<g>
						<path class="st3" d="M130.9,277.9c-0.3,0-0.5-0.2-0.5-0.5v-9c0-0.3,0.2-0.5,0.5-0.5s0.5,0.2,0.5,0.5v9
							C131.5,277.6,131.2,277.9,130.9,277.9z"/>
					</g>
					<g>
						<path class="st3" d="M122.3,277.9c-0.3,0-0.5-0.2-0.5-0.5v-9c0-0.3,0.2-0.5,0.5-0.5s0.5,0.2,0.5,0.5v9
							C122.9,277.6,122.6,277.9,122.3,277.9z"/>
					</g>
				</g>
				<g>
					<g>
						<path class="st3" d="M113.1,277.9h-4.8c-1.1,0-2.1-0.9-2.1-2.1v-5.9c0-1.1,0.9-2.1,2.1-2.1h4.8c1.1,0,2.1,0.9,2.1,2.1v5.9
							C115.2,276.9,114.3,277.9,113.1,277.9z M108.3,268.9c-0.6,0-1,0.5-1,1v5.9c0,0.6,0.5,1,1,1h4.8c0.6,0,1-0.5,1-1v-5.9
							c0-0.6-0.5-1-1-1H108.3z"/>
					</g>
					<g>
						<path class="st3" d="M110.7,277.9c-0.3,0-0.5-0.2-0.5-0.5v-9c0-0.3,0.2-0.5,0.5-0.5s0.5,0.2,0.5,0.5v9
							C111.3,277.6,111,277.9,110.7,277.9z"/>
					</g>
				</g>
			</g>
			<g>
				<g>
					<g>
						<path class="st3" d="M116.6,287.7c-1.8,0-3.3-1.2-3.3-2.6c0-0.3,0.2-0.5,0.5-0.5s0.5,0.2,0.5,0.5c0,0.8,1,1.5,2.3,1.5
							s2.3-0.7,2.3-1.5c0-0.3,0.2-0.5,0.5-0.5s0.5,0.2,0.5,0.5C119.9,286.6,118.4,287.7,116.6,287.7z"/>
					</g>
					<g>
						<path class="st3" d="M126.4,287.7c-1.8,0-3.3-1.2-3.3-2.6c0-0.3,0.2-0.5,0.5-0.5s0.5,0.2,0.5,0.5c0,0.8,1,1.5,2.3,1.5
							c1.2,0,2.3-0.7,2.3-1.5c0-0.3,0.2-0.5,0.5-0.5s0.5,0.2,0.5,0.5C129.8,286.6,128.3,287.7,126.4,287.7z"/>
					</g>
					<g>
						<path class="st3" d="M136.2,287.7c-1.8,0-3.3-1.2-3.3-2.6c0-0.3,0.2-0.5,0.5-0.5s0.5,0.2,0.5,0.5c0,0.8,1,1.5,2.3,1.5
							c1.2,0,2.3-0.7,2.3-1.5c0-0.3,0.2-0.5,0.5-0.5s0.5,0.2,0.5,0.5C139.6,286.6,138.1,287.7,136.2,287.7z"/>
					</g>
				</g>
				<g>
					<g>
						<path class="st3" d="M154.4,283.3l-47.6-0.1c-0.3,0-0.5-0.2-0.5-0.5s0.2-0.5,0.5-0.5l0,0l47.6,0.1c1.5,0,2.8-0.9,2.8-1.9v-0.9
							c0-3.4-1.8-6.6-5.2-9c-3.4-2.5-7.9-3.8-12.7-3.8l-32.6,0.2l0,0c-0.3,0-0.5-0.2-0.5-0.5s0.2-0.5,0.5-0.5l32.6-0.2
							c10.4,0,18.9,6.2,18.9,13.9v0.9C158.3,282,156.5,283.3,154.4,283.3z"/>
					</g>
					<g>
						<path class="st3" d="M154,277.9h-8.9c-3.2,0-5.8-1.9-5.8-4.3v-7.5c0-0.3,0.2-0.5,0.5-0.5s0.5,0.2,0.5,0.5v7.5
							c0,1.8,2.1,3.3,4.7,3.3h8.9c0.3,0,0.5,0.2,0.5,0.5C154.6,277.6,154.3,277.9,154,277.9z"/>
					</g>
					<g>
						<path class="st3" d="M153.4,285.7h-46.7c-0.3,0-0.5-0.2-0.5-0.5s0.2-0.5,0.5-0.5l0,0h46.7c0.7,0,1.1-0.3,1.1-0.4v-1.5
							c0-0.3,0.2-0.5,0.5-0.5s0.5,0.2,0.5,0.5v1.5C155.6,285,154.6,285.7,153.4,285.7z"/>
					</g>
					<g>
						<path class="st3" d="M157.7,281.3h-0.6c-2.2,0-3.9-1.3-3.9-3s1.7-3,3.8-3l0,0c0.3,0,0.5,0.2,0.5,0.5s-0.2,0.5-0.5,0.5
							c-1.5,0-2.8,0.9-2.8,1.9s1.3,1.9,2.9,1.9h0.6c0.3,0,0.5,0.2,0.5,0.5C158.3,281,158,281.3,157.7,281.3z"/>
					</g>
					<g>
						<path class="st3" d="M154.1,279.9h-47.3c-0.3,0-0.5-0.2-0.5-0.5s0.2-0.5,0.5-0.5h47.4c0.3,0,0.5,0.2,0.5,0.5
							S154.4,279.9,154.1,279.9z"/>
					</g>
				</g>
			</g>
		</g>
	</g>
	<g>
		<g>
			<path class="st3" d="M279.2,81.1c0.8-0.5,1.5-1.2,2.1-2l2.4,1.4c0.1,0.1,0.2,0.1,0.4,0.1c0.3,0,0.5-0.1,0.6-0.4
				c0.2-0.4,0.1-0.8-0.3-1l-2.4-1.4c0.4-0.9,0.7-1.8,0.8-2.8h2.7c0.4,0,0.7-0.3,0.7-0.7c0-0.4-0.3-0.7-0.7-0.7h-2.6
				c-0.1-1-0.3-2-0.7-2.9l2.2-1.3c0.4-0.2,0.5-0.7,0.3-1c-0.2-0.4-0.7-0.5-1-0.3l-2.2,1.3c-0.6-0.8-1.3-1.6-2.1-2.2l1.2-2.2
				c0.2-0.4,0.1-0.8-0.3-1s-0.8-0.1-1,0.3l-1.2,2.1c-0.9-0.4-1.9-0.7-3-0.8v-2.5c0-0.4-0.3-0.7-0.7-0.7s-0.7,0.3-0.7,0.7v2.5
				c-1.1,0.1-2.1,0.4-3,0.8l-1.2-2.1c-0.2-0.4-0.7-0.5-1-0.3c-0.4,0.2-0.5,0.7-0.3,1l1.2,2.2c-0.8,0.6-1.5,1.3-2.1,2.2l-2.2-1.3
				c-0.4-0.2-0.8-0.1-1,0.3s-0.1,0.8,0.3,1l2.2,1.3c-0.4,0.9-0.6,1.9-0.7,2.9h-2.6c-0.4,0-0.7,0.3-0.7,0.7c0,0.4,0.3,0.7,0.7,0.7
				h2.7c0.1,1,0.4,2,0.8,2.8l-2.4,1.4c-0.4,0.2-0.5,0.7-0.3,1c0.1,0.2,0.4,0.4,0.6,0.4c0.1,0,0.3,0,0.4-0.1l2.4-1.4
				c0.6,0.8,1.3,1.5,2.1,2l-1.4,2.5c-0.2,0.4-0.1,0.8,0.3,1c0.1,0.1,0.2,0.1,0.4,0.1c0.3,0,0.5-0.1,0.6-0.4l1.4-2.5
				c0.9,0.4,1.8,0.6,2.8,0.7v2.9c0,0.4,0.3,0.7,0.7,0.7s0.7-0.3,0.7-0.7v-2.9c1-0.1,1.9-0.3,2.8-0.7l1.4,2.5
				c0.1,0.2,0.4,0.4,0.6,0.4c0.1,0,0.3,0,0.4-0.1c0.4-0.2,0.5-0.7,0.3-1L279.2,81.1z M267.4,74.1c0-3.9,3.2-7.1,7.1-7.1
				s7.1,3.2,7.1,7.1s-3.2,7.1-7.1,7.1C270.5,81.1,267.4,78,267.4,74.1z"/>
			<path class="st3" d="M287.5,107c0-0.6-0.3-1.1-0.7-1.6c-0.5-0.8-1.2-1.4-2.1-1.8c-0.1,0-0.2-0.1-0.3-0.1c-0.1,0-0.2-0.1-0.3-0.1
				l-0.4-0.1h-0.1c-0.1,0-0.1,0-0.2,0c-0.5,0-1-0.1-1.4-0.1c-2.7,0-5.5,0-8.2,0c-2.9,0-5.8,0-8.7,0c-0.1,0-0.1,0-0.2,0h-0.1
				c-0.1,0-0.1,0-0.2,0s-0.2-0.1-0.4-0.1l-0.1-0.1c0,0,0,0-0.1-0.1c-1-0.4-1.7-1.1-2.2-2c-0.4-0.7-0.4-1.5-0.3-2.3v-0.1
				c0.1-0.6,0.4-1.2,0.8-1.7c0.7-0.8,1.5-1.3,2.5-1.5c0.1-0.2,0.4-0.1,0.4,0c0.1,0,0.1,0,0.2,0c2.3,0,4.6,0,6.9,0c0.1,0,0.2,0,0.3,0
				h0.3c0,0,0,0,0.1,0c0,0,0.1,0,0.2,0c0.1,0.1,0.1,0.2,0.1,0.3c0.1,0.2,0.1,0.5,0.2,0.7c0.4,1,1.2,1.6,2.1,2.1c0,0,0.7,0.3,1.1,0.3
				c2,0,3.9,0,5.9,0c0.5,0,0.9-0.4,0.9-1c0-0.2,0-0.3,0-0.5c0,0,0-0.1,0.1-0.1l0,0h2.9v-1.8h-1.4c-0.5,0-1,0-1.5,0
				c-0.1-0.1-0.2-0.1-0.2-0.2c0-0.4,0-0.8,0-1.2c0-0.1,0.1-0.1,0.2-0.2h3v-1.8h-0.2l0,0c-0.1,0-0.2,0-0.3,0h-2.3
				c-0.2,0-0.3-0.1-0.3-0.4c0.1-0.8-0.5-1.1-1.1-1.1c-1.7,0-3.4,0-5,0c-0.2,0-0.4,0-0.6,0.1c-0.1,0-0.2,0-0.3,0.1
				c-0.1,0-0.1,0-0.2,0c-0.2,0.1-0.3,0.1-0.5,0.2c-0.1,0-0.2,0-0.3,0.1c-1.1,0.6-1.9,1.4-2.3,2.6c0,0.1-0.1,0.1-0.1,0.2H273
				c-2.2,0-4.4,0-6.6,0c-0.5,0-0.9,0-1.4,0c-0.1,0-0.2,0-0.3,0h-0.1c-0.1,0-0.1,0-0.2,0s-0.2,0-0.3,0H264c-0.4,0.2-0.8,0.3-1.3,0.5
				c-0.8,0.4-1.5,1-2,1.7c-0.5,0.6-0.8,1.4-1,2.2c0,0.1-0.1,0.2-0.1,0.4c0,0.1,0,0.1,0,0.2c0,0.5,0,1,0,1.4v0.2
				c0,0.1,0.1,0.2,0.1,0.3c0.3,1.4,1.1,2.6,2.2,3.4s2.3,1.1,3.6,1.1c5.5,0,11,0,16.5,0c0.2,0,0.5,0,0.7,0c0.1-0.2,0.2-0.2,0.3,0.1
				c0.5,0,0.9,0.3,1.4,0.6c0.8,0.6,1.1,1.4,1.2,2.3c0.1,0.7-0.2,1.4-0.6,2c-0.5,0.7-1.3,1.2-2.1,1.3c-1.2,0.1-2.3,0-3.5,0
				c-1.1-1.9-5.4-3.6-9.1-3.6c-4.3,0-9.3,4.6-9.3,4.6s5,4.6,9.3,4.6c3.8,0,8.1-1.7,9.1-3.7c0.8,0,1.7,0,2.5,0c1.1,0,2.2-0.2,3.2-0.9
				c1.2-0.8,1.8-1.9,2.1-3.2c0-0.1,0-0.2,0-0.3c0-0.3,0-0.5,0-0.8C287.6,107.5,287.5,107.2,287.5,107z M275,94
				c0-0.1,0.1-0.2,0.1-0.4v-0.1c0-0.1,0.1-0.2,0.1-0.3c0.5-0.9,1.3-1.3,2.3-1.3c1.3,0,2.7,0,4,0c0.1,0,0.2,0,0.3,0
				c0,0.1,0.1,0.2,0.1,0.3c0,1.4,0,2.7,0,4.1c0,0.2,0,0.3-0.3,0.3h-0.1c-1.5,0-3,0-4.6,0c-0.1,0-0.1,0-0.2,0
				c-0.6-0.2-1.1-0.6-1.4-1.2c0,0,0,0-0.1-0.1c-0.1-0.2-0.1-0.3-0.2-0.5c0-0.1,0-0.2-0.1-0.4C275,94.4,275,94.2,275,94z M271,115.4
				c-3.3,0-7.1-3.3-7.1-3.3s3.8-3.3,7.1-3.3c2.8,0,6.1,1.2,6.9,2.7l-8.1-0.3c-0.3,0-0.6,0.2-0.6,0.6c0,0.3,0.2,0.6,0.6,0.6l8.2,0.3
				C277.3,114.1,273.9,115.4,271,115.4z"/>
		</g>
		<path class="st3" d="M241.8,66.4l0.6,1.6l10.5,6.1l1.1-1.9l-7.8-7.4l-0.3-0.3l-0.4,0.1c-0.8,0.2-2.1,0.4-2.6,0.2l-0.5-0.3
			c0-1.2-0.9-2.3-2.1-2.5l1.4-1.7V48.2h-2.2L237,58.7l-0.1,0.4l0.3,0.3c0.6,0.5,1.4,1.6,1.4,2.1v0.7h0.1c-1,0.4-1.7,1.3-1.7,2.5
			c0,0.1,0,0.3,0,0.4l-2.3-0.4l-10.5,6l1.1,1.9l10.3-3.1l0.4-0.1l0.1-0.4c0.2-0.8,0.7-2,1.1-2.3l0.5-0.3c0.1,0.1,0.2,0.2,0.3,0.3
			v18.5h-2.2l-2.7,3.1h12.7l-2.4-3.1h-2.1V66.8C241.5,66.7,241.6,66.6,241.8,66.4z M245.4,66.2l5.9,5.5l-7.9-4.6l-0.3-0.8
			C244,66.5,244.9,66.3,245.4,66.2z M234.9,68.3l-7.7,2.3l7.9-4.5l0.8,0.1C235.4,66.9,235.1,67.8,234.9,68.3z M238.5,58.7l1.9-7.9
			v9.1l-0.5,0.6C239.6,60.1,239.2,59.5,238.5,58.7z M239.7,63.4c0.7,0,1.3,0.6,1.3,1.3c0,0.7-0.6,1.3-1.3,1.3s-1.3-0.6-1.3-1.3
			C238.5,64,239,63.4,239.7,63.4z M242.8,86.6l0.3,0.4h-7l0.3-0.4h3V67.4h0.6v19.2H242.8z"/>
	</g>
	<g>
		<path class="st3" d="M166.4,312.4L166.4,312.4L166.4,312.4L166.4,312.4C166.4,312.3,166.4,312.3,166.4,312.4
			C166.4,312.3,166.4,312.3,166.4,312.4C166.4,312.3,166.4,312.3,166.4,312.4C166.4,312.3,166.4,312.3,166.4,312.4l5.2-7.4l4.2,7.3
			c0.1,0.2,0.3,0.3,0.6,0.3c0.1,0,0.2,0,0.3-0.1c0.3-0.2,0.4-0.6,0.2-0.9l-6.4-11.1l2.1-0.8c0.1-0.1,0.3,0,0.4,0
			c0.1,0.1,0.2,0.2,0.3,0.3c0.1,0.2,0,0.5-0.2,0.6l-0.3,0.1c-0.3,0.2-0.4,0.6-0.3,0.9c0.2,0.3,0.6,0.4,0.9,0.3l0.3-0.1
			c0.8-0.4,1.1-1.3,0.9-2.1c-0.1-0.5-0.5-0.9-0.9-1.1s-1-0.2-1.4-0.1l-2.8,1.1c-0.2,0.1-0.3,0.2-0.4,0.4c-0.1,0.2,0,0.4,0,0.5
			l1.7,2.9l-7.1,1.6l-0.9-2h0.6c0.4,0,0.6-0.3,0.6-0.6c0-0.4-0.3-0.6-0.6-0.6h-3.6c-0.4,0-0.6,0.3-0.6,0.6c0,0.4,0.3,0.6,0.6,0.6
			h1.5l1.2,2.6l-1.8,1.8c-1-0.8-2.3-1.3-3.6-1.3c-3.2,0-5.9,2.6-5.9,5.9c0,3.2,2.6,5.9,5.9,5.9c3,0,5.5-2.3,5.8-5.2h3.1l0,0h0.1l0,0
			l0,0h0.1l0,0l0,0l0,0l0,0l0,0l0,0l0,0l0,0l0,0l0,0l0,0l0,0C166.3,312.5,166.3,312.5,166.4,312.4
			C166.3,312.5,166.3,312.5,166.4,312.4C166.3,312.5,166.3,312.5,166.4,312.4C166.3,312.5,166.3,312.4,166.4,312.4
			C166.3,312.4,166.3,312.4,166.4,312.4C166.3,312.4,166.3,312.4,166.4,312.4C166.3,312.4,166.3,312.4,166.4,312.4
			C166.3,312.4,166.3,312.4,166.4,312.4C166.3,312.4,166.3,312.4,166.4,312.4C166.3,312.4,166.3,312.4,166.4,312.4
			C166.3,312.4,166.3,312.4,166.4,312.4C166.3,312.4,166.3,312.4,166.4,312.4C166.3,312.4,166.3,312.4,166.4,312.4L166.4,312.4
			L166.4,312.4z M170.1,304.8l-4.1,5.8l-2-4.5L170.1,304.8z M164.9,311.3h-2.1c-0.1-1.1-0.6-2.2-1.3-3l1.4-1.4L164.9,311.3z
			 M160.6,309.2c0.5,0.6,0.8,1.3,0.9,2.1h-3L160.6,309.2z M157,316.5c-2.5,0-4.6-2-4.6-4.6s2-4.6,4.6-4.6c1,0,2,0.3,2.7,0.9
			l-3.2,3.2c-0.2,0.3-0.2,0.7,0,0.9c0.1,0.1,0.3,0.2,0.5,0.2l0,0l0,0h4.5C161.2,314.8,159.3,316.5,157,316.5z"/>
		<path class="st3" d="M176.3,306.1c-0.1,0-0.3,0-0.4,0c-0.4,0-0.6,0.3-0.6,0.7c0,0.4,0.3,0.6,0.7,0.6c0.1,0,0.2,0,0.3,0
			c2.5,0,4.6,2,4.6,4.6s-2,4.6-4.6,4.6c-2.5,0-4.6-2-4.6-4.6c0-0.9,0.3-1.8,0.8-2.5c0.2-0.3,0.1-0.7-0.2-0.9
			c-0.3-0.2-0.7-0.1-0.9,0.2c-0.6,1-1,2.1-1,3.2c0,3.2,2.6,5.9,5.9,5.9s5.9-2.6,5.9-5.9C182.1,308.7,179.5,306.1,176.3,306.1z"/>
	</g>
	<path class="st3" d="M312.5,178.6c1-0.8,1.9-1.7,2.4-2.7c0.8-1.5,0.9-2.9,0.2-4c-0.6-1.1-1.9-1.7-3.6-1.8c-1.1,0-2.3,0.2-3.5,0.7
		c-0.4-3.2-2.2-5.6-4.5-5.6c-2.2,0-4.1,2.4-4.5,5.6c-1.2-0.5-2.4-0.7-3.5-0.7c-1.7,0-2.9,0.7-3.6,1.8s-0.6,2.5,0.2,4
		c0.5,1,1.4,1.9,2.4,2.7c-1,0.8-1.9,1.7-2.4,2.7c-0.8,1.5-0.9,2.9-0.2,4c0.6,1.1,1.9,1.7,3.6,1.8c1.1,0,2.3-0.2,3.5-0.7
		c0.4,3.2,2.2,5.6,4.5,5.6c2.2,0,4.1-2.4,4.5-5.6c1.2,0.5,2.4,0.7,3.5,0.7c1.7,0,2.9-0.7,3.6-1.8s0.6-2.5-0.2-4
		C314.4,180.3,313.6,179.4,312.5,178.6z M311.6,171.6c1.1,0,2,0.4,2.4,1.1c0.4,0.7,0.3,1.6-0.3,2.6c-0.5,0.9-1.4,1.8-2.4,2.5
		c-0.3-0.2-0.6-0.3-0.9-0.4c-0.4-1.4-1.2-2.7-2.3-3.6c0.1-0.4,0.1-0.8,0.1-1.3C309.3,171.9,310.5,171.6,311.6,171.6z M303.6,166.7
		c1.6,0,2.9,2.2,3.1,4.9c-0.4,0.2-0.8,0.5-1.2,0.8c-0.6-0.2-1.2-0.2-1.8-0.2c-0.7,0-1.3,0.1-1.9,0.3c-0.4-0.3-0.8-0.6-1.2-0.8
		C300.7,168.9,302,166.7,303.6,166.7z M293.5,175.2c-0.5-1-0.6-1.9-0.3-2.6c0.4-0.7,1.2-1,2.4-1.1h0.1c1,0,2.2,0.3,3.3,0.8
		c0,0.5,0,1,0.1,1.4c-1,0.9-1.8,2.1-2.2,3.4c-0.3,0.2-0.7,0.3-1,0.5C294.9,177.1,294,176.2,293.5,175.2z M295.6,185.6
		c-1.1,0-2-0.4-2.4-1.1c-0.4-0.7-0.3-1.6,0.3-2.6c0.5-0.9,1.4-1.8,2.4-2.5c0.3,0.2,0.6,0.3,0.8,0.4c0.2,1.7,1,3.2,2.3,4.3
		c0,0.2,0,0.4,0,0.6C297.9,185.4,296.7,185.7,295.6,185.6z M303.6,190.5c-1.6,0-2.9-2.2-3.1-4.9c0.1-0.1,0.3-0.2,0.4-0.2
		c0.8,0.4,1.8,0.6,2.8,0.6c0.9,0,1.9-0.2,2.7-0.5c0.1,0.1,0.2,0.1,0.3,0.2C306.5,188.4,305.1,190.5,303.6,190.5z M313.9,184.6
		c-0.4,0.7-1.2,1-2.4,1.1c-1.1,0-2.3-0.3-3.4-0.8c0-0.2,0-0.3,0-0.5c1.3-1.1,2.2-2.7,2.4-4.5c0.2-0.1,0.5-0.2,0.7-0.4
		c1.1,0.7,1.9,1.6,2.4,2.5C314.2,183,314.3,183.9,313.9,184.6z"/>
	<path id="Pfad_252" class="st3" d="M135,314.6c0.1,0.1,0.2,0.1,0.2,0.2c0.3,0.3,0.7,0.5,1.2,0.4h0.1l3.2-3.8l1.3-3.2l0,0l2.4,2.2
		l1.4,4.9l1,0.4h1.2l0.9-0.6l0.4-0.8l-1.5-5.3l-0.1-0.1c-0.1-0.1-2.7-2.8-4-4c-0.1-0.4-0.1-0.8,0-1.2c0-0.3,0-0.6,0-0.8
		c0-0.1,0-0.2,0-0.3c0.6,0.9,1.5,1.5,2.5,2c0.6,0.3,1.4,0.4,2.1,0.3c0.3,0,0.6-0.1,1-0.3h0.1l0,0c0.5-0.5,0.6-1.2,0.1-1.8l0,0
		c-0.3-0.2-0.7-0.4-1-0.4c-0.4-0.1-0.8-0.2-1.2-0.3c-0.5-0.4-0.8-1-1-1.6c-0.1-0.3-0.3-0.7-0.5-1c-0.6-1-1.4-1.9-2.4-2.5
		c1-0.3,1.8-1.2,1.8-2.2c-0.1-1.4-1.2-2.4-2.6-2.3c-1.3,0.1-2.3,1.1-2.3,2.3c0,0.7,0.3,1.3,0.8,1.7c-0.3,0-0.7,0-1,0
		c-0.8,0-1.7,0.8-2.8,2.3c-0.5,0.7-0.9,1.4-1.3,2.1v0.1v4.2l0.1,0.1c0.1,0.1,0.4,0.5,1.4,0.6c0.4,0,0.7-0.1,1-0.3
		c0.1-0.1,0.1-0.1,0.1-0.2l-0.2,3.9c-0.4,0.5-2.3,3.4-2.6,4C134.1,313.9,134.6,314.3,135,314.6 M141.5,296.4
		c-0.9-0.1-1.5-0.9-1.5-1.7c0.1-0.9,0.9-1.5,1.7-1.5c0.8,0.1,1.5,0.8,1.5,1.6C143.2,295.7,142.4,296.4,141.5,296.4 M135.2,313.5
		c0.3-0.6,2.6-4,2.6-4l0.1-0.1l0.4-9.8l-1.5,2v3c0,0.1-0.1,0.3-0.1,0.4c-0.1,0.1-0.3,0.1-0.4,0.1c-0.2,0-0.5,0-0.7-0.2v-3.8
		c0.8-1.5,2.3-3.9,3.4-3.9c0.8,0,1.5,0.1,2.3,0.2l0,0c0.1,0,1.3,0.2,2.8,2.5c0.2,0.3,0.3,0.6,0.5,0.9c0.2,0.8,0.7,1.4,1.3,1.9
		c0.4,0.2,0.9,0.4,1.4,0.4c0.2,0,0.4,0.1,0.6,0.2c0.2,0.2,0.2,0.5,0,0.7l0,0c-0.2,0.1-0.4,0.1-0.7,0.2c-0.6,0.1-1.1,0-1.7-0.2l0,0
		c-0.9-0.4-1.6-1-2.2-1.8c-0.3-0.5-0.6-0.4-0.8-0.4c-0.4,0.2-0.7,0.7-0.6,1.2c0,0.2,0,0.5,0,0.7c-0.1,0.9-0.1,1.5,0.3,1.8
		c1.2,1.1,3.5,3.5,3.9,3.9l1.4,4.9l-0.2,0.4l-0.5,0.3h-1l-0.5-0.2L144,310l-2.6-2.4l-0.8-0.4l-1.5,3.8l-2.9,3.5
		c-0.2,0-0.3-0.1-0.4-0.2c-0.1-0.1-0.2-0.1-0.3-0.2C135.1,313.8,135,313.7,135.2,313.5"/>
	<text transform="matrix(1 0 0 1 49.2553 244.8844)" class="st1 st2">Industrie, </text>
	<text transform="matrix(1 0 0 1 34.9553 258.8845)" class="st1 st2">Wirtschaft &amp; </text>
	<text transform="matrix(1 0 0 1 54.5553 272.8845)" class="st1 st2">Konsum</text>
</g>
</svg>
