<?xml version="1.0" encoding="utf-8"?>
<!-- Generator: Adobe Illustrator 27.7.0, SVG Export Plug-In . SVG Version: 6.00 Build 0)  -->
<svg version="1.1" id="Ebene_1" xmlns="http://www.w3.org/2000/svg" xmlns:xlink="http://www.w3.org/1999/xlink" x="0px" y="0px"
	 viewBox="0 0 322 121.6" style="enable-background:new 0 0 322 121.6;" xml:space="preserve">
<style type="text/css">
	.st0{fill:#010202;}
	.st1{font-family:'RobotoCondensed-Bold';}
	.st2{font-size:36px;}
	.st3{fill:#FFDD00;}
	.st4{fill:#F39200;}
	.st5{fill:#16BAE7;}
	.st6{fill:#AFCA0B;}
	.st7{fill:#1EA64A;}
</style>
<text transform="matrix(1 0 0 1 81.79 92.1896)" class="st0 st1 st2">StadtLandKlima</text>
<g>
	<g>
		<path class="st3" d="M70.6,20.9c0-9.2-8-16.6-16.6-16.6s-16.6,7.4-16.6,16.6c0,1.7-0.4,3.6,2.1,10c1.4,3.5,14.5,26.6,14.5,26.6
			s13.1-23,14.5-26.6C71,24.5,70.6,22.7,70.6,20.9z M54,28.5c-3.9,0-7.1-3.2-7.1-7.3c0-4,3.2-7.3,7.1-7.3c3.9,0,7.1,3.2,7.1,7.3
			C61.1,25.2,57.9,28.5,54,28.5z"/>
	</g>
	<g>
		<path class="st4" d="M95.3,55.5c7.9-4.6,10.4-15.2,6.1-22.7s-14.8-10.7-22.7-6.1c-1.5,0.9-3.3,1.4-7.6,6.8
			c-2.3,2.9-15.7,25.9-15.7,25.9s26.5-0.1,30.3-0.7C92.4,57.7,93.8,56.4,95.3,55.5z M80.5,44.9c-2-3.4-0.8-7.8,2.7-9.8
			c3.5-2,7.9-0.9,9.9,2.6c2,3.4,0.8,7.8-2.7,9.8C86.9,49.5,82.5,48.3,80.5,44.9z"/>
	</g>
	<g>
		<path class="st5" d="M37.3,99.7c0,9.2,8,16.6,16.6,16.6s16.6-7.4,16.6-16.6c0-1.7,0.4-3.6-2.1-10c-1.4-3.5-14.5-26.6-14.5-26.6
			s-13.1,23-14.5,26.6C36.9,96.1,37.3,98,37.3,99.7z M53.9,92.2c3.9,0,7.1,3.2,7.1,7.3c0,4-3.2,7.3-7.1,7.3c-3.9,0-7.1-3.2-7.1-7.3
			C46.8,95.4,50,92.2,53.9,92.2z"/>
	</g>
	<g>
		<path class="st6" d="M29.2,26.7c-7.9-4.6-18.4-1.4-22.7,6.1s-1.9,18.1,6.1,22.7c1.5,0.9,2.9,2.2,9.7,3.2
			c3.7,0.5,30.3,0.7,30.3,0.7S39.2,36.5,36.8,33.5C32.5,28.1,30.7,27.6,29.2,26.7z M27.4,44.9c-2,3.4-6.4,4.6-9.9,2.6
			c-3.5-2-4.7-6.4-2.7-9.8c2-3.4,6.4-4.6,9.9-2.6C28.2,37,29.4,41.4,27.4,44.9z"/>
	</g>
	<g>
		<path class="st7" d="M12.6,65.2C4.6,69.7,2.2,80.4,6.5,87.9c4.3,7.5,14.8,10.7,22.7,6.1c1.5-0.9,3.3-1.4,7.6-6.8
			c2.3-2.9,15.7-25.9,15.7-25.9S26,61.4,22.2,62C15.5,63,14.1,64.3,12.6,65.2z M27.4,75.8c2,3.4,0.8,7.8-2.7,9.8
			c-3.5,2-7.9,0.9-9.9-2.6c-2-3.4-0.8-7.8,2.7-9.8C21,71.2,25.4,72.4,27.4,75.8z"/>
	</g>
</g>
</svg>
