<?xml version="1.0" encoding="utf-8"?>
<!-- Generator: Adobe Illustrator 27.7.0, SVG Export Plug-In . SVG Version: 6.00 Build 0)  -->
<svg version="1.1" id="Ebene_1" xmlns="http://www.w3.org/2000/svg" xmlns:xlink="http://www.w3.org/1999/xlink" x="0px" y="0px"
	 viewBox="0 0 141.7 141.7" style="enable-background:new 0 0 141.7 141.7;" xml:space="preserve">
<style type="text/css">
	.st0{fill:#9d9d9c;}
	.st1{fill:#fff;}
</style>
<circle class="st0" cx="70.9" cy="71" r="70.9"/>
<g>
	<path class="st1" d="M120.7,63.9V31.1H21.1v32.9h5.5v44h-4v3h4h32.3h24.4h32.3h3.5v-3h-3.5v-44H120.7z M24.1,60.9V34.1h93.6v26.9
		h-2H96.9L71,37.3L45.6,60.9h-19H24.1z M61.9,107.9V84.3h18.4v23.6H61.9z M112.6,107.9H83.3V81.3H58.9v26.6H29.6v-44h12.8l-1.3,1.2
		l2,2.2l3.6-3.4h0.1v-0.1L71,41.4l24.6,22.4v0.1h0.1l3.7,3.4l2-2.2l-1.3-1.2h12.5V107.9z"/>
	<path class="st1" d="M34.8,94.5h14.4V76.2H34.8V94.5z M37.8,79.2h8.4v12.3h-8.4V79.2z"/>
	<path class="st1" d="M93.1,94.5h14.4V76.2H93.1V94.5z M96.1,79.2h8.4v12.3h-8.4V79.2z"/>
	<path class="st1" d="M71.1,49.5c-6.3,0-11.4,5.1-11.4,11.4s5.1,11.4,11.4,11.4c6.3,0,11.4-5.1,11.4-11.4S77.4,49.5,71.1,49.5z
		 M71.1,69.2c-4.6,0-8.4-3.7-8.4-8.4s3.7-8.4,8.4-8.4c4.6,0,8.4,3.7,8.4,8.4S75.8,69.2,71.1,69.2z"/>
	<polygon class="st1" points="69.4,59.4 63.9,59.4 63.9,62.4 72.4,62.4 72.4,56.8 69.4,56.8 	"/>
</g>
</svg>
