<?xml version="1.0" encoding="UTF-8"?>
<!-- Generator: Adobe Illustrator 28.0.0, SVG Export Plug-In . SVG Version: 6.00 Build 0)  -->
<svg version="1.1" id="Ebene_1" xmlns="http://www.w3.org/2000/svg" xmlns:xlink="http://www.w3.org/1999/xlink" x="0px" y="0px" viewBox="0 0 345.9 121.6" style="enable-background:new 0 0 345.9 121.6;" xml:space="preserve">
<style type="text/css">
	.st0{fill:#FFDD00;}
	.st1{fill:#F39200;}
	.st2{fill:#16BAE7;}
	.st3{fill:#AFCA0B;}
	.st4{fill:#1EA64A;}
	.st5{fill:#010202;}
	.st6{fill:#FFFFFF;}
</style>
<g>
	<g>
		<path class="st0" d="M70.6,20.9c0-9.2-8-16.6-16.6-16.6s-16.6,7.4-16.6,16.6c0,1.7-0.4,3.6,2.1,10c1.4,3.5,14.5,26.6,14.5,26.6    s13.1-23,14.5-26.6C71,24.5,70.6,22.7,70.6,20.9z M54,28.5c-3.9,0-7.1-3.2-7.1-7.3c0-4,3.2-7.3,7.1-7.3c3.9,0,7.1,3.2,7.1,7.3    C61.1,25.2,57.9,28.5,54,28.5z"/>
	</g>
	<g>
		<path class="st1" d="M95.3,55.5c7.9-4.6,10.4-15.2,6.1-22.7s-14.8-10.7-22.7-6.1c-1.5,0.9-3.3,1.4-7.6,6.8    c-2.3,2.9-15.7,25.9-15.7,25.9s26.5-0.1,30.3-0.7C92.4,57.7,93.8,56.4,95.3,55.5z M80.5,44.9c-2-3.4-0.8-7.8,2.7-9.8    c3.5-2,7.9-0.9,9.9,2.6c2,3.4,0.8,7.8-2.7,9.8C86.9,49.5,82.5,48.3,80.5,44.9z"/>
	</g>
	<g>
		<path class="st2" d="M37.3,99.7c0,9.2,8,16.6,16.6,16.6s16.6-7.4,16.6-16.6c0-1.7,0.4-3.6-2.1-10c-1.4-3.5-14.5-26.6-14.5-26.6    s-13.1,23-14.5,26.6C36.9,96.1,37.3,98,37.3,99.7z M53.9,92.2c3.9,0,7.1,3.2,7.1,7.3c0,4-3.2,7.3-7.1,7.3c-3.9,0-7.1-3.2-7.1-7.3    C46.8,95.4,50,92.2,53.9,92.2z"/>
	</g>
	<g>
		<path class="st3" d="M29.2,26.7c-7.9-4.6-18.4-1.4-22.7,6.1s-1.9,18.1,6.1,22.7c1.5,0.9,2.9,2.2,9.7,3.2    c3.7,0.5,30.3,0.7,30.3,0.7S39.2,36.5,36.8,33.5C32.5,28.1,30.7,27.6,29.2,26.7z M27.4,44.9c-2,3.4-6.4,4.6-9.9,2.6    c-3.5-2-4.7-6.4-2.7-9.8c2-3.4,6.4-4.6,9.9-2.6C28.2,37,29.4,41.4,27.4,44.9z"/>
	</g>
	<g>
		<path class="st4" d="M12.6,65.2C4.6,69.7,2.2,80.4,6.5,87.9c4.3,7.5,14.8,10.7,22.7,6.1c1.5-0.9,3.3-1.4,7.6-6.8    c2.3-2.9,15.7-25.9,15.7-25.9S26,61.4,22.2,62C15.5,63,14.1,64.3,12.6,65.2z M27.4,75.8c2,3.4,0.8,7.8-2.7,9.8    c-3.5,2-7.9,0.9-9.9-2.6c-2-3.4-0.8-7.8,2.7-9.8C21,71.2,25.4,72.4,27.4,75.8z"/>
	</g>
</g>
<g>
	<path class="st5" d="M94.7,85.5c0-1-0.3-1.8-0.8-2.4s-1.5-1.1-2.9-1.7c-2.6-1-4.4-2.1-5.5-3.4s-1.7-2.9-1.7-4.6   c0-2.2,0.8-3.9,2.3-5.2s3.5-2,5.8-2c1.6,0,3,0.3,4.2,1s2.2,1.6,2.8,2.8s1,2.6,1,4.1h-5.2c0-1.2-0.3-2.1-0.8-2.7s-1.2-0.9-2.2-0.9   c-0.9,0-1.6,0.3-2.1,0.8s-0.8,1.3-0.8,2.2c0,0.7,0.3,1.3,0.8,1.9s1.6,1.2,3,1.8c2.5,0.9,4.3,2,5.4,3.3s1.7,3,1.7,5   c0,2.2-0.7,4-2.1,5.2s-3.3,1.9-5.8,1.9c-1.7,0-3.2-0.3-4.5-1s-2.4-1.7-3.2-2.9s-1.2-2.8-1.2-4.5h5.2c0,1.5,0.3,2.5,0.9,3.2   s1.5,1,2.8,1C93.8,88.3,94.7,87.4,94.7,85.5z"/>
	<path class="st5" d="M108.8,68.5v4.7h2.5v3.7h-2.5v9.5c0,0.8,0.1,1.3,0.3,1.5c0.2,0.3,0.6,0.4,1.2,0.4c0.5,0,0.9,0,1.2-0.1l0,3.9   c-0.8,0.3-1.8,0.5-2.7,0.5c-3.2,0-4.8-1.8-4.9-5.5V76.9h-2.2v-3.7h2.2v-4.7H108.8z"/>
	<path class="st5" d="M123.1,92.2c-0.1-0.3-0.3-0.8-0.4-1.5c-0.9,1.2-2.1,1.8-3.6,1.8c-1.6,0-2.9-0.5-4-1.6s-1.6-2.4-1.6-4.1   c0-2,0.6-3.5,1.9-4.6s3.1-1.6,5.5-1.7h1.5V79c0-0.9-0.1-1.5-0.4-1.8s-0.7-0.5-1.3-0.5c-1.2,0-1.9,0.7-1.9,2.2h-5   c0-1.8,0.7-3.2,2-4.4s3-1.7,5-1.7c2.1,0,3.7,0.5,4.8,1.6s1.7,2.6,1.7,4.6V88c0,1.6,0.3,2.9,0.7,3.8v0.3H123.1z M120.2,88.6   c0.6,0,1-0.1,1.4-0.3s0.7-0.5,0.9-0.8v-4h-1.2c-0.8,0-1.5,0.3-2,0.8s-0.7,1.3-0.7,2.2C118.5,87.9,119.1,88.6,120.2,88.6z"/>
	<path class="st5" d="M130.4,82.1c0-3.1,0.5-5.4,1.6-7s2.6-2.3,4.6-2.3c1.5,0,2.7,0.6,3.7,1.9v-9.5h5v27h-4.5l-0.2-1.9   c-1,1.5-2.3,2.3-3.9,2.3c-2,0-3.5-0.8-4.6-2.3s-1.6-3.8-1.6-6.7V82.1z M135.4,83.3c0,1.9,0.2,3.2,0.6,3.9s1.1,1.1,2,1.1   c1,0,1.7-0.4,2.2-1.3v-8.7c-0.5-0.9-1.2-1.4-2.2-1.4c-0.9,0-1.6,0.4-2,1.1s-0.6,2.1-0.6,3.9V83.3z"/>
	<path class="st5" d="M154.7,68.5v4.7h2.5v3.7h-2.5v9.5c0,0.8,0.1,1.3,0.3,1.5c0.2,0.3,0.6,0.4,1.2,0.4c0.5,0,0.9,0,1.2-0.1l0,3.9   c-0.8,0.3-1.8,0.5-2.7,0.5c-3.2,0-4.8-1.8-4.9-5.5V76.9h-2.2v-3.7h2.2v-4.7H154.7z"/>
	<path class="st5" d="M159.6,89.7c0-0.8,0.3-1.5,0.8-2s1.2-0.8,2.1-0.8c0.8,0,1.5,0.3,2.1,0.8s0.8,1.2,0.8,2c0,0.8-0.3,1.5-0.8,2   s-1.2,0.7-2.1,0.7c-0.8,0-1.5-0.3-2.1-0.8S159.6,90.5,159.6,89.7z"/>
	<path class="st5" d="M175.1,87.9h9.1v4.3h-14.2V66.6h5.2V87.9z"/>
	<path class="st5" d="M193.8,92.2c-0.1-0.3-0.3-0.8-0.4-1.5c-0.9,1.2-2.1,1.8-3.6,1.8c-1.6,0-2.9-0.5-4-1.6s-1.6-2.4-1.6-4.1   c0-2,0.6-3.5,1.9-4.6s3.1-1.6,5.5-1.7h1.5V79c0-0.9-0.1-1.5-0.4-1.8s-0.7-0.5-1.3-0.5c-1.2,0-1.9,0.7-1.9,2.2h-5   c0-1.8,0.7-3.2,2-4.4s3-1.7,5-1.7c2.1,0,3.7,0.5,4.8,1.6s1.7,2.6,1.7,4.6V88c0,1.6,0.3,2.9,0.7,3.8v0.3H193.8z M190.9,88.6   c0.6,0,1-0.1,1.4-0.3s0.7-0.5,0.9-0.8v-4h-1.2c-0.8,0-1.5,0.3-2,0.8s-0.7,1.3-0.7,2.2C189.2,87.9,189.8,88.6,190.9,88.6z"/>
	<path class="st5" d="M206.3,73.2l0.1,1.9c1.1-1.5,2.6-2.2,4.4-2.2c3.3,0,5,2.3,5,6.9v12.5h-5V80.1c0-1.1-0.2-1.9-0.5-2.3   s-0.9-0.7-1.7-0.7c-0.9,0-1.6,0.5-2.1,1.4v13.8h-5v-19H206.3z"/>
	<path class="st5" d="M218.8,82.1c0-3.1,0.5-5.4,1.6-7s2.6-2.3,4.6-2.3c1.5,0,2.7,0.6,3.7,1.9v-9.5h5v27h-4.5l-0.2-1.9   c-1,1.5-2.3,2.3-3.9,2.3c-2,0-3.5-0.8-4.6-2.3s-1.6-3.8-1.6-6.7V82.1z M223.8,83.3c0,1.9,0.2,3.2,0.6,3.9s1.1,1.1,2,1.1   c1,0,1.7-0.4,2.2-1.3v-8.7c-0.5-0.9-1.2-1.4-2.2-1.4c-0.9,0-1.6,0.4-2,1.1s-0.6,2.1-0.6,3.9V83.3z"/>
	<path class="st5" d="M235.5,89.7c0-0.8,0.3-1.5,0.8-2s1.2-0.8,2.1-0.8c0.8,0,1.5,0.3,2.1,0.8s0.8,1.2,0.8,2c0,0.8-0.3,1.5-0.8,2   s-1.2,0.7-2.1,0.7c-0.8,0-1.5-0.3-2.1-0.8S235.5,90.5,235.5,89.7z"/>
	<path class="st5" d="M253,82.3l-2,2.6v7.3h-5.2V66.6h5.2v11.2l1.6-2.8l4.8-8.4h6.3l-7.3,11.2l7.5,14.3h-6.1L253,82.3z"/>
	<path class="st5" d="M270.7,92.2h-5v-27h5V92.2z"/>
	<path class="st5" d="M274.6,68.2c0-0.8,0.2-1.4,0.7-1.9s1.1-0.7,2-0.7s1.5,0.2,2,0.7s0.7,1.1,0.7,1.9c0,0.8-0.2,1.4-0.7,1.9   s-1.1,0.8-2,0.8s-1.5-0.3-2-0.8S274.6,69,274.6,68.2z M279.8,92.2h-5v-19h5V92.2z"/>
	<path class="st5" d="M288.3,73.2l0.1,1.8c1.1-1.4,2.6-2.1,4.4-2.1c1.9,0,3.2,0.9,4,2.6c1.1-1.7,2.6-2.6,4.7-2.6   c3.3,0,5,2.3,5.1,6.9v12.5h-5V80c0-1.1-0.2-1.9-0.5-2.4s-0.8-0.7-1.5-0.7c-0.9,0-1.6,0.6-2.1,1.7l0,0.6v12.9h-5V80.1   c0-1.1-0.1-1.9-0.4-2.4s-0.8-0.7-1.6-0.7c-0.9,0-1.5,0.5-2,1.4v13.8h-5v-19H288.3z"/>
	<path class="st5" d="M319.4,92.2c-0.1-0.3-0.3-0.8-0.4-1.5c-0.9,1.2-2.1,1.8-3.6,1.8c-1.6,0-2.9-0.5-4-1.6s-1.6-2.4-1.6-4.1   c0-2,0.6-3.5,1.9-4.6s3.1-1.6,5.5-1.7h1.5V79c0-0.9-0.1-1.5-0.4-1.8s-0.7-0.5-1.3-0.5c-1.2,0-1.9,0.7-1.9,2.2h-5   c0-1.8,0.7-3.2,2-4.4s3-1.7,5-1.7c2.1,0,3.7,0.5,4.8,1.6s1.7,2.6,1.7,4.6V88c0,1.6,0.3,2.9,0.7,3.8v0.3H319.4z M316.4,88.6   c0.6,0,1-0.1,1.4-0.3s0.7-0.5,0.9-0.8v-4h-1.2c-0.8,0-1.5,0.3-2,0.8s-0.7,1.3-0.7,2.2C314.8,87.9,315.3,88.6,316.4,88.6z"/>
	<path class="st5" d="M326.1,89.8c0-0.8,0.3-1.5,0.8-2s1.2-0.8,2-0.8c0.8,0,1.4,0.3,2,0.8s0.8,1.2,0.8,2c0,0.8-0.2,1.4-0.7,1.9   s-1.2,0.8-2,0.8c-0.8,0-1.5-0.3-2-0.8S326.1,90.6,326.1,89.8z M330.9,84.3h-4.1l-0.6-17.7h5.3L330.9,84.3z"/>
</g>
<path class="st1" d="M129.6,113.6H85.9c-1.6,0-2.9-1.3-2.9-2.9V97.8c0-1.6,1.3-2.9,2.9-2.9h43.7c1.6,0,2.9,1.3,2.9,2.9v12.9  C132.6,112.3,131.3,113.6,129.6,113.6z"/>
<g>
	<path class="st6" d="M92.2,110.3l2.2-12.8l3.4,0c1,0,1.8,0.3,2.3,0.9s0.7,1.4,0.6,2.4c-0.1,1.2-0.8,2.1-2.1,2.8   c0.5,0.2,0.8,0.6,1,1.1s0.3,1.1,0.3,1.8c-0.1,1.2-0.5,2.1-1.2,2.8s-1.6,1-2.8,1H92.2z M94.8,104.3l-0.8,4.6l2,0   c0.8,0,1.4-0.3,1.9-0.9s0.6-1.4,0.6-2.3c-0.1-0.9-0.5-1.4-1.4-1.4L94.8,104.3z M95.1,102.9l1.9,0c0.5,0,0.9-0.1,1.3-0.4   s0.6-0.6,0.8-1.1c0.2-0.5,0.2-0.9,0.2-1.4c-0.1-0.7-0.6-1.1-1.4-1.2l-2.1,0L95.1,102.9z"/>
	<path class="st6" d="M105.2,110.4c-1.1,0-1.9-0.4-2.4-1.2s-0.7-1.8-0.6-3.1l0.1-0.9c0.2-1.5,0.6-2.6,1.3-3.5s1.6-1.2,2.7-1.2   c0.9,0,1.6,0.3,2,0.9s0.7,1.4,0.6,2.5l-0.1,1.1l-0.1,0.9l-5.1,0c-0.1,0.5-0.1,0.9-0.1,1.2c0,0.6,0.2,1.1,0.4,1.4s0.7,0.5,1.2,0.5   c0.4,0,0.7-0.1,1.1-0.2s0.8-0.4,1.2-0.8l0.7,1c-0.4,0.5-0.8,0.9-1.4,1.1S105.8,110.5,105.2,110.4z M106.3,101.9   c-1,0-1.8,0.6-2.2,1.9l-0.2,0.9l3.6,0l0-0.2c0-0.3,0.1-0.6,0.1-0.8C107.6,102.5,107.2,102,106.3,101.9z"/>
	<path class="st6" d="M113.9,98.5l-0.4,2.3h1.4l-0.2,1.3h-1.4l-1,5.9l0,0.4c0,0.5,0.2,0.7,0.5,0.7c0.1,0,0.4,0,0.6-0.1l-0.1,1.3   c-0.3,0.1-0.7,0.2-1,0.2c-0.5,0-0.9-0.2-1.2-0.7s-0.4-1.1-0.3-1.9l1-5.9h-1.4l0.2-1.3h1.4l0.4-2.3H113.9z"/>
	<path class="st6" d="M120,110.3c0-0.2,0-0.3,0-0.5l0-0.5c-0.7,0.8-1.4,1.2-2.2,1.2c-0.8,0-1.4-0.2-1.8-0.7s-0.6-1.2-0.6-2   c0.1-1,0.5-1.8,1.2-2.4s1.7-0.9,2.9-0.9h1.1l0.1-1c0.1-1-0.3-1.6-1.2-1.6c-0.5,0-0.8,0.1-1.2,0.4s-0.5,0.6-0.6,1.1l-1.5,0   c0.1-0.8,0.4-1.5,1.1-2s1.4-0.8,2.3-0.8c0.9,0,1.5,0.3,2,0.8s0.6,1.2,0.6,2.1l-0.8,4.7c-0.1,0.3-0.1,0.7-0.1,1l0.1,1l0,0.1H120z    M118.1,109c0.8,0,1.4-0.4,2-1.1l0.4-2.3l-0.7,0c-0.6,0-1.1,0.1-1.6,0.3s-0.8,0.5-1,0.9s-0.3,0.8-0.2,1.3   C117.1,108.8,117.5,109,118.1,109z"/>
</g>
</svg>